<svg width="24" height="24" viewBox="0 0 24 24" fill="none" xmlns="http://www.w3.org/2000/svg">
<rect x="-6.10352e-05" y="-1.52588e-05" width="24" height="24" rx="12" fill="#0579C3"/>
<g clip-path="url(#clip0_7033_21945)">
<path fill-rule="evenodd" clip-rule="evenodd" d="M16.3887 6.52873C16.886 6.52873 17.3629 6.72628 17.7145 7.07791C18.0661 7.42954 18.2637 7.90645 18.2637 8.40373V14.6537C18.2637 15.151 18.0661 15.6279 17.7145 15.9796C17.3629 16.3312 16.886 16.5287 16.3887 16.5287H9.0968L7.01367 18.0912C6.49867 18.4775 5.76367 18.11 5.76367 17.4662V8.40373C5.76367 7.90645 5.96122 7.42954 6.31285 7.07791C6.66448 6.72628 7.14139 6.52873 7.63867 6.52873H16.3887ZM11.3887 12.1537H9.51367C9.34791 12.1537 9.18894 12.2196 9.07173 12.3368C8.95452 12.454 8.88867 12.613 8.88867 12.7787C8.88867 12.9445 8.95452 13.1035 9.07173 13.2207C9.18894 13.3379 9.34791 13.4037 9.51367 13.4037H11.3887C11.5544 13.4037 11.7134 13.3379 11.8306 13.2207C11.9478 13.1035 12.0137 12.9445 12.0137 12.7787C12.0137 12.613 11.9478 12.454 11.8306 12.3368C11.7134 12.2196 11.5544 12.1537 11.3887 12.1537ZM14.5137 9.65373H9.51367C9.35437 9.65391 9.20115 9.71491 9.08532 9.82426C8.96948 9.93362 8.89978 10.0831 8.89044 10.2421C8.8811 10.4011 8.93284 10.5577 9.03509 10.6799C9.13733 10.802 9.28236 10.8805 9.44055 10.8994L9.51367 10.9037H14.5137C14.673 10.9036 14.8262 10.8426 14.942 10.7332C15.0579 10.6238 15.1276 10.4744 15.1369 10.3154C15.1462 10.1563 15.0945 9.99974 14.9923 9.87759C14.89 9.75543 14.745 9.67692 14.5868 9.65811L14.5137 9.65373Z" fill="white"/>
</g>
<defs>
<clipPath id="clip0_7033_21945">
<rect width="15" height="15" fill="white" transform="translate(4.51471 4.65405)"/>
</clipPath>
</defs>
</svg>
