<svg width="24" height="24" viewBox="0 0 24 24" fill="none" xmlns="http://www.w3.org/2000/svg">
<path d="M12.0273 -1.52588e-05H11.9727C5.36034 -1.52588e-05 0 5.36033 0 11.9726V12.0273C0 18.6396 5.36034 24 11.9727 24H12.0273C18.6396 24 24 18.6396 24 12.0273V11.9726C24 5.36033 18.6396 -1.52588e-05 12.0273 -1.52588e-05Z" fill="#5865F2"/>
<path d="M18.0061 6.49036C16.9012 5.98333 15.7173 5.61 14.4788 5.39643C14.4561 5.39223 14.4334 5.40232 14.4224 5.42334C14.2702 5.69409 14.1012 6.04808 13.9835 6.32556C12.6516 6.12628 11.3265 6.12628 10.0215 6.32556C9.90294 6.04135 9.72804 5.69409 9.57501 5.42334C9.56324 5.40316 9.54054 5.39307 9.51868 5.39643C8.28097 5.61 7.09623 5.98333 5.99137 6.49036C5.98212 6.49456 5.97371 6.50129 5.96783 6.51054C3.72111 9.86716 3.1056 13.1414 3.40746 16.3752C3.40915 16.3912 3.41756 16.4063 3.43017 16.4156C4.91256 17.5045 6.34873 18.1654 7.75797 18.6034C7.78067 18.6102 7.80421 18.6018 7.81851 18.5833C8.15148 18.1284 8.44914 17.6483 8.70391 17.1429C8.71905 17.1135 8.7039 17.0782 8.67363 17.0664C8.20192 16.8873 7.75375 16.6695 7.32156 16.4223C7.28709 16.4021 7.28458 16.3534 7.31569 16.3298C7.4065 16.2617 7.49731 16.1911 7.58391 16.1196C7.59989 16.1062 7.62174 16.1036 7.64024 16.112C10.4764 17.4069 13.5471 17.4069 16.3496 16.112C16.3681 16.1028 16.39 16.1062 16.406 16.1188C16.4926 16.1902 16.5834 16.2617 16.675 16.3298C16.7061 16.3534 16.7045 16.4021 16.67 16.4223C16.2386 16.6746 15.7896 16.8881 15.3171 17.0664C15.286 17.0782 15.2725 17.1135 15.2876 17.1438C15.5483 17.6474 15.8451 18.1275 16.1722 18.5833C16.1857 18.6026 16.21 18.611 16.2327 18.6043C17.6487 18.1662 19.0849 17.5053 20.5673 16.4164C20.5799 16.4072 20.5883 16.392 20.59 16.3769C20.9515 12.6386 19.9846 9.39124 18.0279 6.51222C18.0229 6.50297 18.0153 6.4954 18.0052 6.4912L18.0061 6.49036ZM9.12599 14.406C8.2717 14.406 7.56878 13.6223 7.56878 12.6596C7.56878 11.6968 8.25909 10.9132 9.12599 10.9132C9.9929 10.9132 10.6975 11.7044 10.6832 12.6596C10.6832 13.6223 9.9929 14.406 9.12599 14.406ZM14.8849 14.406C14.0306 14.406 13.3277 13.6223 13.3277 12.6596C13.3277 11.6968 14.018 10.9132 14.8849 10.9132C15.7518 10.9132 16.4564 11.7044 16.4421 12.6596C16.4421 13.6223 15.7593 14.406 14.8849 14.406Z" fill="white"/>
</svg>
