<svg width="24" height="24" viewBox="0 0 24 24" fill="none" xmlns="http://www.w3.org/2000/svg">
<path d="M12.0273 -1.52588e-05H11.9726C5.36029 -1.52588e-05 -6.10352e-05 5.36033 -6.10352e-05 11.9727V12.0273C-6.10352e-05 18.6396 5.36029 24 11.9726 24H12.0273C18.6396 24 23.9999 18.6396 23.9999 12.0273V11.9727C23.9999 5.36033 18.6396 -1.52588e-05 12.0273 -1.52588e-05Z" fill="#EA4C89"/>
<path d="M19.5314 12.312C19.533 12.286 19.5339 12.2591 19.5347 12.2321L19.549 11.8983L19.5364 11.895C19.512 10.1309 18.8831 8.45932 17.7488 7.12407L17.7622 7.10977L17.4049 6.74233C15.9713 5.27002 14.0516 4.45946 11.9983 4.45946C10.9439 4.45946 9.92985 4.67219 8.97718 5.09008L8.96961 5.0842L8.66019 5.23723C8.2507 5.43987 7.86392 5.67699 7.5032 5.94521C7.26272 6.12431 7.03401 6.31602 6.81708 6.52119C6.73636 6.5977 6.65816 6.6759 6.5808 6.75578C5.52051 7.85139 4.80075 9.25643 4.5527 10.7935L4.47282 11.2912L4.49048 11.2955C4.46862 11.5292 4.45685 11.7655 4.45685 12.0009C4.45685 13.9996 5.25396 15.9158 6.65732 17.3242L6.65143 17.3352L6.9659 17.6169C8.35076 18.8579 10.1375 19.5424 11.9975 19.5424C12.1295 19.5424 12.2607 19.539 12.391 19.5323C13.3058 19.486 14.1912 19.2758 15.027 18.9084C15.027 18.9084 15.0278 18.9084 15.0287 18.9084L15.3558 18.7646V18.7545C17.79 17.5395 19.4153 15.0565 19.5305 12.333C19.5305 12.3322 19.5305 12.3314 19.5305 12.3305C19.5305 12.3297 19.5305 12.328 19.5305 12.3272V12.3154L19.5314 12.312ZM18.4265 12.724C18.4231 12.7509 18.4198 12.7778 18.4164 12.8048C18.4105 12.851 18.4046 12.8972 18.3979 12.9427C18.3937 12.9721 18.3887 13.0015 18.3836 13.0309C18.3769 13.0738 18.3693 13.1167 18.3618 13.1596C18.3559 13.1907 18.35 13.221 18.3433 13.2521C18.3348 13.2933 18.3273 13.3345 18.318 13.3748C18.3113 13.406 18.3037 13.4371 18.2962 13.4682C18.2869 13.5085 18.2768 13.5481 18.2667 13.5876C18.2583 13.6187 18.2499 13.6506 18.2415 13.6818C18.2306 13.7204 18.2197 13.7599 18.2087 13.7986C18.1995 13.8297 18.1902 13.8617 18.1801 13.8928C18.1684 13.9315 18.1558 13.9693 18.144 14.008C18.1339 14.0391 18.123 14.0702 18.112 14.1013C18.0986 14.1392 18.0851 14.177 18.0717 14.2148C18.0607 14.2451 18.049 14.2762 18.0372 14.3065C18.0229 14.3443 18.0078 14.3813 17.9926 14.4192C17.9809 14.4494 17.9682 14.4789 17.9556 14.5091C17.9397 14.5461 17.9237 14.5831 17.9069 14.6201C17.8934 14.6496 17.8808 14.679 17.8673 14.7076C17.8497 14.7446 17.832 14.7816 17.8144 14.8186C17.8009 14.8471 17.7866 14.8749 17.7723 14.9035C17.7538 14.9405 17.7337 14.9775 17.7143 15.0145C17.7 15.0414 17.6857 15.0683 17.6714 15.0952C17.6504 15.133 17.6285 15.1709 17.6067 15.2087C17.5924 15.2339 17.5781 15.2592 17.5638 15.2835C17.5394 15.3247 17.5142 15.3659 17.489 15.4063C17.4764 15.4265 17.4637 15.4475 17.4511 15.4685C17.4158 15.524 17.3797 15.5787 17.3427 15.6333C17.3393 15.6392 17.3351 15.6443 17.3317 15.6501C17.2905 15.7098 17.2485 15.7687 17.2056 15.8276C17.193 15.8444 17.1795 15.8612 17.1669 15.878C17.1367 15.9192 17.1055 15.9596 17.0744 15.9999C17.0576 16.0218 17.04 16.0428 17.0223 16.0647C16.9946 16.0992 16.966 16.1345 16.9374 16.1681C16.918 16.1908 16.8979 16.2135 16.8785 16.2362C16.8508 16.2682 16.823 16.3001 16.7944 16.3321C16.7734 16.3556 16.7524 16.3783 16.7314 16.401C16.7036 16.4313 16.675 16.4616 16.6465 16.4918C16.6246 16.5145 16.6019 16.5372 16.5792 16.5599C16.5506 16.5885 16.522 16.6179 16.4926 16.6465C16.469 16.6692 16.4463 16.6911 16.4228 16.7138C16.3934 16.7416 16.3639 16.7693 16.3345 16.7962C16.3101 16.8181 16.2857 16.8399 16.2613 16.8618C16.2311 16.8887 16.2008 16.9148 16.1697 16.9408C16.1445 16.9618 16.1201 16.9829 16.094 17.0039C16.0629 17.0291 16.0318 17.0552 15.9998 17.0796C15.9746 17.0997 15.9486 17.1199 15.9225 17.1401C15.8905 17.1645 15.8577 17.1889 15.8258 17.2133C15.7997 17.2326 15.7728 17.2519 15.7468 17.2713C15.714 17.2948 15.6803 17.3184 15.6467 17.3411C15.6198 17.3596 15.5937 17.3781 15.5668 17.3957C15.5323 17.4184 15.497 17.4411 15.4626 17.463C15.4356 17.4798 15.4087 17.4975 15.3818 17.5143C15.3566 17.5303 15.3305 17.5445 15.3045 17.5605C15.1826 15.9697 14.826 14.3225 14.2602 12.7383C15.6618 12.423 17.0845 12.4129 18.4282 12.7123C18.4282 12.7165 18.4282 12.7207 18.4273 12.724H18.4265ZM13.8666 11.731C13.6766 11.2812 13.4731 10.8414 13.2545 10.4159C14.6621 9.77606 15.9393 8.91589 16.9988 7.89595C17.8699 8.95457 18.3769 10.2503 18.4551 11.6234C16.9677 11.3249 15.402 11.3619 13.8658 11.731H13.8666ZM5.7181 10.4353C5.74249 10.3369 5.76939 10.2385 5.79882 10.1418C5.80387 10.1242 5.80975 10.1057 5.8148 10.088C5.84423 9.993 5.87534 9.89883 5.90897 9.80549C5.91149 9.79877 5.91318 9.79288 5.9157 9.78616C5.9199 9.77438 5.92411 9.76261 5.92831 9.75084C5.96279 9.65835 5.99894 9.56754 6.03678 9.47673C6.04267 9.46327 6.04771 9.45066 6.0536 9.43721C6.05444 9.43468 6.05612 9.43216 6.05696 9.4288C6.09648 9.33715 6.13852 9.2455 6.18308 9.15553C6.18981 9.14123 6.19738 9.12694 6.20411 9.1118C6.24951 9.02099 6.2966 8.93186 6.34621 8.84358C6.35377 8.82928 6.36134 8.81583 6.36975 8.80238C6.41852 8.71661 6.46981 8.63169 6.52278 8.5476C6.52867 8.53835 6.53455 8.52911 6.54044 8.51986C6.5438 8.51397 6.54801 8.50808 6.55221 8.5022C6.60602 8.41811 6.66236 8.33571 6.71954 8.25499C6.72963 8.2407 6.74056 8.22556 6.75065 8.21127C6.80951 8.12971 6.87089 8.04899 6.93395 7.96995C6.94404 7.95734 6.95497 7.94472 6.96506 7.93211C7.02896 7.85307 7.09455 7.77487 7.16266 7.69836C7.17107 7.68827 7.18032 7.67902 7.18872 7.66893C7.25851 7.59073 7.33083 7.51505 7.40482 7.44022C7.41323 7.43181 7.4208 7.42425 7.4292 7.41584C7.50152 7.34437 7.57467 7.27374 7.65034 7.20563C7.65707 7.19974 7.6638 7.19302 7.67052 7.18713C7.67473 7.18377 7.67809 7.1804 7.68229 7.17704C7.75797 7.10977 7.83533 7.04419 7.91352 6.97944C7.92614 6.96935 7.93875 6.95842 7.95136 6.94833C8.03124 6.88443 8.11196 6.82305 8.1952 6.76251C8.2095 6.75242 8.2238 6.74149 8.23893 6.7314C8.32217 6.6717 8.4071 6.61368 8.4937 6.55818C8.50716 6.54978 8.52145 6.54053 8.5349 6.53212C8.62403 6.47578 8.714 6.42113 8.80649 6.369C8.81322 6.36563 8.81995 6.36143 8.82667 6.35806C9.90883 7.2998 10.9002 8.5022 11.7276 9.87528C9.73141 10.5774 7.62344 10.7809 5.71222 10.4563C5.7139 10.4487 5.71558 10.442 5.71726 10.4344L5.7181 10.4353ZM12.3103 5.53741C12.3447 5.53909 12.3792 5.54245 12.4137 5.54414C12.4835 5.54834 12.5524 5.55338 12.6214 5.55927C12.6617 5.56347 12.7021 5.56852 12.7424 5.57272C12.8047 5.57945 12.8669 5.58702 12.9291 5.59627C12.972 5.60215 13.014 5.60972 13.0561 5.61645C13.1158 5.62654 13.1746 5.63663 13.2335 5.64756C13.2764 5.65597 13.3193 5.66438 13.3621 5.67363C13.4202 5.68624 13.4782 5.69885 13.5354 5.71314C13.5782 5.72323 13.6203 5.73417 13.6623 5.7451C13.7195 5.76023 13.7767 5.77621 13.8339 5.79302C13.8751 5.80479 13.9163 5.81741 13.9575 5.83002C14.0155 5.84852 14.0735 5.86786 14.1315 5.88804C14.1702 5.90149 14.2089 5.9141 14.2475 5.9284C14.3098 5.95194 14.372 5.97633 14.4334 6.00155C14.4662 6.015 14.499 6.02678 14.5309 6.04107C14.6192 6.07891 14.7066 6.11843 14.7932 6.15963C14.8017 6.16383 14.8109 6.16804 14.8193 6.17224C14.9068 6.21428 14.9934 6.25885 15.0783 6.30509C15.1094 6.32191 15.1397 6.33957 15.1699 6.35723C15.228 6.39002 15.286 6.42281 15.344 6.45812C15.3793 6.47915 15.4129 6.50185 15.4474 6.52371C15.4995 6.5565 15.5508 6.58929 15.6021 6.62377C15.6383 6.64815 15.6736 6.67338 15.7089 6.69776C15.7577 6.73224 15.8065 6.76671 15.8544 6.80287C15.8897 6.82893 15.9242 6.85584 15.9595 6.88275C16.0066 6.91974 16.0537 6.95674 16.0999 6.99458C16.1335 7.02233 16.1672 7.05092 16.2008 7.0795C16.2185 7.09464 16.2361 7.11145 16.2538 7.12659C15.2633 8.0801 14.0617 8.88057 12.7357 9.47336C11.9252 8.09692 10.9565 6.8735 9.89285 5.87711C10.5655 5.64504 11.2701 5.52732 11.9966 5.52732C12.1017 5.52732 12.206 5.52984 12.3103 5.53489V5.53741ZM5.54489 11.5141C6.19402 11.6234 6.86248 11.678 7.54019 11.678C9.10247 11.678 10.716 11.3905 12.2581 10.8246C12.4616 11.2156 12.6533 11.6183 12.8316 12.032C12.7416 12.0623 12.6525 12.0926 12.5633 12.1254C10.3015 12.962 8.42728 14.4511 7.21227 16.3539C6.13432 15.1692 5.52639 13.6162 5.52639 12.0001C5.52639 11.8378 5.53312 11.6755 5.54489 11.5141ZM11.7107 18.4636C11.6796 18.4619 11.6485 18.4594 11.6174 18.4577C11.5535 18.4543 11.4904 18.4501 11.4265 18.4442C11.3895 18.4409 11.3534 18.4367 11.3164 18.4325C11.2592 18.4266 11.2012 18.4199 11.144 18.4123C11.1053 18.4072 11.0667 18.4014 11.028 18.3955C10.9733 18.3871 10.9187 18.3787 10.864 18.3686C10.8245 18.3618 10.785 18.3543 10.7463 18.3459C10.6925 18.3349 10.6395 18.324 10.5865 18.3122C10.547 18.3038 10.5083 18.2946 10.4697 18.2853C10.4167 18.2727 10.3637 18.2584 10.3116 18.245C10.2729 18.2349 10.2351 18.2239 10.1972 18.213C10.1443 18.1979 10.0913 18.1811 10.0383 18.1642C10.0013 18.1525 9.96517 18.1415 9.92817 18.1289C9.87352 18.1104 9.81886 18.0903 9.76505 18.0709C9.73141 18.0583 9.69694 18.0465 9.6633 18.0331C9.60445 18.0104 9.54559 17.986 9.48673 17.9608C9.45898 17.949 9.43123 17.9381 9.40349 17.9263C9.3194 17.8893 9.23616 17.8506 9.15376 17.8103C9.15208 17.8103 9.15039 17.8086 9.14871 17.8077C9.06379 17.7665 8.98055 17.7228 8.8973 17.6774C8.87292 17.6639 8.84854 17.6488 8.82331 17.6354C8.76613 17.6034 8.70896 17.5706 8.65262 17.537C8.62235 17.5185 8.59208 17.4991 8.56181 17.4798C8.5122 17.4487 8.46259 17.4176 8.41382 17.3848C8.38187 17.3638 8.34992 17.3411 8.31881 17.3192C8.27256 17.2873 8.22716 17.2553 8.18175 17.2217C8.14896 17.1981 8.11701 17.1737 8.08506 17.1494C8.06067 17.1309 8.03629 17.1115 8.0119 17.0922C9.09574 15.3062 10.8295 13.9079 12.9358 13.1285C13.0317 13.0932 13.1292 13.0604 13.2268 13.0276C13.8271 14.684 14.1836 16.4136 14.2644 18.0608C14.171 18.0961 14.0769 18.1289 13.9827 18.1592C13.9575 18.1676 13.9314 18.1743 13.9062 18.1819C13.8322 18.2046 13.7573 18.2273 13.6825 18.2475C13.6455 18.2576 13.6077 18.266 13.5698 18.2761C13.5059 18.2921 13.442 18.3072 13.3773 18.3215C13.3369 18.3307 13.2957 18.3383 13.2545 18.3467C13.1923 18.3593 13.1301 18.3703 13.067 18.3812C13.0258 18.3879 12.9838 18.3946 12.9417 18.4005C12.8778 18.4098 12.8139 18.4182 12.7492 18.4257C12.7088 18.43 12.6693 18.435 12.6289 18.4392C12.5583 18.4459 12.4877 18.451 12.417 18.4552C12.3826 18.4577 12.3489 18.4602 12.3145 18.4619C12.2094 18.4669 12.1034 18.4703 11.9975 18.4703C11.9016 18.4703 11.8066 18.4678 11.7116 18.4636H11.7107Z" fill="white"/>
</svg>
