<svg width="24" height="24" viewBox="0 0 24 24" fill="none" xmlns="http://www.w3.org/2000/svg">
<path d="M12.0272 0H11.9725C5.36022 0 -0.00012207 5.36034 -0.00012207 11.9727V12.0273C-0.00012207 18.6396 5.36022 24 11.9725 24H12.0272C18.6395 24 23.9999 18.6396 23.9999 12.0273V11.9727C23.9999 5.36034 18.6395 0 12.0272 0Z" fill="black"/>
<path d="M20.2727 18.5623C20.1003 18.5404 19.9338 18.4917 19.7783 18.4168C19.6109 18.3361 19.4638 18.2075 19.3074 18.0704C19.0308 17.8282 18.7171 17.5541 18.2412 17.5306C18.0234 17.5197 17.7989 17.5609 17.5938 17.6483L17.5711 17.6584L16.4359 18.453C16.2282 18.5984 16.0004 18.5984 15.7927 18.453L15.5959 18.3151L19.3452 15.8565C19.452 15.7867 19.4991 15.653 19.4587 15.5311C19.4184 15.41 19.3015 15.3318 19.1729 15.3394L4.97701 16.2861C4.87863 16.2929 4.79034 16.3475 4.74157 16.4333C4.6928 16.5191 4.68945 16.6225 4.73402 16.7116L5.20321 17.6441C5.18471 17.6592 5.1662 17.6744 5.14854 17.6895C5.1208 17.713 5.09305 17.7357 5.0653 17.7585C4.77605 17.9905 4.51877 18.1612 4.27829 18.2798C4.08826 18.3731 3.88898 18.4513 3.68634 18.5135C3.54171 18.5572 3.46014 18.7103 3.50386 18.8549C3.54759 18.9995 3.70062 19.0811 3.84525 19.0374C4.07648 18.9676 4.30351 18.8776 4.52044 18.7717C4.79792 18.6354 5.08801 18.4437 5.40921 18.1856C5.43864 18.1612 5.4689 18.1368 5.49917 18.1116C5.66817 17.9712 5.82879 17.8383 6.00032 17.8383C6.13233 17.8383 6.26601 17.8938 6.38709 17.9989L7.29689 18.7876C7.70385 19.1399 8.22516 19.1778 8.6582 18.886L9.71682 18.173C9.91609 18.0393 10.1347 18.0384 10.334 18.1705L11.459 18.9188C11.8635 19.1879 12.3411 19.1727 12.7354 18.8793L13.72 18.1461C13.9319 17.988 14.1674 17.983 14.3809 18.1335L15.4799 18.9037C15.675 19.0399 15.8944 19.1122 16.1156 19.1122C16.3367 19.1122 16.5562 19.0399 16.7512 18.9037L17.8351 18.1444C17.9587 18.0956 18.0865 18.0738 18.2152 18.0805C18.501 18.0948 18.7079 18.2756 18.9484 18.4858C19.1249 18.6405 19.3074 18.8002 19.542 18.9129C19.7505 19.013 19.9733 19.0794 20.2054 19.1088C20.3559 19.1273 20.4921 19.0214 20.5115 18.8717C20.5308 18.722 20.424 18.585 20.2744 18.5657L20.2727 18.5623ZM7.6534 18.3714L6.74361 17.5827C6.52163 17.3902 6.26434 17.2884 5.99696 17.2884C5.88512 17.2884 5.77748 17.3086 5.66818 17.3506L5.39406 16.8058L18.2 15.9523L15.1234 17.9703C15.1234 17.9703 15.1175 17.9745 15.1141 17.9771L14.6946 17.6828C14.2842 17.3952 13.7974 17.4036 13.3921 17.7046L12.4075 18.4378C12.2006 18.5917 11.9703 18.6001 11.7609 18.4605L10.6358 17.7122C10.445 17.5852 10.2348 17.5213 10.0254 17.5213C9.81603 17.5213 9.60161 17.5861 9.40906 17.7164L8.35046 18.4294C8.12175 18.5833 7.87454 18.5623 7.6534 18.3714Z" fill="white"/>
<path d="M5.8522 15.5964C5.90517 15.6561 5.98169 15.6897 6.06157 15.6897C6.11202 15.6897 6.16162 15.6763 6.20451 15.6502C7.04702 15.1491 8.42347 14.5319 10.1926 14.4386C11.5135 14.3688 12.8555 14.6084 14.0756 15.1306C14.1798 15.1751 14.2976 15.1575 14.3833 15.0843C14.4691 15.0112 14.5061 14.8977 14.4783 14.7875C13.9982 12.8637 13.1582 11.0903 11.981 9.51714C10.1136 7.02238 7.829 5.63837 6.2415 4.91693C6.11705 4.86059 5.96991 4.89507 5.88414 5.00185C5.79838 5.10864 5.79585 5.25999 5.87741 5.3693C6.47104 6.16221 7.47247 7.83379 7.51536 10.1251C7.5616 12.5963 6.48365 14.3898 5.83789 15.2399C5.75717 15.3467 5.76307 15.4963 5.8522 15.5964ZM8.06358 10.115C8.02827 8.24412 7.39008 6.76256 6.83345 5.81915C8.14936 6.52208 9.99752 7.77998 11.543 9.84507C12.5772 11.2266 13.3424 12.7729 13.8191 14.4402C12.6554 14.0165 11.3933 13.8264 10.1632 13.8912C9.02129 13.9517 7.90972 14.2216 6.85784 14.6942C7.44138 13.6936 8.10058 12.1136 8.06274 10.1141L8.06358 10.115Z" fill="white"/>
<path d="M10.4236 7.00156C11.7782 8.09717 12.9007 9.41476 13.7592 10.9157C14.4403 12.1071 14.9406 13.3936 15.2467 14.7381C15.2643 14.8163 15.3156 14.8827 15.3871 14.9206C15.4586 14.9575 15.5426 14.9618 15.6166 14.9315C15.81 14.8524 16.1203 14.7658 16.4953 14.802C16.9065 14.8415 17.2142 15.0097 17.4 15.1442C17.4471 15.1778 17.5026 15.1955 17.5598 15.1955C17.617 15.1955 17.6725 15.1778 17.7187 15.1442C17.8146 15.0761 17.8558 14.9542 17.8213 14.8415C17.3269 13.2162 16.5491 11.7186 15.5082 10.3901C14.241 8.7732 12.5863 7.43795 10.7221 6.52985C10.5968 6.46847 10.4455 6.51135 10.3715 6.62907L10.3631 6.64168C10.2883 6.7594 10.3135 6.91411 10.4219 7.00156H10.4236ZM12.5266 8.25777C13.4927 8.96827 14.3503 9.79818 15.0794 10.7281C15.9412 11.8288 16.6181 13.0547 17.0915 14.374C16.9157 14.3143 16.7333 14.2748 16.5491 14.2563C16.4743 14.2487 16.3969 14.2454 16.3212 14.2454C16.1161 14.2454 15.9109 14.2714 15.7116 14.3236C15.3904 13.032 14.8935 11.7943 14.236 10.6432C13.7491 9.79145 13.1748 8.99013 12.5274 8.25693L12.5266 8.25777Z" fill="white"/>
</svg>
