<svg width="24" height="24" viewBox="0 0 24 24" fill="none" xmlns="http://www.w3.org/2000/svg">
<path d="M12.0273 -1.52588e-05H11.9727C5.36035 -1.52588e-05 0 5.36033 0 11.9727V12.0273C0 18.6396 5.36035 24 11.9727 24H12.0273C18.6396 24 24 18.6396 24 12.0273V11.9727C24 5.36033 18.6396 -1.52588e-05 12.0273 -1.52588e-05Z" fill="#007EBB"/>
<path d="M5.72338 7.97794C5.40723 7.68449 5.25 7.32124 5.25 6.88905C5.25 6.45686 5.40807 6.07765 5.72338 5.78336C6.03953 5.4899 6.4465 5.34276 6.94512 5.34276C7.44373 5.34276 7.83473 5.4899 8.15004 5.78336C8.4662 6.07681 8.62342 6.44593 8.62342 6.88905C8.62342 7.33218 8.46535 7.68449 8.15004 7.97794C7.83389 8.27139 7.4328 8.41854 6.94512 8.41854C6.45743 8.41854 6.03953 8.27139 5.72338 7.97794ZM8.35772 9.66129V18.6582H5.51485V9.66129H8.35772Z" fill="#FEFFFC"/>
<path d="M17.8228 10.55C18.4425 11.2227 18.752 12.1459 18.752 13.3214V18.4993H16.0521V13.6863C16.0521 13.0935 15.8982 12.6328 15.5913 12.3048C15.2844 11.9769 14.8707 11.8121 14.3527 11.8121C13.8348 11.8121 13.4211 11.9761 13.1142 12.3048C12.8073 12.6328 12.6534 13.0935 12.6534 13.6863V18.4993H9.9375V9.63602H12.6534V10.8115C12.9283 10.4197 13.2992 10.1102 13.765 9.88238C14.2308 9.65451 14.7546 9.541 15.3373 9.541C16.3749 9.541 17.204 9.87733 17.8228 10.55Z" fill="#FEFFFC"/>
</svg>
