<svg width="24" height="24" viewBox="0 0 24 24" fill="none" xmlns="http://www.w3.org/2000/svg">
<path d="M12.0273 -1.52588e-05H11.9726C5.36028 -1.52588e-05 -6.10352e-05 5.36033 -6.10352e-05 11.9727V12.0273C-6.10352e-05 18.6396 5.36028 24 11.9726 24H12.0273C18.6396 24 23.9999 18.6396 23.9999 12.0273V11.9727C23.9999 5.36033 18.6396 -1.52588e-05 12.0273 -1.52588e-05Z" fill="#FF0000"/>
<path fill-rule="evenodd" clip-rule="evenodd" d="M10.9047 15.2813C10.8904 15.3309 10.877 15.3729 10.866 15.415C10.2312 17.9022 10.1606 18.4546 9.50809 19.6099C9.19698 20.159 8.84635 20.6794 8.45873 21.1772C8.415 21.2335 8.3738 21.3059 8.28635 21.2882C8.1905 21.268 8.18293 21.1814 8.17284 21.1049C8.06858 20.349 8.01056 19.5914 8.03578 18.8279C8.06858 17.834 8.19134 17.4927 9.47278 12.1046C9.49127 12.0222 9.47025 11.9541 9.44334 11.8801C9.13644 11.0527 9.0759 10.2127 9.34412 9.36178C9.9243 7.52372 12.0079 7.3833 12.372 8.89932C12.5965 9.83686 12.0028 11.0645 11.5471 12.879C11.1696 14.3757 12.932 15.4402 14.4379 14.3471C15.827 13.3398 16.3659 10.9249 16.2634 9.21296C16.0616 5.8 12.319 5.06259 9.94532 6.16156C7.22354 7.42029 6.60468 10.7937 7.83399 12.3358C7.98954 12.5317 8.28299 12.652 8.2317 12.8504C8.15266 13.159 8.08287 13.4701 7.9971 13.777C7.9332 14.0057 7.56912 14.089 7.33789 13.9948C6.88468 13.8115 6.50714 13.5231 6.20108 13.143C5.1576 11.8507 4.85911 9.29452 6.23892 7.1302C7.76756 4.73298 10.6113 3.76266 13.2078 4.05695C16.3088 4.40926 18.2688 6.52817 18.6354 8.93212C18.8027 10.0269 18.6825 12.7268 17.1454 14.6355C15.3771 16.8284 12.5107 16.9739 11.1881 15.6277C11.0863 15.5243 11.0048 15.404 10.9047 15.2804V15.2813Z" fill="white"/>
</svg>
