<svg width="24" height="24" viewBox="0 0 24 24" fill="none" xmlns="http://www.w3.org/2000/svg">
<path d="M11.9725 -1.52588e-05H12.0272C18.6353 -1.52588e-05 23.9999 5.36452 23.9999 11.9727V12.0273C23.9999 18.6354 18.6353 24 12.0272 24H11.9725C5.36441 24 -0.00012207 18.6354 -0.00012207 12.0273V11.9727C-0.00012207 5.36452 5.36441 -1.52588e-05 11.9725 -1.52588e-05Z" fill="#FF4500"/>
<path d="M19.4333 11.6995C19.234 10.7956 18.4083 10.2095 17.5893 10.3903C17.3102 10.4517 17.0697 10.5955 16.8797 10.7922C15.7773 9.99175 14.2722 9.46287 12.5914 9.36281L13.3961 6.01292L15.7832 6.58384C15.8227 7.23633 16.3634 7.75344 17.026 7.75344C17.6885 7.75344 18.2721 7.19513 18.2721 6.50733C18.2721 5.81952 17.7138 5.26121 17.026 5.26121C16.5273 5.26121 16.0977 5.55466 15.8992 5.97844L13.3095 5.35874C13.106 5.30998 12.9017 5.43526 12.8521 5.63874L11.9616 9.34599C10.0865 9.35608 8.39478 9.89842 7.18062 10.767C7.12092 10.7115 7.05702 10.6602 6.98723 10.6148C6.28009 10.1633 5.30303 10.4298 4.80525 11.2093C4.30748 11.9887 4.47649 12.9877 5.18363 13.4392C5.22567 13.4661 5.26856 13.4896 5.31228 13.5115C5.28369 13.6855 5.26856 13.863 5.26856 14.0421C5.26856 16.636 8.288 18.739 12.0129 18.739C15.7378 18.739 18.7572 16.636 18.7572 14.0421C18.7572 13.8604 18.7413 13.6813 18.7118 13.5056C19.2861 13.1718 19.5989 12.4445 19.435 11.6995H19.4333ZM8.55455 12.954C8.55455 12.3629 9.03382 11.8836 9.62493 11.8836C10.216 11.8836 10.6953 12.3629 10.6953 12.954C10.6953 13.5451 10.216 14.0244 9.62493 14.0244C9.03382 14.0244 8.55455 13.5451 8.55455 12.954ZM14.4993 16.3333C14.1705 16.6318 13.2624 17.328 11.933 17.3407C11.9213 17.3407 11.9086 17.3407 11.8969 17.3407C10.5498 17.3407 9.62997 16.6377 9.29448 16.3333C9.18685 16.2358 9.17929 16.0693 9.27682 15.9625C9.37436 15.8549 9.54085 15.8473 9.64764 15.9449C9.93941 16.2106 10.7458 16.8269 11.928 16.816C13.0774 16.805 13.8619 16.2039 14.1461 15.9457C14.2537 15.8482 14.4194 15.8557 14.5169 15.9634C14.6145 16.071 14.6069 16.2366 14.4993 16.3342V16.3333ZM14.3698 14.0244C13.7787 14.0244 13.2994 13.5451 13.2994 12.954C13.2994 12.3629 13.7787 11.8836 14.3698 11.8836C14.9609 11.8836 15.4402 12.3629 15.4402 12.954C15.4402 13.5451 14.9609 14.0244 14.3698 14.0244Z" fill="white"/>
</svg>
