<svg width="24" height="24" viewBox="0 0 24 24" fill="none" xmlns="http://www.w3.org/2000/svg">
<path d="M12 24C18.6274 24 24 18.6274 24 12C24 5.37257 18.6274 -1.52588e-05 12 -1.52588e-05C5.37258 -1.52588e-05 0 5.37257 0 12C0 18.6274 5.37258 24 12 24Z" fill="url(#paint0_linear_7033_21918)"/>
<path d="M15.8816 11.2922C18.0332 12.1977 19.0918 14.3653 18.3897 16.6086C17.9113 18.1397 16.5483 19.3765 15.0878 19.9357C13.2465 20.6428 10.7737 20.5974 8.95751 19.844C5.27394 18.3179 4.41464 14.0803 4.78039 10.5548C5.03515 8.08701 6.06262 5.68147 8.33111 4.44464C10.0405 3.50882 12.2283 3.37597 14.0999 3.76779C16.043 4.17474 17.6204 5.32412 18.5764 7.06459C18.8715 7.59851 19.1103 8.18875 19.2885 8.84542C19.2936 8.87065 19.2835 8.89671 19.2582 8.90175L17.9054 9.25826C17.8802 9.2633 17.8541 9.24817 17.849 9.22799C17.6456 8.45445 17.3252 7.76751 16.8821 7.16801C15.4981 5.28545 12.9598 4.7818 10.772 5.17362C8.19238 5.6369 6.76805 7.448 6.35101 9.93511C6.01048 11.9547 6.11727 14.2947 7.04804 16.1571C7.83167 17.7243 9.25096 18.6038 10.9603 18.8485C11.881 18.9755 12.7815 18.9603 13.6618 18.7972C14.9239 18.5635 16.2767 17.7285 16.8258 16.5329C17.1823 15.7594 17.2176 14.7782 16.8258 14.0097C16.6021 13.5724 16.2658 13.221 15.8236 12.957C15.8034 12.9418 15.7723 12.9519 15.7622 12.9721C15.7571 12.9771 15.7571 12.9822 15.7571 12.9872C15.7058 13.3639 15.6201 13.7347 15.4923 14.0963C15.309 14.61 15.045 15.0531 14.6935 15.4138C13.513 16.6296 11.4581 16.7364 10.0691 15.8611C8.96005 15.159 8.543 13.7246 9.07187 12.5441C9.62092 11.3233 10.9645 10.7944 12.2409 10.733C12.9631 10.6977 13.6299 10.728 14.2454 10.8146C14.2706 10.8196 14.2908 10.7995 14.2966 10.7742V10.7591C14.2403 10.4791 14.1747 10.2504 14.0932 10.0722C13.666 9.1313 12.7042 8.88158 11.7431 9.00349C11.1276 9.08001 10.6442 9.37008 10.2826 9.86868C10.2675 9.88886 10.2423 9.89391 10.2212 9.87877L9.07187 9.09514C9.05169 9.08001 9.04666 9.05478 9.06179 9.02872C9.67726 8.16353 10.5113 7.65988 11.5699 7.52283C12.4452 7.40596 13.4264 7.54301 14.1899 8.0063C15.3342 8.70837 15.7412 9.97042 15.8429 11.2468C15.853 11.272 15.8631 11.2871 15.8782 11.2922H15.8816ZM10.3919 13.2866C10.1632 14.0551 10.6921 14.6604 11.4093 14.8429C12.4166 15.0977 13.5357 14.8732 14.0141 13.8407C14.2025 13.4337 14.3143 12.9553 14.3496 12.4113C14.3496 12.3861 14.3345 12.3659 14.3143 12.3659C13.5668 12.2187 12.7983 12.1876 12.0147 12.2641C11.379 12.3306 10.5904 12.6206 10.3919 13.2866Z" fill="white"/>
<defs>
<linearGradient id="paint0_linear_7033_21918" x1="0" y1="12" x2="24" y2="12" gradientUnits="userSpaceOnUse">
<stop stop-color="#FAAD4F"/>
<stop offset="0.35" stop-color="#DD2A7B"/>
<stop offset="0.62" stop-color="#9537B0"/>
<stop offset="1" stop-color="#515BD4"/>
</linearGradient>
</defs>
</svg>
