<svg width="24" height="24" viewBox="0 0 24 24" fill="none" xmlns="http://www.w3.org/2000/svg">
<path d="M12.0273 0H11.9727C5.36035 0 0 5.36034 0 11.9727V12.0273C0 18.6396 5.36035 24 11.9727 24H12.0273C18.6396 24 24 18.6396 24 12.0273V11.9727C24 5.36034 18.6396 0 12.0273 0Z" fill="black"/>
<path d="M18.0823 9.53155V11.7976C17.6862 11.7589 17.1717 11.669 16.6024 11.4604C15.8591 11.188 15.3058 10.8155 14.9434 10.5271V15.1071L14.9342 15.0928C14.9401 15.1837 14.9434 15.2761 14.9434 15.3695C14.9434 17.6439 13.0928 19.4955 10.8175 19.4955C8.54215 19.4955 6.69147 17.6439 6.69147 15.3695C6.69147 13.095 8.54215 11.2427 10.8175 11.2427C11.0403 11.2427 11.2589 11.2603 11.4725 11.2948V13.528C11.2673 13.4549 11.047 13.4154 10.8175 13.4154C9.74034 13.4154 8.86335 14.2915 8.86335 15.3695C8.86335 16.4474 9.74034 17.3236 10.8175 17.3236C11.8946 17.3236 12.7716 16.4466 12.7716 15.3695C12.7716 15.3291 12.7707 15.2888 12.7682 15.2484V6.34814H15.0326C15.041 6.53986 15.0485 6.73325 15.0569 6.92496C15.0721 7.30249 15.2066 7.66489 15.4412 7.96171C15.7162 8.31066 16.1223 8.71594 16.6924 9.03966C17.2263 9.34236 17.7274 9.47185 18.0823 9.53323V9.53155Z" fill="#FF004F"/>
<path d="M17.3049 7.69192V9.95798C16.9089 9.9193 16.3943 9.82933 15.8251 9.6208C15.0818 9.34837 14.5285 8.97588 14.1661 8.68747V13.2675L14.1568 13.2532C14.1627 13.344 14.1661 13.4365 14.1661 13.5299C14.1661 15.8043 12.3154 17.6558 10.0401 17.6558C7.7648 17.6558 5.91412 15.8043 5.91412 13.5299C5.91412 11.2554 7.7648 9.40303 10.0401 9.40303C10.2629 9.40303 10.4815 9.42068 10.6951 9.45516V11.6884C10.49 11.6153 10.2697 11.5757 10.0401 11.5757C8.963 11.5757 8.086 12.4519 8.086 13.5299C8.086 14.6078 8.963 15.484 10.0401 15.484C11.1172 15.484 11.9942 14.607 11.9942 13.5299C11.9942 13.4895 11.9934 13.4491 11.9908 13.4088V4.50684H14.2552C14.2636 4.69855 14.2712 4.89194 14.2796 5.08365C14.2947 5.46119 14.4293 5.82359 14.6639 6.1204C14.9388 6.46935 15.3449 6.87463 15.915 7.19835C16.449 7.50021 16.9501 7.63054 17.3049 7.69192Z" fill="#00F7EF"/>
<path d="M17.801 8.68243V10.9485C17.405 10.9098 16.8904 10.8198 16.3212 10.6113C15.5779 10.3389 15.0246 9.96639 14.6622 9.67798V14.258L14.6529 14.2437C14.6588 14.3345 14.6622 14.427 14.6622 14.5204C14.6622 16.7948 12.8115 18.6463 10.5362 18.6463C8.2609 18.6463 6.41022 16.7948 6.41022 14.5204C6.41022 12.2459 8.2609 10.3935 10.5362 10.3935C10.759 10.3935 10.9776 10.4112 11.1912 10.4457V12.6789C10.9861 12.6058 10.7657 12.5663 10.5362 12.5663C9.45909 12.5663 8.5821 13.4424 8.5821 14.5204C8.5821 15.5983 9.45909 16.4745 10.5362 16.4745C11.6133 16.4745 12.4903 15.5975 12.4903 14.5204C12.4903 14.48 12.4895 14.4396 12.4869 14.3993V5.49902H14.7513C14.7597 5.69073 14.7673 5.88413 14.7757 6.07584C14.7908 6.45337 14.9254 6.81577 15.16 7.11259C15.4349 7.46153 15.841 7.86682 16.4111 8.19054C16.9451 8.4924 17.4462 8.62273 17.801 8.68411V8.68243Z" fill="white"/>
</svg>
