<svg width="24" height="24" viewBox="0 0 24 24" fill="none" xmlns="http://www.w3.org/2000/svg">
<path d="M12.0273 0H11.9726C5.36028 0 -6.10352e-05 5.36034 -6.10352e-05 11.9727V12.0273C-6.10352e-05 18.6396 5.36028 24 11.9726 24H12.0273C18.6396 24 23.9999 18.6396 23.9999 12.0273V11.9727C23.9999 5.36034 18.6396 0 12.0273 0Z" fill="#00E510"/>
<path d="M14.3409 15.51C11.2693 15.51 8.77037 13.0102 8.76953 9.93861C8.77037 9.16 9.40437 8.52685 10.1813 8.52685C10.2612 8.52685 10.3402 8.53357 10.4159 8.54703C10.5824 8.57478 10.7405 8.63111 10.8859 8.71604C10.9069 8.72865 10.9212 8.74883 10.9246 8.77237L11.2492 10.8181C11.2534 10.8425 11.2458 10.8661 11.2298 10.8837C11.0507 11.0821 10.822 11.2251 10.5672 11.2966L10.4445 11.331L10.4907 11.4496C10.9095 12.5158 11.7621 13.3675 12.8291 13.788L12.9477 13.835L12.9821 13.7123C13.0536 13.4575 13.1965 13.2288 13.395 13.0497C13.4093 13.0363 13.4286 13.0295 13.4479 13.0295C13.4521 13.0295 13.4564 13.0295 13.4614 13.0304L15.5072 13.3549C15.5315 13.3591 15.5517 13.3726 15.5643 13.3936C15.6484 13.5391 15.7048 13.698 15.7333 13.8645C15.7468 13.9385 15.7527 14.0167 15.7527 14.0982C15.7527 14.876 15.1195 15.5092 14.3409 15.51Z" fill="#FDFDFD"/>
<path d="M19.7878 11.3259C19.6222 9.4542 18.7645 7.71787 17.373 6.43728C15.973 5.14912 14.1568 4.43945 12.2573 4.43945C8.08844 4.43945 4.69651 7.83139 4.69651 12.0003C4.69651 13.3994 5.08245 14.7624 5.81313 15.9497L4.18359 19.5568L9.40099 19.0011C10.3082 19.3727 11.2685 19.5611 12.2565 19.5611C12.5163 19.5611 12.7828 19.5476 13.0502 19.5198C13.2857 19.4946 13.5236 19.4576 13.7574 19.4105C17.2485 18.7051 19.7971 15.6066 19.8173 12.0406V12.0003C19.8173 11.7732 19.8072 11.5462 19.787 11.3259H19.7878ZM9.60195 17.4178L6.71536 17.7255L7.57722 15.816L7.40484 15.5847C7.39223 15.5679 7.37962 15.5511 7.36532 15.5318C6.61698 14.4984 6.22178 13.2775 6.22178 12.0011C6.22178 8.67306 8.92927 5.96557 12.2573 5.96557C15.3751 5.96557 18.0179 8.39811 18.2726 11.5033C18.2861 11.6698 18.2937 11.8371 18.2937 12.0019C18.2937 12.049 18.2928 12.0953 18.292 12.1449C18.2281 14.9289 16.2832 17.2933 13.5623 17.8954C13.3546 17.9416 13.1419 17.9769 12.93 17.9996C12.7097 18.0248 12.4835 18.0375 12.259 18.0375C11.4594 18.0375 10.6824 17.8827 9.94837 17.5767C9.86681 17.5439 9.78693 17.5086 9.71209 17.4724L9.60279 17.4194L9.60195 17.4178Z" fill="#FDFDFD"/>
</svg>
