<svg width="24" height="24" viewBox="0 0 24 24" fill="none" xmlns="http://www.w3.org/2000/svg">
<rect x="-6.10352e-05" y="-1.52588e-05" width="24" height="24" rx="12" fill="#5F01D1"/>
<path d="M4.19315 9.19779C3.98302 8.70316 4.34602 8.15453 4.88344 8.15453H6.45575C6.76472 8.15453 7.04208 8.34401 7.15442 8.63183L8.14269 11.1638C8.39043 11.7986 9.28781 11.8008 9.53867 11.1673L10.5441 8.62839C10.6574 8.34238 10.9338 8.15453 11.2414 8.15453H12.744C13.2789 8.15453 13.6419 8.69857 13.4365 9.19252L9.34207 19.038C9.22574 19.3177 8.95253 19.5 8.64957 19.5H7.14074C6.60142 19.5 6.23839 18.9478 6.45219 18.4527L7.16804 16.7949C7.24937 16.6066 7.25 16.3931 7.16978 16.2043L4.19315 9.19779ZM14.3349 12.6954C15.4122 12.6954 16.2849 13.5682 16.2849 14.6454C16.2849 15.7227 15.4122 16.5954 14.3349 16.5954C13.2576 16.5954 12.3849 15.7227 12.3849 14.6454C12.3849 13.5682 13.2576 12.6954 14.3349 12.6954ZM17.1174 11.5229C17.0014 11.8034 16.7278 11.9863 16.4243 11.9863H14.5448C14.01 11.9863 13.6471 11.4426 13.8522 10.9487L16.3383 4.96233C16.4546 4.68242 16.7279 4.49998 17.031 4.49998H18.8996C19.4339 4.49998 19.7968 5.0428 19.5926 5.53656L17.1174 11.5229Z" fill="white"/>
</svg>
