<svg width="24" height="24" viewBox="0 0 24 24" fill="none" xmlns="http://www.w3.org/2000/svg">
<rect y="-1.52588e-05" width="24" height="24" rx="12" fill="#0061FF"/>
<path d="M11.837 8.06867L8.40965 10.2551C7.94747 10.5499 7.94747 11.2248 8.40966 11.5197L10.8458 13.0738C11.308 13.3686 11.308 14.0435 10.8458 14.3384L7.82294 16.2667C7.57637 16.424 7.26085 16.4236 7.01467 16.2657L3.98695 14.3238C3.52616 14.0283 3.52698 13.3546 3.9885 13.0602L6.42463 11.5061C6.88749 11.2109 6.88666 10.5347 6.42308 10.2406L3.99541 8.70024C3.53183 8.40611 3.531 7.72993 3.99386 7.43466L7.01513 5.5073C7.26114 5.35036 7.57584 5.35036 7.82185 5.5073L11.837 8.06867ZM8.3868 18.0636C7.92462 17.7688 7.92462 17.0938 8.3868 16.799L11.4108 14.8699C11.6568 14.713 11.9715 14.713 12.2175 14.8699L15.2414 16.799C15.7036 17.0938 15.7036 17.7688 15.2414 18.0636L12.2175 19.9927C11.9715 20.1496 11.6568 20.1496 11.4108 19.9927L8.3868 18.0636ZM12.8199 14.3245C12.3604 14.0283 12.362 13.3559 12.8229 13.0619L15.2616 11.5061C15.7245 11.2109 15.7236 10.5347 15.2601 10.2406L11.837 8.06867L15.8288 5.50892C16.075 5.35106 16.3905 5.35069 16.637 5.50797L19.6599 7.43638C20.1221 7.73122 20.1221 8.40613 19.6599 8.70097L17.2238 10.2551C16.7616 10.5499 16.7616 11.2248 17.2238 11.5197L19.6599 13.0738C20.1221 13.3686 20.1221 14.0435 19.6599 14.3384L16.6381 16.2661C16.391 16.4237 16.0747 16.4229 15.8284 16.2641L12.8199 14.3245Z" fill="white"/>
</svg>
