<svg width="24" height="24" viewBox="0 0 24 24" fill="none" xmlns="http://www.w3.org/2000/svg">
<path d="M12.0273 -1.52588e-05H11.9726C5.36029 -1.52588e-05 -6.10352e-05 5.36033 -6.10352e-05 11.9727V12.0273C-6.10352e-05 18.6396 5.36029 24 11.9726 24H12.0273C18.6396 24 23.9999 18.6396 23.9999 12.0273V11.9727C23.9999 5.36033 18.6396 -1.52588e-05 12.0273 -1.52588e-05Z" fill="url(#paint0_linear_7033_21909)"/>
<path d="M19.1455 11.9995V12.0407C19.1261 15.4756 16.6692 18.3453 13.4194 19.0029C13.1991 19.0466 12.9763 19.0811 12.7492 19.1055C12.5037 19.1307 12.2531 19.145 12.0009 19.145C11.0087 19.145 10.0636 18.9423 9.20427 18.5749L5.88885 18.928C5.32297 18.9886 4.90508 18.4109 5.13967 17.893L6.03096 15.9195C5.2885 14.7936 4.85547 13.4458 4.85547 11.9995C4.85547 8.06107 8.06158 4.85496 12.0009 4.85496C15.7258 4.85496 18.794 7.72053 19.1169 11.363C19.1362 11.5716 19.1455 11.786 19.1455 11.9995Z" fill="white"/>
<path d="M15.435 9.9132C15.7554 9.65086 16.1951 10.0435 15.9698 10.3908L14.4697 12.7048L13.676 13.929C13.507 14.1897 13.1522 14.2519 12.9041 14.0644L11.5882 13.0663L10.7768 12.4517C10.7112 12.4021 10.6196 12.4038 10.5557 12.4559L8.56456 14.0804C8.2442 14.3419 7.80528 13.9492 8.03063 13.6019L9.43566 11.436L10.2294 10.2117C10.3984 9.95104 10.7533 9.88881 11.0013 10.0763L12.2785 11.0441L13.0891 11.6579C13.1555 11.7075 13.2472 11.7059 13.3111 11.6537L15.435 9.91236V9.9132Z" fill="url(#paint1_linear_7033_21909)"/>
<defs>
<linearGradient id="paint0_linear_7033_21909" x1="3.50623" y1="20.4937" x2="20.4928" y2="3.50711" gradientUnits="userSpaceOnUse">
<stop stop-color="#0498FA"/>
<stop offset="0.34" stop-color="#5C5EFE"/>
<stop offset="0.73" stop-color="#F44E90"/>
<stop offset="1" stop-color="#FA8679"/>
</linearGradient>
<linearGradient id="paint1_linear_7033_21909" x1="9.02197" y1="15.0003" x2="15.0028" y2="9.01939" gradientUnits="userSpaceOnUse">
<stop stop-color="#0498FA"/>
<stop offset="0.34" stop-color="#5C5EFE"/>
<stop offset="0.73" stop-color="#F44E90"/>
<stop offset="1" stop-color="#FA8679"/>
</linearGradient>
</defs>
</svg>
