<svg width="24" height="24" viewBox="0 0 24 24" fill="none" xmlns="http://www.w3.org/2000/svg">
<path d="M12.0272 0H11.9725C5.36022 0 -0.00012207 5.36034 -0.00012207 11.9727V12.0273C-0.00012207 18.6396 5.36022 24 11.9725 24H12.0272C18.6395 24 23.9999 18.6396 23.9999 12.0273V11.9727C23.9999 5.36034 18.6395 0 12.0272 0Z" fill="#00B0F2"/>
<path d="M4.54481 11.5908C4.57844 11.574 4.61209 11.558 4.64488 11.5429C5.21497 11.2789 5.79263 11.0317 6.36944 10.7845C6.40055 10.7845 6.45267 10.7483 6.4821 10.7365C6.52666 10.7172 6.57123 10.6987 6.6158 10.6794L6.87226 10.5692C7.04379 10.4961 7.21447 10.4229 7.386 10.3498C7.72822 10.2035 8.07044 10.0572 8.41266 9.91001C9.0971 9.61739 9.78239 9.32394 10.4668 9.03133C11.1513 8.73872 11.8366 8.44527 12.521 8.15266C13.2054 7.86005 13.8907 7.5666 14.5751 7.27398C15.2596 6.98137 15.9449 6.68792 16.6293 6.39531C16.7815 6.32973 16.9463 6.23219 17.1094 6.2036C17.2465 6.17922 17.3802 6.13213 17.5181 6.10606C17.7796 6.05645 18.068 6.03627 18.3186 6.14474C18.4052 6.18258 18.485 6.23555 18.5515 6.30198C18.8693 6.61645 18.8247 7.13272 18.7575 7.575C18.2891 10.6575 17.8208 13.7409 17.3516 16.8234C17.2877 17.2463 17.2002 17.7104 16.8664 17.9778C16.5839 18.204 16.182 18.2292 15.833 18.1334C15.4841 18.0367 15.1764 17.834 14.8745 17.6348C13.6225 16.8057 12.3696 15.9766 11.1176 15.1476C10.82 14.9508 10.4887 14.6935 10.4921 14.3362C10.4937 14.1209 10.6224 13.9292 10.7536 13.7585C11.8416 12.3392 13.4114 11.3638 14.5794 10.0101C14.7442 9.8192 14.8737 9.47445 14.6475 9.3643C14.5129 9.29872 14.3582 9.38785 14.2354 9.47277C12.6917 10.5448 11.1488 11.6177 9.60498 12.6898C9.10132 13.0396 8.57327 13.3995 7.96619 13.4852C7.42301 13.5626 6.87647 13.4112 6.35094 13.2565C5.91035 13.127 5.47057 12.9942 5.0325 12.8571C4.79959 12.7848 4.5591 12.7066 4.37917 12.5427C4.19923 12.3787 4.09582 12.1029 4.20429 11.8843C4.27239 11.7472 4.40441 11.6606 4.54315 11.59L4.54481 11.5908Z" fill="#FEFFFC"/>
</svg>
