<svg width="24" height="24" viewBox="0 0 24 24" fill="none" xmlns="http://www.w3.org/2000/svg">
<path d="M23.9999 12C23.9999 5.37258 18.6274 0 11.9999 0C5.37253 0 -6.10352e-05 5.37258 -6.10352e-05 12C-6.10352e-05 18.6274 5.37253 24 11.9999 24C18.6274 24 23.9999 18.6274 23.9999 12Z" fill="#FF0209"/>
<path d="M17.094 17.3152C16.7365 17.3539 16.3705 17.3607 16.0197 17.3598C13.2834 17.3573 10.5471 17.3548 7.81171 17.3531C6.95077 17.3531 6.0131 17.3253 5.34779 16.778C4.59816 16.1599 4.44217 15.0882 4.38145 14.1185C4.29713 12.7895 4.29038 11.4564 4.35953 10.1266C4.39747 9.39639 4.46409 8.64844 4.77861 7.98735C5.0046 7.51261 5.38152 7.08594 5.86385 6.86164C6.4246 6.60108 7.01148 6.64746 7.61524 6.64662C9.06053 6.64493 10.5058 6.64409 11.9511 6.6424C13.4538 6.64071 14.9572 6.63987 16.4599 6.63818C17.1699 6.63818 17.9322 6.65252 18.5115 7.06317C19.2594 7.59272 19.4626 8.60038 19.5562 9.51191C19.7291 11.1908 19.7316 12.8874 19.563 14.5662C19.493 15.2585 19.3766 15.9904 18.9204 16.5158C18.4684 17.0369 17.7981 17.2376 17.0948 17.3143L17.094 17.3152Z" fill="white"/>
<path d="M14.4489 11.9998L10.371 9.6455V14.3541L14.4489 11.9998Z" fill="#FF0209"/>
</svg>
