<svg width="24" height="24" viewBox="0 0 24 24" fill="none" xmlns="http://www.w3.org/2000/svg">
<path d="M24 12.0004C24 18.0612 19.5074 23.0717 13.6712 23.8848C13.1255 23.9605 12.5671 24 12.0004 24C11.3462 24 10.7038 23.9479 10.0783 23.847C4.36394 22.9271 0 17.9729 0 12.0004C0 5.37294 5.37294 0 11.9996 0C18.6262 0 24 5.37294 24 12.0004Z" fill="#1877F2"/>
<path d="M13.673 9.63515V12.2493H16.9069L16.3948 15.7707H13.673V23.884C13.1273 23.9596 12.569 23.9992 12.0023 23.9992C11.3481 23.9992 10.7057 23.947 10.0801 23.8461V15.7707H7.09766V12.2493H10.0801V9.05076C10.0801 7.06639 11.6886 5.45703 13.6738 5.45703V5.45871C13.6797 5.45871 13.6848 5.45703 13.6907 5.45703H16.9077V8.50254H14.8056C14.1809 8.50254 13.6738 9.00956 13.6738 9.6343L13.673 9.63515Z" fill="white"/>
</svg>
