<svg width="40" height="40" viewBox="0 0 40 40" fill="none" xmlns="http://www.w3.org/2000/svg">
<path d="M8.12095 10.5991C8.02391 10.7694 7.92782 10.9354 7.83362 11.0985C8.19716 10.6077 8.54934 10.2648 8.96448 10.0282C9.41465 9.77111 9.93818 9.63899 10.6288 9.57555H14.9213C15.6488 9.59034 16.4616 9.59988 17.3742 9.59988C18.2869 9.59988 19.0987 9.59034 19.8253 9.57555H24.1206C24.8297 9.6409 25.3641 9.77874 25.8218 10.0497C26.2876 10.3263 26.6772 10.7418 27.0956 11.3537L28.9881 14.6553C29.3877 15.3875 29.8487 16.2222 30.3954 17.1742C30.9398 18.1272 31.4274 18.9462 31.8562 19.6616L33.7487 22.9642C34.0749 23.6544 34.2358 24.2124 34.2316 24.7705C34.2287 25.2365 34.1104 25.703 33.8775 26.2482C33.9698 26.085 34.0649 25.9186 34.1634 25.7488C34.5506 25.0695 34.9104 24.4605 35.2384 23.9062L37.582 19.8166C37.8566 19.2085 37.9962 18.7005 38 18.1959C38.0038 17.6359 37.8438 17.0798 37.5172 16.3877L35.6247 13.0861C35.1967 12.3716 34.7073 11.5517 34.1629 10.5996C33.6176 9.64662 33.157 8.81096 32.7556 8.07881L30.8641 4.77816C30.4442 4.16524 30.056 3.75171 29.5893 3.47506C29.1306 3.20319 28.5981 3.06439 27.889 3H23.5937C22.8662 3.01383 22.0543 3.02528 21.1426 3.02528C20.2291 3.02528 19.4172 3.01431 18.6897 3H14.3963C13.7066 3.06344 13.1826 3.19556 12.7329 3.45265C12.2837 3.70878 11.9083 4.08988 11.5097 4.64794L9.15856 8.7523C8.84945 9.31131 8.50674 9.92613 8.12095 10.5991Z" fill="url(#paint0_linear_9007_25523)"/>
<path d="M8.8882 10.0745C8.91423 10.0578 8.93979 10.044 8.96583 10.0278C9.41599 9.7707 9.93953 9.63858 10.6302 9.57514H13.7364C12.1894 8.74426 11.1902 7.15594 11.1049 5.39209H11.0855L9.1599 8.75141C8.99612 9.04857 8.8224 9.36146 8.63684 9.69153C8.71163 9.8246 8.79589 9.95338 8.8882 10.0745Z" fill="url(#paint1_linear_9007_25523)"/>
<path d="M10.8187 5.89243C10.9157 5.72216 11.0109 5.55521 11.1046 5.39209C10.8641 5.95396 10.7458 6.43285 10.7505 6.91316C10.7534 7.43497 10.902 7.95725 11.1936 8.5902L13.3403 12.3378C13.7157 12.9655 14.1308 13.669 14.5866 14.4646C15.0434 15.2611 15.4401 15.9766 15.7923 16.6157L17.9399 20.3643C18.3494 20.951 18.7352 21.3473 19.1972 21.6116C19.6677 21.8796 20.2187 22.0132 20.9548 22.0728H24.7388C25.5682 22.0552 26.5168 22.0394 27.6079 22.0394C28.699 22.0394 29.6466 22.0552 30.476 22.0728H34.261C35.0174 22.0103 35.5774 21.8734 36.0555 21.5892C36.4531 21.3535 36.7944 21.0173 37.1475 20.5422C37.0543 20.7053 36.9582 20.8708 36.8592 21.0416C36.473 21.7189 36.127 22.3375 35.8155 22.9018L35.2394 23.9053L33.4728 26.9909C33.0866 27.5351 32.7202 27.9114 32.2875 28.1666C31.8085 28.4499 31.2494 28.5878 30.4921 28.6493H26.709C25.8787 28.6326 24.9301 28.6169 23.8399 28.6169C22.7479 28.6169 21.8002 28.6326 20.9709 28.6493H17.1878C16.4498 28.5897 15.8998 28.4566 15.4302 28.1881C14.9668 27.9234 14.5824 27.5275 14.172 26.9408L12.0234 23.1923C11.6722 22.5531 11.2755 21.8377 10.8196 21.0421C10.3619 20.2465 9.94771 19.542 9.57233 18.9143L7.42658 15.1677C7.13452 14.5333 6.98636 14.0105 6.9821 13.4887C6.97926 12.9688 7.1189 12.4499 7.39913 11.825L9.16051 8.75189L9.75126 7.72258C10.0774 7.17168 10.4324 6.56592 10.8187 5.89243Z" fill="url(#paint2_linear_9007_25523)"/>
<path d="M13.6774 29.9078C13.8483 30.0662 14.0258 30.1964 14.2175 30.3047C14.3941 30.4063 14.5825 30.4874 14.7879 30.5541C15.4885 30.8532 16.2265 30.9901 16.9976 31.0516L17.0918 31.0602H20.9932L21.0183 31.0593C21.9575 31.0407 22.899 31.0287 23.8391 31.0287C24.7801 31.0287 25.7197 31.0407 26.6598 31.0593L26.683 31.0602H30.5864L30.6815 31.0516C30.8434 31.0397 31.0034 31.0225 31.1615 31.003C31.0488 31.2062 30.9395 31.4027 30.8335 31.5944L30.2593 32.598L28.4908 35.6845C28.1045 36.2277 27.7382 36.6031 27.3055 36.8593C26.8274 37.1426 26.2684 37.2804 25.511 37.341H21.7279C20.8976 37.3243 16.8187 37.3243 15.9903 37.341H12.2062C11.4673 37.2823 10.9182 37.1502 10.4486 36.8807C9.98474 36.6169 9.59989 36.2201 9.18949 35.6334L7.0428 31.8868C6.69061 31.2458 6.29394 30.5312 5.83809 29.7357C5.3813 28.9382 4.96616 28.2351 4.59078 27.6069L2.44409 23.8608C2.15203 23.2254 2.00386 22.7017 2.00008 22.1814C1.99629 21.6615 2.13498 21.1435 2.41711 20.5186L4.17943 17.4445L4.76924 16.4143C4.87811 16.2316 4.99125 16.0418 5.10675 15.8462C5.15314 15.9578 5.20189 16.0699 5.25396 16.1805L5.2994 16.2793L7.51 20.1399L7.52184 20.1595C7.93603 20.8525 8.34454 21.5475 8.74595 22.2481C9.14831 22.9488 9.54025 23.6528 9.92935 24.3611L9.94024 24.3807L12.1527 28.2423L12.2138 28.331C12.637 28.9334 13.1056 29.4719 13.6774 29.9078Z" fill="url(#paint3_linear_9007_25523)"/>
<path d="M34.9477 23.6001L33.13 26.771C32.8417 27.1745 32.5094 27.5618 32.0805 27.817C31.5963 28.1022 31.0254 28.1971 30.4735 28.242H26.7098C25.7522 28.2234 24.795 28.242 23.8374 28.242C22.8798 28.242 21.9217 28.2234 20.9651 28.242H17.2023C16.6632 28.199 16.1032 28.107 15.6279 27.8346C15.164 27.5699 14.8133 27.1554 14.5113 26.7214L12.3745 22.9924C11.9769 22.2712 11.5764 21.5529 11.1679 20.8374C10.7585 20.1239 10.3405 19.4151 9.91872 18.7077L7.78196 14.9797C7.56848 14.5104 7.38907 14.0081 7.38434 13.4873C7.38055 12.9693 7.54812 12.4766 7.75688 12.0115L9.57364 8.84155C9.36488 9.3066 9.19637 9.79931 9.20015 10.3154C9.20489 10.8382 9.38524 11.3409 9.59872 11.8098L11.7355 15.5378C12.1572 16.2447 12.5738 16.953 12.9837 17.6684C13.3922 18.382 13.7946 19.1012 14.1903 19.8224L16.3271 23.5514C16.6315 23.9835 16.9808 24.3999 17.4437 24.6637C17.9199 24.9365 18.4799 25.0272 19.0191 25.0715H22.7809C23.7394 25.052 27.5699 25.052 28.528 25.0715H32.2917C32.8436 25.0257 33.4131 24.9318 33.8968 24.6446C34.3271 24.3904 34.6585 24.0045 34.9477 23.6001Z" fill="url(#paint4_linear_9007_25523)"/>
<path d="M29.9661 32.2927L28.1494 35.4626C27.8601 35.8671 27.5288 36.2544 27.099 36.5086C26.6147 36.7948 26.0448 36.8888 25.4929 36.9346H21.7292C20.7716 36.915 19.8135 36.9346 18.8559 36.9346C17.8992 36.9346 16.9411 36.915 15.9835 36.9346H12.2217C11.6816 36.8907 11.1216 36.7996 10.6464 36.5272C10.1829 36.2615 9.83265 35.8471 9.53065 35.414L7.39295 31.685C6.99627 30.9638 6.59581 30.2445 6.18635 29.53C5.77689 28.8155 5.35892 28.1077 4.9381 27.3994L2.80134 23.6714C2.58786 23.203 2.40751 22.6998 2.40277 22.1789C2.39899 21.6609 2.56656 21.1692 2.77531 20.7041L4.59302 17.5332C4.38426 17.9992 4.21575 18.4919 4.21859 19.008C4.22332 19.5308 4.40367 20.0325 4.6181 20.5024L6.75486 24.2294C7.17662 24.9363 7.59318 25.6456 8.00311 26.3601C8.41162 27.0746 8.81303 27.7938 9.20971 28.5141L11.3465 32.244C11.6499 32.6752 12.0002 33.0916 12.4631 33.3563C12.9393 33.6282 13.4988 33.7188 14.0385 33.7636H17.7998C18.7574 33.745 22.5888 33.745 23.5459 33.7636H27.3096C27.8616 33.7179 28.432 33.6239 28.9157 33.3368C29.3456 33.0825 29.6764 32.6971 29.9661 32.2927Z" fill="url(#paint5_linear_9007_25523)"/>
<defs>
<linearGradient id="paint0_linear_9007_25523" x1="36.8449" y1="18.4298" x2="11.6127" y2="3.1575" gradientUnits="userSpaceOnUse">
<stop stop-color="#0579C3"/>
<stop offset="1" stop-color="#1199E6"/>
</linearGradient>
<linearGradient id="paint1_linear_9007_25523" x1="10.4166" y1="10.9637" x2="13.0124" y2="6.50149" gradientUnits="userSpaceOnUse">
<stop stop-color="#05699F"/>
<stop offset="1" stop-color="#0579C3"/>
</linearGradient>
<linearGradient id="paint2_linear_9007_25523" x1="6.98206" y1="17.0207" x2="37.1475" y2="17.0207" gradientUnits="userSpaceOnUse">
<stop stop-color="#3BB3F5"/>
<stop offset="1" stop-color="#BBE3FC"/>
</linearGradient>
<linearGradient id="paint3_linear_9007_25523" x1="2" y1="26.5936" x2="31.1615" y2="26.5936" gradientUnits="userSpaceOnUse">
<stop stop-color="#3BB3F5"/>
<stop offset="1" stop-color="#BBE3FC"/>
</linearGradient>
<linearGradient id="paint4_linear_9007_25523" x1="7.38428" y1="18.5418" x2="34.9477" y2="18.5418" gradientUnits="userSpaceOnUse">
<stop stop-color="#3BB3F5"/>
<stop offset="1" stop-color="#BBE3FC"/>
</linearGradient>
<linearGradient id="paint5_linear_9007_25523" x1="2.40271" y1="27.2339" x2="29.9661" y2="27.2339" gradientUnits="userSpaceOnUse">
<stop stop-color="#3BB3F5"/>
<stop offset="1" stop-color="#BBE3FC"/>
</linearGradient>
</defs>
</svg>
