<svg width="48" height="48" viewBox="0 0 48 48" fill="none" xmlns="http://www.w3.org/2000/svg">
<path d="M30.6667 9C32.8768 9 34.9964 9.87797 36.5592 11.4408C38.122 13.0036 39 15.1232 39 17.3333V30.6667C39 32.8768 38.122 34.9964 36.5592 36.5592C34.9964 38.122 32.8768 39 30.6667 39H17.3333C15.1232 39 13.0036 38.122 11.4408 36.5592C9.87797 34.9964 9 32.8768 9 30.6667V17.3333C9 15.1232 9.87797 13.0036 11.4408 11.4408C13.0036 9.87797 15.1232 9 17.3333 9H30.6667ZM24 17.3333C22.2319 17.3333 20.5362 18.0357 19.286 19.286C18.0357 20.5362 17.3333 22.2319 17.3333 24C17.3333 25.7681 18.0357 27.4638 19.286 28.714C20.5362 29.9643 22.2319 30.6667 24 30.6667C25.7681 30.6667 27.4638 29.9643 28.714 28.714C29.9643 27.4638 30.6667 25.7681 30.6667 24C30.6667 22.2319 29.9643 20.5362 28.714 19.286C27.4638 18.0357 25.7681 17.3333 24 17.3333ZM24 20.6667C24.8841 20.6667 25.7319 21.0179 26.357 21.643C26.9821 22.2681 27.3333 23.1159 27.3333 24C27.3333 24.8841 26.9821 25.7319 26.357 26.357C25.7319 26.9821 24.8841 27.3333 24 27.3333C23.1159 27.3333 22.2681 26.9821 21.643 26.357C21.0179 25.7319 20.6667 24.8841 20.6667 24C20.6667 23.1159 21.0179 22.2681 21.643 21.643C22.2681 21.0179 23.1159 20.6667 24 20.6667ZM31.5 14.8333C31.058 14.8333 30.6341 15.0089 30.3215 15.3215C30.0089 15.6341 29.8333 16.058 29.8333 16.5C29.8333 16.942 30.0089 17.366 30.3215 17.6785C30.6341 17.9911 31.058 18.1667 31.5 18.1667C31.942 18.1667 32.366 17.9911 32.6785 17.6785C32.9911 17.366 33.1667 16.942 33.1667 16.5C33.1667 16.058 32.9911 15.6341 32.6785 15.3215C32.366 15.0089 31.942 14.8333 31.5 14.8333Z" fill="#D3DBDE"/>
</svg>
