<svg width="24" height="24" viewBox="0 0 24 24" fill="none" xmlns="http://www.w3.org/2000/svg">
<path d="M12.0273 0H11.9727C5.36035 0 0 5.36034 0 11.9727V12.0273C0 18.6396 5.36035 24 11.9727 24H12.0273C18.6396 24 24 18.6396 24 12.0273V11.9727C24 5.36034 18.6396 0 12.0273 0Z" fill="url(#paint0_linear_9010_9869)"/>
<path d="M15.7134 4.88281H8.28711C6.23547 4.88281 4.56641 6.55187 4.56641 8.60351V15.3975C4.56641 17.4491 6.23547 19.1182 8.28711 19.1182H15.7134C17.765 19.1182 19.4341 17.4491 19.4341 15.3975V8.60351C19.4341 6.55187 17.765 4.88281 15.7134 4.88281ZM5.87895 8.60351C5.87895 7.27583 6.95943 6.19536 8.28711 6.19536H15.7134C17.0411 6.19536 18.1215 7.27583 18.1215 8.60351V15.3975C18.1215 16.7251 17.0411 17.8056 15.7134 17.8056H8.28711C6.95943 17.8056 5.87895 16.7251 5.87895 15.3975V8.60351Z" fill="white"/>
<path d="M11.9999 15.4603C13.9078 15.4603 15.4608 13.9082 15.4608 11.9995C15.4608 10.0908 13.9086 8.53857 11.9999 8.53857C10.0912 8.53857 8.53906 10.0908 8.53906 11.9995C8.53906 13.9082 10.0912 15.4603 11.9999 15.4603ZM11.9999 9.85196C13.1847 9.85196 14.1483 10.8156 14.1483 12.0003C14.1483 13.185 13.1847 14.1486 11.9999 14.1486C10.8152 14.1486 9.85161 13.185 9.85161 12.0003C9.85161 10.8156 10.8152 9.85196 11.9999 9.85196Z" fill="white"/>
<path d="M15.784 9.09788C16.2978 9.09788 16.7165 8.67999 16.7165 8.1654C16.7165 7.65081 16.2986 7.23291 15.784 7.23291C15.2695 7.23291 14.8516 7.65081 14.8516 8.1654C14.8516 8.67999 15.2695 9.09788 15.784 9.09788Z" fill="white"/>
<defs>
<linearGradient id="paint0_linear_9010_9869" x1="3.50629" y1="20.4937" x2="20.4937" y2="3.50713" gradientUnits="userSpaceOnUse">
<stop stop-color="#FAAD4F"/>
<stop offset="0.35" stop-color="#DD2A7B"/>
<stop offset="0.62" stop-color="#9537B0"/>
<stop offset="1" stop-color="#515BD4"/>
</linearGradient>
</defs>
</svg>
