<svg width="24" height="24" viewBox="0 0 24 24" fill="none" xmlns="http://www.w3.org/2000/svg">
<path d="M24 12C24 5.37258 18.6274 0 12 0C5.37259 0 0 5.37258 0 12C0 18.6274 5.37259 24 12 24C18.6274 24 24 18.6274 24 12Z" fill="#FF0209"/>
<path d="M17.094 17.3152C16.7365 17.3539 16.3706 17.3607 16.0198 17.3598C13.2835 17.3573 10.5472 17.3548 7.81177 17.3531C6.95083 17.3531 6.01316 17.3253 5.34785 16.778C4.59822 16.1599 4.44223 15.0882 4.38152 14.1185C4.29719 12.7895 4.29045 11.4564 4.35959 10.1266C4.39754 9.39639 4.46415 8.64844 4.77867 7.98735C5.00466 7.51261 5.38158 7.08594 5.86391 6.86164C6.42466 6.60108 7.01155 6.64746 7.6153 6.64662C9.06059 6.64493 10.5059 6.64409 11.9512 6.6424C13.4538 6.64071 14.9573 6.63987 16.4599 6.63818C17.1699 6.63818 17.9322 6.65252 18.5115 7.06317C19.2595 7.59272 19.4627 8.60038 19.5563 9.51191C19.7291 11.1908 19.7317 12.8874 19.563 14.5662C19.493 15.2585 19.3767 15.9904 18.9205 16.5158C18.4685 17.0369 17.7981 17.2376 17.0949 17.3143L17.094 17.3152Z" fill="white"/>
<path d="M14.4489 11.9998L10.3711 9.64551V14.3541L14.4489 11.9998Z" fill="#FF0209"/>
</svg>
