<svg width="60" height="60" viewBox="0 0 60 60" fill="none" xmlns="http://www.w3.org/2000/svg">
<path d="M36.081 3.00263C36.3573 2.98503 36.5985 3.04423 36.8607 3.12403C38.3527 3.57808 39.8287 4.10925 41.3089 4.60247L49.9794 7.49209L53.5672 8.68837C54.0764 8.85815 54.9216 9.05918 55.3547 9.33829C55.6109 9.50344 55.8344 9.7796 55.9014 10.0796C56.0466 10.729 55.9659 11.511 55.9658 12.1797L55.9631 15.7446L55.9637 20.1449C55.9636 21.1159 55.9824 22.0909 55.9301 23.0606C55.9158 23.3673 55.8966 23.6738 55.8723 23.9798C55.848 24.2859 55.8187 24.5915 55.7844 24.8967C55.7501 25.2018 55.7108 25.5063 55.6666 25.8102C55.6224 26.114 55.5732 26.417 55.519 26.7193C55.4649 27.0216 55.4058 27.3228 55.3418 27.6231C55.2779 27.9234 55.209 28.2226 55.1352 28.5207C55.0614 28.8188 54.9828 29.1155 54.8993 29.411C54.8158 29.7065 54.7275 30.0006 54.6344 30.2932C54.5414 30.5858 54.4435 30.8768 54.3409 31.1662C54.2383 31.4556 54.131 31.7432 54.019 32.0291C53.907 32.315 53.7903 32.599 53.6691 32.8811C53.5478 33.1632 53.4219 33.4432 53.2914 33.7211C53.161 33.9991 53.026 34.2748 52.8866 34.5484C52.7471 34.822 52.6032 35.0932 52.4549 35.362C52.3066 35.6308 52.1539 35.8972 51.9968 36.1611C51.8399 36.4249 51.6786 36.6861 51.513 36.9447C51.4219 37.087 51.3295 37.2286 51.2359 37.3693C51.1422 37.51 51.0473 37.6498 50.9512 37.7887C50.855 37.9277 50.7577 38.0658 50.6591 38.203C50.5604 38.3403 50.4606 38.4766 50.3595 38.612C50.2584 38.7474 50.1561 38.8819 50.0526 39.0155C49.9491 39.1491 49.8444 39.2818 49.7385 39.4135C49.6326 39.5452 49.5256 39.6759 49.4174 39.8057C49.3091 39.9355 49.1997 40.0643 49.0891 40.192C48.9786 40.3199 48.867 40.4467 48.7541 40.5726C48.6413 40.6983 48.5273 40.8231 48.4123 40.9468C48.2972 41.0706 48.181 41.1933 48.0637 41.315C47.9464 41.4366 47.8281 41.5572 47.7087 41.6768C47.5892 41.7963 47.4687 41.9148 47.3471 42.0322C47.2255 42.1495 47.1029 42.2658 46.9792 42.3809C46.8556 42.4961 46.7309 42.6102 46.6051 42.7231C46.4794 42.836 46.3527 42.9478 46.2249 43.0584C46.0972 43.1691 45.9685 43.2785 45.8388 43.3869C45.7091 43.4952 45.5784 43.6023 45.4468 43.7083C45.3152 43.8143 45.1826 43.9191 45.0491 44.0227C44.9156 44.1263 44.7812 44.2287 44.6458 44.3298C44.5105 44.431 44.3742 44.531 44.2371 44.6297C44.0999 44.7284 43.9619 44.8259 43.823 44.9222C43.6841 45.0184 43.5444 45.1133 43.4037 45.2071C43.2631 45.3008 43.1217 45.3933 42.9794 45.4845C42.8372 45.5756 42.6941 45.6655 42.5501 45.7541C42.4063 45.8428 42.2616 45.9301 42.1161 46.0162C41.9707 46.1022 41.8245 46.1869 41.6775 46.2702C41.5305 46.3536 41.3828 46.4356 41.2343 46.5163C41.0858 46.5971 40.9367 46.6765 40.7868 46.7545C40.637 46.8325 40.4864 46.9092 40.3351 46.9846C40.1838 47.0599 40.0319 47.1339 39.8793 47.2065C39.7267 47.2791 39.5735 47.3503 39.4196 47.4201C38.5138 47.8311 37.405 48.3395 36.4363 48.5532C35.8915 48.617 35.2682 48.3198 34.7665 48.1283C34.3158 47.9582 33.8697 47.7767 33.4282 47.5839C32.9868 47.391 32.5506 47.1871 32.1195 46.972C31.6885 46.7569 31.2632 46.5309 30.8436 46.2941C30.4241 46.0573 30.0109 45.81 29.604 45.5521C29.4084 45.4281 29.2144 45.3017 29.0219 45.1729C28.8294 45.044 28.6386 44.9128 28.4493 44.7793C28.2601 44.6458 28.0725 44.51 27.8866 44.3718C27.7008 44.2336 27.5166 44.0932 27.3342 43.9505C27.1517 43.8078 26.9711 43.6629 26.7922 43.5157C26.6134 43.3685 26.4364 43.2192 26.2612 43.0677C26.086 42.9162 25.9128 42.7626 25.7413 42.6068C25.57 42.451 25.4006 42.2931 25.2331 42.1331C25.0656 41.9732 24.9001 41.8112 24.7366 41.6471C24.5731 41.4831 24.4117 41.317 24.2522 41.149C24.0928 40.981 23.9355 40.811 23.7803 40.6391C23.6251 40.4672 23.472 40.2934 23.3211 40.1177C23.1702 39.942 23.0214 39.7645 22.8749 39.5852C22.7283 39.4059 22.584 39.2247 22.4419 39.0418C22.2998 38.8589 22.16 38.6743 22.0225 38.4879C21.8849 38.3016 21.7497 38.1135 21.6168 37.9238C21.4839 37.7342 21.3534 37.5429 21.2252 37.35C21.097 37.1571 20.9713 36.9626 20.8479 36.7666C20.7245 36.5706 20.6035 36.3731 20.485 36.1741C20.3665 35.9751 20.2504 35.7747 20.1369 35.5729C20.0233 35.371 19.9122 35.1678 19.8036 34.9632C19.695 34.7586 19.589 34.5527 19.4855 34.3454C19.382 34.1382 19.2811 33.9298 19.1827 33.7201C19.0844 33.5104 18.9886 33.2995 18.8955 33.0875C18.8023 32.8755 18.7118 32.6623 18.6239 32.4479C18.536 32.2337 18.4508 32.0183 18.3681 31.8019C18.2856 31.5855 18.2057 31.3682 18.1284 31.1498C18.0512 30.9314 17.9766 30.7122 17.9048 30.492C17.833 30.2718 17.7639 30.0507 17.6976 29.8289C17.6311 29.607 17.5675 29.3843 17.5066 29.1608C17.4458 28.9373 17.3877 28.7131 17.3323 28.4882C17.2769 28.2633 17.2243 28.0378 17.1745 27.8116C17.0101 27.0626 16.8763 26.3082 16.7731 25.5484C16.6699 24.7885 16.5977 24.0257 16.5564 23.26C16.4946 22.2847 16.516 21.3017 16.5159 20.3247L16.5164 15.8522L16.5131 12.2649C16.5126 11.627 16.4756 10.9681 16.5283 10.3336C16.5472 10.1071 16.6173 9.89792 16.7443 9.70847C16.7791 9.65654 16.8175 9.60736 16.8594 9.56095C16.9013 9.51448 16.9462 9.4713 16.9943 9.43141C17.0425 9.39147 17.0932 9.35517 17.1466 9.32253C17.1999 9.28995 17.2553 9.26134 17.3128 9.23671C17.7123 9.0696 18.1433 8.94852 18.5542 8.81132L20.8717 8.03882L28.0276 5.65462L33.3844 3.86679C34.1991 3.59479 35.2696 3.16188 36.081 3.00263Z" fill="url(#paint0_linear_9010_9645)"/>
<g filter="url(#filter0_bi_9010_9645)">
<path d="M22.581 11.4401C22.8573 11.4225 23.0985 11.4817 23.3607 11.5615C24.8527 12.0156 26.3287 12.5468 27.8089 13.04L36.4794 15.9296L40.0672 17.1259C40.5764 17.2957 41.4216 17.4967 41.8547 17.7758C42.1109 17.9409 42.3344 18.2171 42.4014 18.5171C42.5466 19.1665 42.4659 19.9485 42.4658 20.6172L42.4631 24.1821L42.4637 28.5824C42.4636 29.5534 42.4824 30.5284 42.4301 31.4981C42.4158 31.8048 42.3966 32.1113 42.3723 32.4173C42.348 32.7234 42.3187 33.029 42.2844 33.3342C42.2501 33.6393 42.2108 33.9438 42.1666 34.2477C42.1224 34.5515 42.0732 34.8545 42.019 35.1568C41.9649 35.4591 41.9058 35.7603 41.8418 36.0606C41.7779 36.3609 41.709 36.6601 41.6352 36.9582C41.5614 37.2563 41.4828 37.553 41.3993 37.8485C41.3158 38.144 41.2275 38.4381 41.1344 38.7307C41.0414 39.0233 40.9435 39.3143 40.8409 39.6037C40.7383 39.8931 40.631 40.1807 40.519 40.4666C40.407 40.7525 40.2903 41.0365 40.1691 41.3186C40.0478 41.6007 39.9219 41.8807 39.7914 42.1586C39.661 42.4366 39.526 42.7123 39.3866 42.9859C39.2471 43.2595 39.1032 43.5307 38.9549 43.7995C38.8066 44.0683 38.6539 44.3347 38.4968 44.5986C38.3399 44.8624 38.1786 45.1236 38.013 45.3822C37.9219 45.5245 37.8295 45.6661 37.7359 45.8068C37.6422 45.9475 37.5473 46.0873 37.4512 46.2262C37.355 46.3652 37.2577 46.5033 37.1591 46.6405C37.0604 46.7778 36.9606 46.9141 36.8595 47.0495C36.7584 47.1849 36.6561 47.3194 36.5526 47.453C36.4491 47.5866 36.3444 47.7193 36.2385 47.851C36.1326 47.9827 36.0256 48.1134 35.9174 48.2432C35.8091 48.373 35.6997 48.5018 35.5891 48.6295C35.4786 48.7574 35.367 48.8842 35.2541 49.0101C35.1413 49.1358 35.0273 49.2606 34.9123 49.3843C34.7972 49.5081 34.681 49.6308 34.5637 49.7525C34.4464 49.8741 34.3281 49.9947 34.2087 50.1143C34.0892 50.2338 33.9687 50.3523 33.8471 50.4697C33.7255 50.587 33.6029 50.7033 33.4792 50.8184C33.3556 50.9336 33.2309 51.0477 33.1051 51.1606C32.9794 51.2735 32.8527 51.3853 32.7249 51.4959C32.5972 51.6066 32.4685 51.716 32.3388 51.8244C32.2091 51.9327 32.0784 52.0398 31.9468 52.1458C31.8152 52.2518 31.6826 52.3566 31.5491 52.4602C31.4156 52.5638 31.2812 52.6662 31.1458 52.7673C31.0105 52.8685 30.8742 52.9685 30.7371 53.0672C30.5999 53.1659 30.4619 53.2634 30.323 53.3597C30.1841 53.4559 30.0444 53.5508 29.9037 53.6446C29.7631 53.7383 29.6217 53.8308 29.4794 53.922C29.3372 54.0131 29.1941 54.103 29.0501 54.1916C28.9063 54.2803 28.7616 54.3676 28.6161 54.4537C28.4707 54.5397 28.3245 54.6244 28.1775 54.7077C28.0305 54.7911 27.8828 54.8731 27.7343 54.9538C27.5858 55.0346 27.4367 55.114 27.2868 55.192C27.137 55.27 26.9864 55.3467 26.8351 55.4221C26.6838 55.4974 26.5319 55.5714 26.3793 55.644C26.2267 55.7166 26.0735 55.7878 25.9196 55.8576C25.0138 56.2686 23.905 56.777 22.9363 56.9907C22.3915 57.0545 21.7682 56.7573 21.2665 56.5658C20.8158 56.3957 20.3697 56.2142 19.9282 56.0214C19.4868 55.8285 19.0506 55.6246 18.6195 55.4095C18.1885 55.1944 17.7632 54.9684 17.3436 54.7316C16.9241 54.4948 16.5109 54.2475 16.104 53.9896C15.9084 53.8656 15.7144 53.7392 15.5219 53.6104C15.3294 53.4815 15.1386 53.3503 14.9493 53.2168C14.7601 53.0833 14.5725 52.9475 14.3866 52.8093C14.2008 52.6711 14.0166 52.5307 13.8342 52.388C13.6517 52.2453 13.4711 52.1004 13.2922 51.9532C13.1134 51.806 12.9364 51.6567 12.7612 51.5052C12.586 51.3537 12.4128 51.2001 12.2413 51.0443C12.07 50.8885 11.9006 50.7306 11.7331 50.5706C11.5656 50.4107 11.4001 50.2487 11.2366 50.0846C11.0731 49.9206 10.9117 49.7545 10.7522 49.5865C10.5928 49.4185 10.4355 49.2485 10.2803 49.0766C10.1251 48.9047 9.97202 48.7309 9.82109 48.5552C9.67016 48.3795 9.52142 48.202 9.37488 48.0227C9.22833 47.8434 9.08402 47.6622 8.94193 47.4793C8.79984 47.2964 8.66003 47.1118 8.52251 46.9254C8.38493 46.7391 8.2497 46.551 8.11681 46.3613C7.98391 46.1717 7.85337 45.9804 7.72517 45.7875C7.59702 45.5946 7.47125 45.4001 7.34786 45.2041C7.22447 45.0081 7.10351 44.8106 6.98498 44.6116C6.86645 44.4126 6.75042 44.2122 6.63687 44.0104C6.52327 43.8085 6.41219 43.6053 6.30364 43.4007C6.19502 43.1961 6.08899 42.9902 5.98554 42.7829C5.88202 42.5757 5.7811 42.3673 5.68275 42.1576C5.5844 41.9479 5.48864 41.737 5.39545 41.525C5.30233 41.313 5.21181 41.0998 5.12391 40.8854C5.03601 40.6712 4.95075 40.4558 4.86813 40.2394C4.78557 40.023 4.70565 39.8057 4.62838 39.5873C4.55116 39.3689 4.47664 39.1497 4.40482 38.9295C4.33301 38.7093 4.26392 38.4882 4.19756 38.2664C4.13115 38.0445 4.06749 37.8218 4.0066 37.5983C3.94576 37.3748 3.88765 37.1506 3.83228 36.9257C3.7769 36.7008 3.72432 36.4753 3.67452 36.2491C3.51011 35.5001 3.3763 34.7457 3.27309 33.9859C3.16993 33.226 3.0977 32.4632 3.05639 31.6975C2.9946 30.7222 3.01597 29.7392 3.01588 28.7622L3.01642 24.2897L3.01312 20.7024C3.01259 20.0645 2.97555 19.4056 3.02835 18.7711C3.04722 18.5446 3.11728 18.3354 3.24433 18.146C3.27911 18.094 3.31745 18.0449 3.35936 17.9984C3.40126 17.952 3.44625 17.9088 3.49432 17.8689C3.54246 17.829 3.59321 17.7927 3.64656 17.76C3.69992 17.7274 3.75533 17.6988 3.81278 17.6742C4.21225 17.5071 4.64333 17.386 5.0542 17.2488L7.37172 16.4763L14.5276 14.0921L19.8844 12.3043C20.6991 12.0323 21.7696 11.5994 22.581 11.4401Z" fill="url(#paint1_linear_9010_9645)" fill-opacity="0.4"/>
</g>
<mask id="path-3-inside-1_9010_9645" fill="white">
<path d="M22.7403 24.9365C23.9639 24.1042 25.3366 23.6515 26.8205 23.6411C26.8792 23.6404 26.9379 23.6405 26.9966 23.6413C27.0553 23.6422 27.114 23.6437 27.1727 23.646C27.2313 23.6483 27.2899 23.6513 27.3485 23.655C27.4071 23.6588 27.4656 23.6632 27.524 23.6684C27.5825 23.6736 27.6409 23.6795 27.6993 23.6861C27.7575 23.6928 27.8158 23.7001 27.8739 23.7082C27.932 23.7163 27.9901 23.7251 28.048 23.7346C28.1059 23.7441 28.1637 23.7544 28.2214 23.7653C28.279 23.7763 28.3366 23.788 28.394 23.8003C28.4513 23.8127 28.5085 23.8258 28.5656 23.8396C28.6226 23.8534 28.6795 23.8679 28.7362 23.8831C28.7929 23.8984 28.8494 23.9143 28.9057 23.9309C28.962 23.9476 29.018 23.9649 29.0739 23.9828C29.1298 24.0008 29.1854 24.0195 29.2408 24.0389C29.2962 24.0583 29.3514 24.0784 29.4063 24.0991C29.4612 24.1199 29.5158 24.1413 29.5702 24.1635C29.6246 24.1856 29.6786 24.2083 29.7324 24.2319C29.7862 24.2553 29.8398 24.2794 29.893 24.3041C29.9462 24.329 29.9991 24.3544 30.0517 24.3805C30.1043 24.4066 30.1565 24.4333 30.2084 24.4607C30.2603 24.4881 30.3119 24.5161 30.3631 24.5448C30.4143 24.5735 30.4652 24.6028 30.5157 24.6328C30.5661 24.6627 30.6162 24.6932 30.666 24.7244C30.7157 24.7556 30.7651 24.7874 30.814 24.8198C30.863 24.8522 30.9115 24.8852 30.9596 24.9188C31.0077 24.9524 31.0555 24.9866 31.1028 25.0214C31.15 25.0561 31.1968 25.0915 31.2432 25.1275C31.2897 25.1635 31.3356 25.2 31.3811 25.2371C31.4266 25.2742 31.4716 25.3118 31.5162 25.35C31.5607 25.3882 31.6048 25.427 31.6484 25.4662C31.692 25.5056 31.7351 25.5454 31.7777 25.5858C31.8203 25.6262 31.8624 25.6671 31.904 25.7085C31.9459 25.7498 31.9873 25.7916 32.0281 25.8338C32.069 25.8762 32.1093 25.919 32.1491 25.9623C32.1889 26.0056 32.2282 26.0494 32.2669 26.0937C32.3056 26.138 32.3437 26.1827 32.3813 26.228C32.4189 26.2732 32.456 26.3189 32.4924 26.365C32.5289 26.4112 32.5648 26.4578 32.6 26.5048C32.6354 26.5518 32.6701 26.5993 32.7042 26.6472C32.7384 26.6951 32.7719 26.7434 32.8048 26.7922C32.8378 26.8409 32.8701 26.89 32.9019 26.9395C32.9335 26.9891 32.9646 27.039 32.9951 27.0892C33.0256 27.1396 33.0554 27.1903 33.0846 27.2413C33.1138 27.2923 33.1424 27.3437 33.1704 27.3955C33.1983 27.4473 33.2256 27.4993 33.2523 27.5517C33.2789 27.6042 33.3049 27.657 33.3303 27.71C33.3556 27.7631 33.3803 27.8165 33.4043 27.8702C33.4284 27.9239 33.4517 27.9778 33.4744 28.0321C33.4971 28.0864 33.5191 28.1409 33.5404 28.1957C33.5617 28.2505 33.5823 28.3056 33.6023 28.3609C33.6223 28.4163 33.6415 28.4718 33.6601 28.5276C33.6787 28.5834 33.6966 28.6394 33.7138 28.6957C33.731 28.752 33.7475 28.8084 33.7633 28.865C33.7791 28.9217 33.7942 28.9786 33.8085 29.0356C33.823 29.0926 33.8366 29.1498 33.8496 29.2072C33.8625 29.2646 33.8748 29.3221 33.8863 29.3798C33.8979 29.4374 33.9087 29.4952 33.9187 29.5532C33.9289 29.6111 33.9383 29.6692 33.947 29.7274C33.9556 29.7855 33.9636 29.8438 33.9707 29.9022C33.978 29.9606 33.9845 30.019 33.9902 30.0775C33.996 30.136 34.001 30.1946 34.0054 30.2533C34.0097 30.312 34.0133 30.3707 34.0161 30.4294C34.019 30.4882 34.0211 30.547 34.0225 30.6057C34.0239 30.6645 34.0246 30.7234 34.0245 30.7822C34.0275 31.9805 33.7361 33.2318 33.1371 34.2755C32.3377 35.6684 30.8508 36.9512 29.6991 38.1029L26.0237 41.7762L24.4649 43.3425C24.1665 43.6421 23.8655 43.9955 23.5184 44.2361C23.3224 44.3718 23.097 44.4774 22.8573 44.5015C22.4773 44.5395 22.1338 44.4013 21.8499 44.157C21.3306 43.7102 20.8549 43.1821 20.3708 42.6968L17.717 40.0403L14.8837 37.2092C14.0916 36.4175 13.2183 35.6458 12.6018 34.7052C12.5202 34.5806 12.4426 34.4535 12.3691 34.3238C12.2956 34.1943 12.2263 34.0625 12.1611 33.9285C12.0959 33.7944 12.0351 33.6585 11.9786 33.5207C11.9221 33.3828 11.87 33.2433 11.8223 33.1021C11.7747 32.9609 11.7316 32.8184 11.693 32.6745C11.6544 32.5306 11.6204 32.3856 11.591 32.2395C11.5617 32.0934 11.5369 31.9466 11.5169 31.799C11.4968 31.6513 11.4815 31.5032 11.4709 31.3545C11.4661 31.2952 11.4621 31.2359 11.4589 31.1765C11.4557 31.1171 11.4531 31.0576 11.4514 30.9981C11.4496 30.9386 11.4486 30.8791 11.4483 30.8197C11.448 30.7601 11.4485 30.7006 11.4498 30.6411C11.4509 30.5817 11.4529 30.5222 11.4556 30.4627C11.4584 30.4033 11.4618 30.3439 11.466 30.2846C11.4702 30.2252 11.4751 30.1659 11.4807 30.1067C11.4864 30.0475 11.4929 29.9883 11.5001 29.9293C11.5072 29.8702 11.515 29.8112 11.5236 29.7523C11.5323 29.6934 11.5417 29.6346 11.5518 29.576C11.5619 29.5174 11.5727 29.4589 11.5843 29.4005C11.5958 29.3422 11.6081 29.284 11.6211 29.2259C11.6342 29.1678 11.6479 29.1099 11.6624 29.0522C11.6768 28.9945 11.692 28.937 11.7079 28.8796C11.7238 28.8223 11.7405 28.7652 11.7578 28.7082C11.7751 28.6513 11.7932 28.5946 11.8119 28.5382C11.8307 28.4817 11.8501 28.4255 11.8703 28.3695C11.8905 28.3135 11.9114 28.2578 11.9329 28.2024C11.9545 28.1469 11.9767 28.0917 11.9997 28.0368C12.0226 27.9819 12.0462 27.9273 12.0705 27.873C12.0948 27.8187 12.1198 27.7646 12.1454 27.7109C12.1711 27.6573 12.1974 27.6039 12.2244 27.5509C12.2514 27.4979 12.2791 27.4452 12.3074 27.3928C12.3357 27.3405 12.3646 27.2885 12.3943 27.2369C12.4238 27.1853 12.4541 27.1341 12.485 27.0832C12.5158 27.0324 12.5474 26.9819 12.5795 26.9318C12.6117 26.8817 12.6445 26.8321 12.6778 26.7829C12.7112 26.7336 12.7452 26.6848 12.7798 26.6364C12.8144 26.588 12.8497 26.5401 12.8855 26.4926C12.9213 26.445 12.9577 26.398 12.9948 26.3514C13.0317 26.3048 13.0693 26.2586 13.1075 26.2129C13.1456 26.1673 13.1843 26.1221 13.2236 26.0774C13.2623 26.033 13.3016 25.9891 13.3415 25.9458C13.3814 25.9024 13.4217 25.8595 13.4626 25.8171C13.5036 25.7747 13.545 25.7328 13.587 25.6915C13.6289 25.6501 13.6714 25.6093 13.7144 25.569C13.7574 25.5286 13.8008 25.4889 13.8448 25.4497C13.8888 25.4105 13.9332 25.3718 13.9782 25.3337C14.023 25.2955 14.0684 25.2579 14.1143 25.221C14.1602 25.184 14.2065 25.1476 14.2533 25.1117C14.3 25.0759 14.3472 25.0406 14.3948 25.006C14.4425 24.9713 14.4906 24.9372 14.5391 24.9038C14.5876 24.8703 14.6365 24.8374 14.6858 24.8052C14.7351 24.7729 14.7848 24.7413 14.8349 24.7103C14.885 24.6793 14.9354 24.6489 14.9863 24.6191C15.0371 24.5893 15.0883 24.5602 15.1399 24.5317C15.1915 24.5032 15.2434 24.4754 15.2957 24.4482C15.348 24.421 15.4005 24.3945 15.4535 24.3686C15.5064 24.3427 15.5597 24.3175 15.6132 24.2929C15.6667 24.2684 15.7206 24.2445 15.7748 24.2213C15.8289 24.198 15.8833 24.1754 15.9381 24.1536C15.9928 24.1317 16.0477 24.1105 16.1029 24.09C16.1582 24.0695 16.2137 24.0497 16.2694 24.0306C16.3252 24.0114 16.3811 23.993 16.4373 23.9753C16.4935 23.9576 16.5499 23.9405 16.6065 23.9242C16.6631 23.9078 16.7199 23.8922 16.7769 23.8773C16.8339 23.8624 16.8911 23.8482 16.9485 23.8347C17.0058 23.8212 17.0633 23.8085 17.1209 23.7964C17.1786 23.7843 17.2364 23.7729 17.2943 23.7623C17.3523 23.7517 17.4104 23.7418 17.4686 23.7327C17.5268 23.7235 17.5851 23.715 17.6435 23.7073C17.7019 23.6995 17.7604 23.6925 17.819 23.6863C17.8776 23.68 17.9362 23.6744 17.995 23.6696C18.0537 23.6648 18.1125 23.6607 18.1713 23.6573C19.8714 23.5835 21.318 24.0151 22.7403 24.9365Z"/>
</mask>
<path d="M22.7403 24.9365C23.9639 24.1042 25.3366 23.6515 26.8205 23.6411C26.8792 23.6404 26.9379 23.6405 26.9966 23.6413C27.0553 23.6422 27.114 23.6437 27.1727 23.646C27.2313 23.6483 27.2899 23.6513 27.3485 23.655C27.4071 23.6588 27.4656 23.6632 27.524 23.6684C27.5825 23.6736 27.6409 23.6795 27.6993 23.6861C27.7575 23.6928 27.8158 23.7001 27.8739 23.7082C27.932 23.7163 27.9901 23.7251 28.048 23.7346C28.1059 23.7441 28.1637 23.7544 28.2214 23.7653C28.279 23.7763 28.3366 23.788 28.394 23.8003C28.4513 23.8127 28.5085 23.8258 28.5656 23.8396C28.6226 23.8534 28.6795 23.8679 28.7362 23.8831C28.7929 23.8984 28.8494 23.9143 28.9057 23.9309C28.962 23.9476 29.018 23.9649 29.0739 23.9828C29.1298 24.0008 29.1854 24.0195 29.2408 24.0389C29.2962 24.0583 29.3514 24.0784 29.4063 24.0991C29.4612 24.1199 29.5158 24.1413 29.5702 24.1635C29.6246 24.1856 29.6786 24.2083 29.7324 24.2319C29.7862 24.2553 29.8398 24.2794 29.893 24.3041C29.9462 24.329 29.9991 24.3544 30.0517 24.3805C30.1043 24.4066 30.1565 24.4333 30.2084 24.4607C30.2603 24.4881 30.3119 24.5161 30.3631 24.5448C30.4143 24.5735 30.4652 24.6028 30.5157 24.6328C30.5661 24.6627 30.6162 24.6932 30.666 24.7244C30.7157 24.7556 30.7651 24.7874 30.814 24.8198C30.863 24.8522 30.9115 24.8852 30.9596 24.9188C31.0077 24.9524 31.0555 24.9866 31.1028 25.0214C31.15 25.0561 31.1968 25.0915 31.2432 25.1275C31.2897 25.1635 31.3356 25.2 31.3811 25.2371C31.4266 25.2742 31.4716 25.3118 31.5162 25.35C31.5607 25.3882 31.6048 25.427 31.6484 25.4662C31.692 25.5056 31.7351 25.5454 31.7777 25.5858C31.8203 25.6262 31.8624 25.6671 31.904 25.7085C31.9459 25.7498 31.9873 25.7916 32.0281 25.8338C32.069 25.8762 32.1093 25.919 32.1491 25.9623C32.1889 26.0056 32.2282 26.0494 32.2669 26.0937C32.3056 26.138 32.3437 26.1827 32.3813 26.228C32.4189 26.2732 32.456 26.3189 32.4924 26.365C32.5289 26.4112 32.5648 26.4578 32.6 26.5048C32.6354 26.5518 32.6701 26.5993 32.7042 26.6472C32.7384 26.6951 32.7719 26.7434 32.8048 26.7922C32.8378 26.8409 32.8701 26.89 32.9019 26.9395C32.9335 26.9891 32.9646 27.039 32.9951 27.0892C33.0256 27.1396 33.0554 27.1903 33.0846 27.2413C33.1138 27.2923 33.1424 27.3437 33.1704 27.3955C33.1983 27.4473 33.2256 27.4993 33.2523 27.5517C33.2789 27.6042 33.3049 27.657 33.3303 27.71C33.3556 27.7631 33.3803 27.8165 33.4043 27.8702C33.4284 27.9239 33.4517 27.9778 33.4744 28.0321C33.4971 28.0864 33.5191 28.1409 33.5404 28.1957C33.5617 28.2505 33.5823 28.3056 33.6023 28.3609C33.6223 28.4163 33.6415 28.4718 33.6601 28.5276C33.6787 28.5834 33.6966 28.6394 33.7138 28.6957C33.731 28.752 33.7475 28.8084 33.7633 28.865C33.7791 28.9217 33.7942 28.9786 33.8085 29.0356C33.823 29.0926 33.8366 29.1498 33.8496 29.2072C33.8625 29.2646 33.8748 29.3221 33.8863 29.3798C33.8979 29.4374 33.9087 29.4952 33.9187 29.5532C33.9289 29.6111 33.9383 29.6692 33.947 29.7274C33.9556 29.7855 33.9636 29.8438 33.9707 29.9022C33.978 29.9606 33.9845 30.019 33.9902 30.0775C33.996 30.136 34.001 30.1946 34.0054 30.2533C34.0097 30.312 34.0133 30.3707 34.0161 30.4294C34.019 30.4882 34.0211 30.547 34.0225 30.6057C34.0239 30.6645 34.0246 30.7234 34.0245 30.7822C34.0275 31.9805 33.7361 33.2318 33.1371 34.2755C32.3377 35.6684 30.8508 36.9512 29.6991 38.1029L26.0237 41.7762L24.4649 43.3425C24.1665 43.6421 23.8655 43.9955 23.5184 44.2361C23.3224 44.3718 23.097 44.4774 22.8573 44.5015C22.4773 44.5395 22.1338 44.4013 21.8499 44.157C21.3306 43.7102 20.8549 43.1821 20.3708 42.6968L17.717 40.0403L14.8837 37.2092C14.0916 36.4175 13.2183 35.6458 12.6018 34.7052C12.5202 34.5806 12.4426 34.4535 12.3691 34.3238C12.2956 34.1943 12.2263 34.0625 12.1611 33.9285C12.0959 33.7944 12.0351 33.6585 11.9786 33.5207C11.9221 33.3828 11.87 33.2433 11.8223 33.1021C11.7747 32.9609 11.7316 32.8184 11.693 32.6745C11.6544 32.5306 11.6204 32.3856 11.591 32.2395C11.5617 32.0934 11.5369 31.9466 11.5169 31.799C11.4968 31.6513 11.4815 31.5032 11.4709 31.3545C11.4661 31.2952 11.4621 31.2359 11.4589 31.1765C11.4557 31.1171 11.4531 31.0576 11.4514 30.9981C11.4496 30.9386 11.4486 30.8791 11.4483 30.8197C11.448 30.7601 11.4485 30.7006 11.4498 30.6411C11.4509 30.5817 11.4529 30.5222 11.4556 30.4627C11.4584 30.4033 11.4618 30.3439 11.466 30.2846C11.4702 30.2252 11.4751 30.1659 11.4807 30.1067C11.4864 30.0475 11.4929 29.9883 11.5001 29.9293C11.5072 29.8702 11.515 29.8112 11.5236 29.7523C11.5323 29.6934 11.5417 29.6346 11.5518 29.576C11.5619 29.5174 11.5727 29.4589 11.5843 29.4005C11.5958 29.3422 11.6081 29.284 11.6211 29.2259C11.6342 29.1678 11.6479 29.1099 11.6624 29.0522C11.6768 28.9945 11.692 28.937 11.7079 28.8796C11.7238 28.8223 11.7405 28.7652 11.7578 28.7082C11.7751 28.6513 11.7932 28.5946 11.8119 28.5382C11.8307 28.4817 11.8501 28.4255 11.8703 28.3695C11.8905 28.3135 11.9114 28.2578 11.9329 28.2024C11.9545 28.1469 11.9767 28.0917 11.9997 28.0368C12.0226 27.9819 12.0462 27.9273 12.0705 27.873C12.0948 27.8187 12.1198 27.7646 12.1454 27.7109C12.1711 27.6573 12.1974 27.6039 12.2244 27.5509C12.2514 27.4979 12.2791 27.4452 12.3074 27.3928C12.3357 27.3405 12.3646 27.2885 12.3943 27.2369C12.4238 27.1853 12.4541 27.1341 12.485 27.0832C12.5158 27.0324 12.5474 26.9819 12.5795 26.9318C12.6117 26.8817 12.6445 26.8321 12.6778 26.7829C12.7112 26.7336 12.7452 26.6848 12.7798 26.6364C12.8144 26.588 12.8497 26.5401 12.8855 26.4926C12.9213 26.445 12.9577 26.398 12.9948 26.3514C13.0317 26.3048 13.0693 26.2586 13.1075 26.2129C13.1456 26.1673 13.1843 26.1221 13.2236 26.0774C13.2623 26.033 13.3016 25.9891 13.3415 25.9458C13.3814 25.9024 13.4217 25.8595 13.4626 25.8171C13.5036 25.7747 13.545 25.7328 13.587 25.6915C13.6289 25.6501 13.6714 25.6093 13.7144 25.569C13.7574 25.5286 13.8008 25.4889 13.8448 25.4497C13.8888 25.4105 13.9332 25.3718 13.9782 25.3337C14.023 25.2955 14.0684 25.2579 14.1143 25.221C14.1602 25.184 14.2065 25.1476 14.2533 25.1117C14.3 25.0759 14.3472 25.0406 14.3948 25.006C14.4425 24.9713 14.4906 24.9372 14.5391 24.9038C14.5876 24.8703 14.6365 24.8374 14.6858 24.8052C14.7351 24.7729 14.7848 24.7413 14.8349 24.7103C14.885 24.6793 14.9354 24.6489 14.9863 24.6191C15.0371 24.5893 15.0883 24.5602 15.1399 24.5317C15.1915 24.5032 15.2434 24.4754 15.2957 24.4482C15.348 24.421 15.4005 24.3945 15.4535 24.3686C15.5064 24.3427 15.5597 24.3175 15.6132 24.2929C15.6667 24.2684 15.7206 24.2445 15.7748 24.2213C15.8289 24.198 15.8833 24.1754 15.9381 24.1536C15.9928 24.1317 16.0477 24.1105 16.1029 24.09C16.1582 24.0695 16.2137 24.0497 16.2694 24.0306C16.3252 24.0114 16.3811 23.993 16.4373 23.9753C16.4935 23.9576 16.5499 23.9405 16.6065 23.9242C16.6631 23.9078 16.7199 23.8922 16.7769 23.8773C16.8339 23.8624 16.8911 23.8482 16.9485 23.8347C17.0058 23.8212 17.0633 23.8085 17.1209 23.7964C17.1786 23.7843 17.2364 23.7729 17.2943 23.7623C17.3523 23.7517 17.4104 23.7418 17.4686 23.7327C17.5268 23.7235 17.5851 23.715 17.6435 23.7073C17.7019 23.6995 17.7604 23.6925 17.819 23.6863C17.8776 23.68 17.9362 23.6744 17.995 23.6696C18.0537 23.6648 18.1125 23.6607 18.1713 23.6573C19.8714 23.5835 21.318 24.0151 22.7403 24.9365Z" stroke="white" stroke-width="7.2" mask="url(#path-3-inside-1_9010_9645)"/>
<defs>
<filter id="filter0_bi_9010_9645" x="-33" y="-24.563" width="111.488" height="117.562" filterUnits="userSpaceOnUse" color-interpolation-filters="sRGB">
<feFlood flood-opacity="0" result="BackgroundImageFix"/>
<feGaussianBlur in="BackgroundImageFix" stdDeviation="18"/>
<feComposite in2="SourceAlpha" operator="in" result="effect1_backgroundBlur_9010_9645"/>
<feBlend mode="normal" in="SourceGraphic" in2="effect1_backgroundBlur_9010_9645" result="shape"/>
<feColorMatrix in="SourceAlpha" type="matrix" values="0 0 0 0 0 0 0 0 0 0 0 0 0 0 0 0 0 0 127 0" result="hardAlpha"/>
<feOffset/>
<feGaussianBlur stdDeviation="14.4"/>
<feComposite in2="hardAlpha" operator="arithmetic" k2="-1" k3="1"/>
<feColorMatrix type="matrix" values="0 0 0 0 1 0 0 0 0 1 0 0 0 0 1 0 0 0 1 0"/>
<feBlend mode="normal" in2="shape" result="effect2_innerShadow_9010_9645"/>
</filter>
<linearGradient id="paint0_linear_9010_9645" x1="36.2441" y1="2.99951" x2="36.2441" y2="48.562" gradientUnits="userSpaceOnUse">
<stop stop-color="#189BDC"/>
<stop offset="1" stop-color="#133A86"/>
</linearGradient>
<linearGradient id="paint1_linear_9010_9645" x1="22.7441" y1="11.437" x2="22.7441" y2="56.9995" gradientUnits="userSpaceOnUse">
<stop stop-color="#67CFE4"/>
<stop offset="1" stop-color="#189BDC"/>
</linearGradient>
</defs>
</svg>
