<svg width="60" height="60" viewBox="0 0 60 60" fill="none" xmlns="http://www.w3.org/2000/svg">
<rect x="15" y="6" width="42" height="36" rx="6" fill="url(#paint0_linear_9010_14683)"/>
<g filter="url(#filter0_bi_9010_14683)">
<path fill-rule="evenodd" clip-rule="evenodd" d="M45 37.1655C44.0352 37.3844 43.0311 37.5 42 37.5C34.5442 37.5 28.5 31.4558 28.5 24C28.5 22.4221 28.7707 20.9075 29.2682 19.5H9C5.68629 19.5 3 22.1863 3 25.5V49.5C3 52.8137 5.68629 55.5 9 55.5H39C42.3137 55.5 45 52.8137 45 49.5V37.1655Z" fill="url(#paint1_linear_9010_14683)" fill-opacity="0.4"/>
</g>
<path d="M7.5 29.25L24 39.75L28.5 36.75" stroke="white" stroke-width="3" stroke-linecap="round" stroke-linejoin="round"/>
<g filter="url(#filter1_bi_9010_14683)">
<path d="M41.2679 15.0225C41.2775 15.0217 41.2871 15.0204 41.2967 15.0199C41.3694 15.0149 41.4421 15.0109 41.515 15.0078C41.5878 15.0048 41.6606 15.0026 41.7334 15.0014C41.8062 15.0001 41.8791 14.9997 41.952 15.0002C42.0248 15.0008 42.0977 15.0023 42.1706 15.0047C42.2434 15.007 42.3161 15.0103 42.3889 15.0146C42.4617 15.0187 42.5344 15.0238 42.607 15.0298C42.6796 15.0359 42.7521 15.0428 42.8245 15.0506C42.897 15.0585 42.9694 15.0672 43.0416 15.0768C43.1138 15.0865 43.186 15.0971 43.2579 15.1086C43.3299 15.12 43.4017 15.1324 43.4734 15.1456C43.5451 15.1589 43.6166 15.173 43.6879 15.188C43.7592 15.2031 43.8304 15.2191 43.9013 15.2359C43.9722 15.2527 44.043 15.2704 44.1135 15.289C44.184 15.3076 44.2542 15.3271 44.3243 15.3475C44.3943 15.3678 44.4641 15.389 44.5336 15.4112C44.6031 15.4333 44.6723 15.4562 44.7413 15.48C44.8102 15.5039 44.8788 15.5286 44.9472 15.5542C45.0155 15.5798 45.0835 15.6062 45.1512 15.6334C45.2189 15.6607 45.2863 15.6888 45.3533 15.7177C45.4203 15.7466 45.4869 15.7764 45.5532 15.8071C45.6195 15.8377 45.6854 15.8692 45.7509 15.9014C45.8164 15.9337 45.8815 15.9667 45.9462 16.0007C46.0109 16.0345 46.0751 16.0692 46.139 16.1047C46.2028 16.1403 46.2662 16.1766 46.3292 16.2137C46.3922 16.2508 46.4547 16.2886 46.5167 16.3273C46.5787 16.366 46.6402 16.4054 46.7013 16.4456C46.7623 16.4858 46.8229 16.5268 46.883 16.5685C46.943 16.6102 47.0026 16.6527 47.0616 16.6959C47.1206 16.7391 47.1791 16.7831 47.2371 16.8277C47.295 16.8724 47.3523 16.9178 47.4092 16.9639C47.466 17.01 47.5223 17.0568 47.578 17.1044C47.6336 17.1519 47.6887 17.2001 47.7433 17.249C47.7972 17.2971 47.8506 17.346 47.9034 17.3954C47.9562 17.4448 48.0084 17.4949 48.06 17.5457C48.1116 17.5965 48.1626 17.6478 48.2129 17.6998C48.2632 17.7519 48.3129 17.8045 48.362 17.8577C48.4111 17.911 48.4595 17.9648 48.5074 18.0193C48.5551 18.0737 48.6022 18.1287 48.6487 18.1844C48.6951 18.24 48.7409 18.2961 48.7859 18.3528C48.831 18.4096 48.8754 18.4668 48.9192 18.5247C48.9629 18.5825 49.0058 18.6409 49.0481 18.6998C49.0904 18.7587 49.132 18.8181 49.1729 18.878C49.2138 18.9379 49.2539 18.9983 49.2933 19.0592C49.3326 19.1202 49.3713 19.1816 49.4092 19.2434C49.4471 19.3053 49.4843 19.3676 49.5207 19.4304C49.5571 19.4932 49.5927 19.5564 49.6276 19.6201C49.6625 19.6837 49.6966 19.7478 49.73 19.8123C49.7633 19.8768 49.7958 19.9417 49.8276 20.0071C49.8593 20.0724 49.8903 20.1381 49.9205 20.2042C49.9506 20.2703 49.98 20.3367 50.0086 20.4035C50.0372 20.4703 50.0649 20.5374 50.0918 20.6049C50.1188 20.6724 50.1449 20.7402 50.1702 20.8084C50.1955 20.8765 50.22 20.945 50.2436 21.0137C50.2673 21.0824 50.2901 21.1515 50.3121 21.2208C50.3341 21.2901 50.3552 21.3596 50.3756 21.4294C50.3958 21.4993 50.4153 21.5694 50.434 21.6397C50.4526 21.71 50.4703 21.7805 50.4872 21.8512C50.5041 21.922 50.5202 21.993 50.5354 22.0641C50.5505 22.1353 50.5648 22.2066 50.5783 22.278C50.5917 22.3496 50.6044 22.4212 50.6161 22.493C50.6278 22.5648 50.6387 22.6368 50.6487 22.7089C50.6587 22.7809 50.6679 22.8531 50.6761 22.9255C50.6843 22.9977 50.6917 23.0701 50.6982 23.1426C50.7047 23.2151 50.7103 23.2876 50.7151 23.3603C50.8597 25.79 50.0871 28.1237 48.4856 29.9478C48.4384 30.0016 48.3907 30.0547 48.3423 30.1073C48.2938 30.1599 48.2448 30.2119 48.1952 30.2632C48.1455 30.3145 48.0953 30.3653 48.0444 30.4154C47.9935 30.4655 47.942 30.515 47.89 30.5639C47.8379 30.6128 47.7853 30.661 47.7321 30.7086C47.6789 30.7562 47.6251 30.8031 47.5708 30.8494C47.5164 30.8956 47.4615 30.9412 47.4061 30.9861C47.3506 31.031 47.2946 31.0752 47.2381 31.1187C47.1816 31.1623 47.1246 31.2052 47.0671 31.2473C47.0096 31.2894 46.9516 31.3308 46.893 31.3715C46.8345 31.4123 46.7755 31.4523 46.7161 31.4915C46.6566 31.5308 46.5966 31.5693 46.5362 31.6071C46.4758 31.6449 46.415 31.682 46.3536 31.7183C46.2923 31.7546 46.2306 31.7901 46.1685 31.8249C46.1063 31.8597 46.0438 31.8937 45.9809 31.9269C45.9179 31.9602 45.8545 31.9927 45.7907 32.0243C45.727 32.0561 45.6629 32.087 45.5984 32.1171C45.534 32.1473 45.4691 32.1766 45.4039 32.2051C45.3387 32.2336 45.2732 32.2614 45.2074 32.2883C45.1415 32.3152 45.0753 32.3413 45.0089 32.3667C44.9424 32.3919 44.8756 32.4164 44.8085 32.4401C44.7415 32.4637 44.6741 32.4866 44.6064 32.5086C44.5388 32.5307 44.471 32.5518 44.4029 32.5721C44.3348 32.5925 44.2664 32.612 44.1978 32.6306C44.1292 32.6493 44.0604 32.6671 43.9913 32.6841C43.9224 32.7011 43.8532 32.7173 43.7837 32.7325C43.7143 32.7479 43.6447 32.7623 43.575 32.7758C43.5052 32.7894 43.4353 32.8021 43.3653 32.814C43.2952 32.8258 43.225 32.8368 43.1546 32.847C43.0844 32.8571 43.0139 32.8664 42.9434 32.8748C42.8728 32.8832 42.8022 32.8908 42.7315 32.8975C42.6607 32.9041 42.5899 32.9099 42.5191 32.9148L42.472 32.9193C40.192 33.1207 37.8409 32.2955 36.1096 30.8025C36.0546 30.7552 36.0002 30.7074 35.9464 30.6589C35.8926 30.6103 35.8394 30.5611 35.7868 30.5112C35.7341 30.4613 35.6821 30.4108 35.6307 30.3597C35.5794 30.3085 35.5286 30.2567 35.4784 30.2043C35.4283 30.1519 35.3788 30.0989 35.33 30.0453C35.2812 29.9916 35.233 29.9373 35.1854 29.8825C35.1379 29.8277 35.091 29.7723 35.0448 29.7162C34.9986 29.6603 34.9531 29.6037 34.9083 29.5466C34.8635 29.4895 34.8194 29.4318 34.7759 29.3735C34.7326 29.3153 34.6899 29.2566 34.6479 29.1973C34.6059 29.138 34.5646 29.0782 34.524 29.0179C34.4835 28.9576 34.4437 28.8968 34.4046 28.8355C34.3655 28.7742 34.3272 28.7125 34.2897 28.6503C34.2521 28.588 34.2153 28.5253 34.1792 28.4622C34.1432 28.399 34.1079 28.3354 34.0734 28.2714C34.0389 28.2073 34.0051 28.1429 33.9722 28.078C33.9393 28.0131 33.9071 27.9479 33.8758 27.8823C33.8444 27.8166 33.8138 27.7505 33.784 27.6841C33.7543 27.6177 33.7254 27.5509 33.6972 27.4837C33.6691 27.4166 33.6418 27.3491 33.6152 27.2813C33.5887 27.2135 33.5631 27.1454 33.5382 27.0769C33.5134 27.0084 33.4894 26.9397 33.4662 26.8707C33.443 26.8016 33.4206 26.7323 33.3992 26.6626C33.3776 26.5931 33.357 26.5232 33.3372 26.4531C33.3174 26.383 33.2984 26.3127 33.2803 26.2421C33.2622 26.1715 33.245 26.1007 33.2287 26.0297C33.2123 25.9586 33.1967 25.8874 33.1821 25.816C33.1674 25.7446 33.1536 25.673 33.1407 25.6013C33.1278 25.5296 33.1157 25.4577 33.1045 25.3857C33.0934 25.3136 33.0831 25.2415 33.0736 25.1692C33.0642 25.0969 33.0556 25.0245 33.048 24.9519C33.0403 24.8794 33.0335 24.8069 33.0276 24.7342C32.8445 22.3112 33.5738 19.956 35.1478 18.1099C36.7089 16.279 38.8919 15.2032 41.2679 15.0225Z" fill="url(#paint2_linear_9010_14683)" fill-opacity="0.4"/>
</g>
<path d="M42.4919 19.5423C42.581 19.5348 42.67 19.5354 42.759 19.5443C42.8479 19.5533 42.9353 19.5703 43.0211 19.5954C43.4086 19.7087 43.709 19.9664 43.8999 20.3237C44.0018 20.5144 44.0233 20.7604 44.0372 20.9742C44.1014 21.9582 44.0496 22.9788 44.0496 23.9664C44.0496 24.9545 44.1 25.9741 44.0373 26.959C44.0259 27.1396 44.0063 27.343 43.9478 27.5148C43.8318 27.8556 43.5075 28.144 43.1898 28.288C42.8343 28.4492 42.4837 28.445 42.1232 28.3005C41.7137 28.1364 41.4803 27.8414 41.3108 27.4444C41.135 26.7726 41.2288 25.0428 41.2281 24.2663C41.0715 24.359 40.9049 24.4404 40.7276 24.4839C40.6815 24.4954 40.635 24.5045 40.5881 24.5112C40.5411 24.518 40.494 24.5224 40.4467 24.5243C40.3993 24.5262 40.3519 24.5257 40.3045 24.5228C40.2572 24.5199 40.2101 24.5146 40.1634 24.5069C40.1165 24.4992 40.0702 24.4891 40.0244 24.4767C39.9787 24.4642 39.9336 24.4495 39.8892 24.4324C39.8449 24.4154 39.8015 24.3961 39.7592 24.3747C39.7168 24.3532 39.6756 24.3296 39.6355 24.3039C39.5971 24.2797 39.5599 24.2537 39.5241 24.2259C39.4881 24.198 39.4537 24.1683 39.4208 24.1369C39.3878 24.1055 39.3565 24.0725 39.3269 24.038C39.2972 24.0034 39.2693 23.9674 39.2431 23.93C39.217 23.8926 39.1928 23.8541 39.1705 23.8142C39.1482 23.7744 39.1279 23.7335 39.1097 23.6917C39.0914 23.6497 39.0753 23.607 39.0612 23.5636C39.0472 23.52 39.0353 23.4759 39.0257 23.4312C38.9547 23.0987 38.9929 22.7009 39.176 22.4124C39.435 22.0042 41.4289 20.0768 41.8673 19.7794C42.0642 19.6458 42.2648 19.594 42.4919 19.5423Z" fill="#F8F8F8"/>
<defs>
<filter id="filter0_bi_9010_14683" x="-13" y="3.5" width="74" height="68" filterUnits="userSpaceOnUse" color-interpolation-filters="sRGB">
<feFlood flood-opacity="0" result="BackgroundImageFix"/>
<feGaussianBlur in="BackgroundImageFix" stdDeviation="8"/>
<feComposite in2="SourceAlpha" operator="in" result="effect1_backgroundBlur_9010_14683"/>
<feBlend mode="normal" in="SourceGraphic" in2="effect1_backgroundBlur_9010_14683" result="shape"/>
<feColorMatrix in="SourceAlpha" type="matrix" values="0 0 0 0 0 0 0 0 0 0 0 0 0 0 0 0 0 0 127 0" result="hardAlpha"/>
<feOffset/>
<feGaussianBlur stdDeviation="8"/>
<feComposite in2="hardAlpha" operator="arithmetic" k2="-1" k3="1"/>
<feColorMatrix type="matrix" values="0 0 0 0 1 0 0 0 0 1 0 0 0 0 1 0 0 0 1 0"/>
<feBlend mode="normal" in2="shape" result="effect2_innerShadow_9010_14683"/>
</filter>
<filter id="filter1_bi_9010_14683" x="13" y="-5" width="57.7324" height="57.9492" filterUnits="userSpaceOnUse" color-interpolation-filters="sRGB">
<feFlood flood-opacity="0" result="BackgroundImageFix"/>
<feGaussianBlur in="BackgroundImageFix" stdDeviation="10"/>
<feComposite in2="SourceAlpha" operator="in" result="effect1_backgroundBlur_9010_14683"/>
<feBlend mode="normal" in="SourceGraphic" in2="effect1_backgroundBlur_9010_14683" result="shape"/>
<feColorMatrix in="SourceAlpha" type="matrix" values="0 0 0 0 0 0 0 0 0 0 0 0 0 0 0 0 0 0 127 0" result="hardAlpha"/>
<feOffset/>
<feGaussianBlur stdDeviation="8"/>
<feComposite in2="hardAlpha" operator="arithmetic" k2="-1" k3="1"/>
<feColorMatrix type="matrix" values="0 0 0 0 1 0 0 0 0 1 0 0 0 0 1 0 0 0 1 0"/>
<feBlend mode="normal" in2="shape" result="effect2_innerShadow_9010_14683"/>
</filter>
<linearGradient id="paint0_linear_9010_14683" x1="36" y1="6" x2="36" y2="42" gradientUnits="userSpaceOnUse">
<stop stop-color="#189BDC"/>
<stop offset="1" stop-color="#133A86"/>
</linearGradient>
<linearGradient id="paint1_linear_9010_14683" x1="24" y1="19.5" x2="24" y2="55.5" gradientUnits="userSpaceOnUse">
<stop stop-color="#67CFE4"/>
<stop offset="1" stop-color="#189BDC"/>
</linearGradient>
<linearGradient id="paint2_linear_9010_14683" x1="41.8661" y1="15" x2="41.8661" y2="32.9493" gradientUnits="userSpaceOnUse">
<stop stop-color="#67CFE4"/>
<stop offset="1" stop-color="#189BDC"/>
</linearGradient>
</defs>
</svg>
