<svg width="24" height="24" viewBox="0 0 24 24" fill="none" xmlns="http://www.w3.org/2000/svg">
<path d="M12.0273 -1.52588e-05H11.9727C5.36034 -1.52588e-05 0 5.36033 0 11.9727V12.0273C0 18.6396 5.36034 24 11.9727 24H12.0273C18.6396 24 24 18.6396 24 12.0273V11.9727C24 5.36033 18.6396 -1.52588e-05 12.0273 -1.52588e-05Z" fill="black"/>
<path d="M11.071 12.4521C10.8625 12.1906 10.6237 11.9904 10.3563 11.8551C10.5925 11.7113 10.796 11.5347 10.9642 11.3245C11.2476 10.9697 11.3913 10.5249 11.3913 10.0019C11.3913 9.56548 11.2761 9.1644 11.0483 8.8104C10.8213 8.45641 10.4832 8.17221 10.0435 7.96536C9.61297 7.76272 9.09417 7.66014 8.50307 7.66014H5.14056V16.3435H8.65778C9.23375 16.3435 9.74835 16.2383 10.1864 16.0315C10.6329 15.8213 10.981 15.527 11.2198 15.1579C11.4594 14.7871 11.5814 14.3658 11.5814 13.9059C11.5814 13.3669 11.4098 12.8784 11.071 12.4529V12.4521ZM9.28504 10.8696C9.07736 11.0378 8.77382 11.1235 8.38451 11.1235H6.92986V9.19971H8.38451C8.77213 9.19971 9.07399 9.288 9.28168 9.46289C9.48096 9.63022 9.57766 9.86145 9.57766 10.1675C9.57766 10.4736 9.4818 10.7107 9.28504 10.8696ZM6.92986 12.664H8.4913C8.89994 12.664 9.21441 12.7632 9.45237 12.9675C9.68024 13.1634 9.79123 13.4232 9.79123 13.7629C9.79123 14.1026 9.68865 14.3423 9.47676 14.5214C9.2573 14.7072 8.94198 14.8014 8.53838 14.8014H6.92986V12.664Z" fill="white"/>
<path d="M18.4518 10.9997C18.181 10.5103 17.7976 10.1243 17.3116 9.85359C16.8264 9.58284 16.2656 9.44579 15.6467 9.44579C15.0279 9.44579 14.425 9.58705 13.9281 9.86536C13.4303 10.1445 13.0385 10.5456 12.7644 11.0594C12.4902 11.5723 12.3515 12.1743 12.3515 12.8486C12.3515 13.523 12.4944 14.1259 12.777 14.638C13.0595 15.1509 13.4547 15.5545 13.9525 15.837C14.4494 16.1195 15.0195 16.2624 15.6476 16.2624C16.4186 16.2624 17.0736 16.0665 17.595 15.6806C18.1163 15.2946 18.4812 14.7918 18.6805 14.1873L18.6948 14.1444H17.1695L17.1602 14.1629C16.8668 14.7573 16.3581 15.0584 15.6467 15.0584C15.1515 15.0584 14.7277 14.9011 14.3872 14.5925C14.055 14.2907 13.8642 13.8871 13.8196 13.3918H18.8074L18.8116 13.3641C18.8436 13.1648 18.8596 12.9395 18.8596 12.6948C18.8596 12.0591 18.7225 11.489 18.4518 10.9997ZM14.4107 11.0871C14.7353 10.797 15.1313 10.6507 15.587 10.6507C16.0907 10.6507 16.5187 10.7995 16.8592 11.0938C17.1905 11.3797 17.3662 11.764 17.3814 12.2348H13.8339C13.9012 11.7564 14.0954 11.3705 14.4116 11.0879L14.4107 11.0871Z" fill="white"/>
<path d="M17.2674 7.85936H13.9453V8.64638H17.2674V7.85936Z" fill="white"/>
</svg>
