<svg width="24" height="24" viewBox="0 0 24 24" fill="none" xmlns="http://www.w3.org/2000/svg">
<path d="M12.0273 0H11.9727C5.36035 0 0 5.36034 0 11.9727V12.0273C0 18.6396 5.36035 24 11.9727 24H12.0273C18.6396 24 24 18.6396 24 12.0273V11.9727C24 5.36034 18.6396 0 12.0273 0Z" fill="url(#paint0_linear_7033_21856)"/>
<path d="M15.7134 4.88281H8.28717C6.23553 4.88281 4.56647 6.55187 4.56647 8.60351V15.3975C4.56647 17.4491 6.23553 19.1182 8.28717 19.1182H15.7134C17.7651 19.1182 19.4341 17.4491 19.4341 15.3975V8.60351C19.4341 6.55187 17.7651 4.88281 15.7134 4.88281ZM5.87901 8.60351C5.87901 7.27583 6.95949 6.19536 8.28717 6.19536H15.7134C17.0411 6.19536 18.1216 7.27583 18.1216 8.60351V15.3975C18.1216 16.7251 17.0411 17.8056 15.7134 17.8056H8.28717C6.95949 17.8056 5.87901 16.7251 5.87901 15.3975V8.60351Z" fill="white"/>
<path d="M12 15.4603C13.9079 15.4603 15.4609 13.9081 15.4609 11.9994C15.4609 10.0908 13.9087 8.53857 12 8.53857C10.0913 8.53857 8.53912 10.0908 8.53912 11.9994C8.53912 13.9081 10.0913 15.4603 12 15.4603ZM12 9.85195C13.1847 9.85195 14.1483 10.8156 14.1483 12.0003C14.1483 13.185 13.1847 14.1486 12 14.1486C10.8153 14.1486 9.85167 13.185 9.85167 12.0003C9.85167 10.8156 10.8153 9.85195 12 9.85195Z" fill="white"/>
<path d="M15.7841 9.09788C16.2979 9.09788 16.7166 8.67998 16.7166 8.16539C16.7166 7.6508 16.2987 7.2329 15.7841 7.2329C15.2695 7.2329 14.8516 7.6508 14.8516 8.16539C14.8516 8.67998 15.2695 9.09788 15.7841 9.09788Z" fill="white"/>
<defs>
<linearGradient id="paint0_linear_7033_21856" x1="3.50629" y1="20.4937" x2="20.4937" y2="3.50713" gradientUnits="userSpaceOnUse">
<stop stop-color="#FAAD4F"/>
<stop offset="0.35" stop-color="#DD2A7B"/>
<stop offset="0.62" stop-color="#9537B0"/>
<stop offset="1" stop-color="#515BD4"/>
</linearGradient>
</defs>
</svg>
