<svg width="24" height="24" viewBox="0 0 24 24" fill="none" xmlns="http://www.w3.org/2000/svg">
<path d="M12.0272 -1.52588e-05H11.9726C5.36028 -1.52588e-05 -6.10352e-05 5.36033 -6.10352e-05 11.9727V12.0273C-6.10352e-05 18.6396 5.36028 24 11.9726 24H12.0272C18.6396 24 23.9999 18.6396 23.9999 12.0273V11.9727C23.9999 5.36033 18.6396 -1.52588e-05 12.0272 -1.52588e-05Z" fill="black"/>
<path d="M15.9552 19.875H13.3251C10.9565 19.875 9.19153 18.6566 9.19153 15.7414V11.0731H7.039V8.54553C9.40764 7.93088 10.3981 5.89185 10.5125 4.12694H12.9719V8.1352H15.8417V11.0731H12.9719V15.1385C12.9719 16.3569 13.5866 16.7782 14.5662 16.7782H15.9552V19.8758V19.875Z" fill="white"/>
</svg>
