<svg width="24" height="24" viewBox="0 0 24 24" fill="none" xmlns="http://www.w3.org/2000/svg">
<path d="M23.9982 12.0004C23.9982 18.0612 19.5058 23.0717 13.6698 23.8848C13.1241 23.9605 12.5658 24 11.9991 24C11.3449 24 10.7026 23.9479 10.077 23.847C4.36372 22.9271 -6.10352e-05 17.9729 -6.10352e-05 12.0004C-6.10352e-05 5.37294 5.37269 0 11.9999 0C18.6272 0 23.9999 5.37294 23.9999 12.0004H23.9982Z" fill="#1C1C1B"/>
<path d="M4.86651 5.29248L10.4007 12.6918L4.83203 18.708H6.08568L10.9615 13.441L14.9007 18.708H19.1661L13.3208 10.8924L18.5044 5.29248H17.2507L12.7608 10.1433L9.13276 5.29248H4.86734H4.86651ZM6.70955 6.21572H8.66863L17.3214 17.7848H15.3623L6.70955 6.21572Z" fill="white"/>
</svg>
