<svg width="24" height="24" viewBox="0 0 24 24" fill="none" xmlns="http://www.w3.org/2000/svg">
<rect x="-6.10352e-05" y="-1.52588e-05" width="24" height="24" rx="12" fill="#0579C3"/>
<g clip-path="url(#clip0_7033_21935)">
<path fill-rule="evenodd" clip-rule="evenodd" d="M12.2204 5.88588L17.5329 8.85463C17.6889 8.93249 17.8201 9.05228 17.9117 9.20055C18.0033 9.34882 18.0518 9.5197 18.0517 9.69401V10.594C18.0517 11.0253 17.7017 11.3753 17.2704 11.3753H16.8017V16.3753H17.4267C17.5925 16.3753 17.7514 16.4411 17.8686 16.5583C17.9858 16.6755 18.0517 16.8345 18.0517 17.0003C18.0517 17.166 17.9858 17.325 17.8686 17.4422C17.7514 17.5594 17.5925 17.6253 17.4267 17.6253H6.1767C6.01094 17.6253 5.85197 17.5594 5.73476 17.4422C5.61754 17.325 5.5517 17.166 5.5517 17.0003C5.5517 16.8345 5.61754 16.6755 5.73476 16.5583C5.85197 16.4411 6.01094 16.3753 6.1767 16.3753H6.8017V11.3753H6.33295C5.9017 11.3753 5.5517 11.0253 5.5517 10.594V9.69401C5.5517 9.36776 5.72045 9.06776 5.99295 8.89776L11.3823 5.88588C11.5125 5.82076 11.6561 5.78685 11.8017 5.78685C11.9473 5.78685 12.0902 5.82076 12.2204 5.88588ZM14.9267 11.3753H8.6767V16.3753H9.9267V12.6253H11.1767V16.3753H12.4267V12.6253H13.6767V16.3753H14.9267V11.3753ZM11.8017 8.25026C11.6359 8.25026 11.477 8.3161 11.3598 8.43331C11.2425 8.55052 11.1767 8.7095 11.1767 8.87526C11.1767 9.04102 11.2425 9.19999 11.3598 9.3172C11.477 9.43441 11.6359 9.50026 11.8017 9.50026C11.9675 9.50026 12.1264 9.43441 12.2436 9.3172C12.3608 9.19999 12.4267 9.04102 12.4267 8.87526C12.4267 8.7095 12.3608 8.55052 12.2436 8.43331C12.1264 8.3161 11.9675 8.25026 11.8017 8.25026Z" fill="white"/>
</g>
<defs>
<clipPath id="clip0_7033_21935">
<rect width="15" height="15" fill="white" transform="translate(4.30072 4.49998)"/>
</clipPath>
</defs>
</svg>
