<svg width="24" height="24" viewBox="0 0 24 24" fill="none" xmlns="http://www.w3.org/2000/svg">
<rect y="-1.52588e-05" width="24" height="24" rx="12" fill="#E4A11C"/>
<g clip-path="url(#clip0_7033_21952)">
<path fill-rule="evenodd" clip-rule="evenodd" d="M11.6677 3.66615C16.2702 3.66615 20.001 7.39699 20.001 11.9995C20.001 16.602 16.2702 20.3328 11.6677 20.3328C7.06518 20.3328 3.33435 16.602 3.33435 11.9995C3.33435 7.39699 7.06518 3.66615 11.6677 3.66615ZM11.6677 5.33282C9.89957 5.33282 8.20388 6.0352 6.95364 7.28544C5.7034 8.53568 5.00102 10.2314 5.00102 11.9995C5.00102 13.7676 5.7034 15.4633 6.95364 16.7135C8.20388 17.9638 9.89957 18.6662 11.6677 18.6662C13.4358 18.6662 15.1315 17.9638 16.3817 16.7135C17.632 15.4633 18.3344 13.7676 18.3344 11.9995C18.3344 10.2314 17.632 8.53568 16.3817 7.28544C15.1315 6.0352 13.4358 5.33282 11.6677 5.33282ZM10.4894 8.46365C10.7844 8.16881 11.1792 7.99532 11.596 7.97742C12.0127 7.95952 12.421 8.09853 12.7402 8.36699L12.846 8.46365L15.2035 10.8212C15.4984 11.1162 15.6719 11.511 15.6897 11.9278C15.7076 12.3445 15.5686 12.7528 15.3002 13.072L15.2035 13.1778L12.846 15.5353C12.551 15.8302 12.1561 16.0037 11.7394 16.0216C11.3227 16.0394 10.9144 15.9004 10.5952 15.632L10.4894 15.5353L8.13185 13.1778C7.83701 12.8828 7.66352 12.4879 7.64562 12.0712C7.62772 11.6545 7.76673 11.2462 8.03518 10.927L8.13185 10.8212L10.4894 8.46365ZM11.6677 9.64282L9.31102 11.9995L11.6677 14.3562L14.0244 11.9995L11.6677 9.64282Z" fill="white"/>
</g>
<defs>
<clipPath id="clip0_7033_21952">
<rect width="20" height="20" fill="white" transform="translate(1.66699 1.99998)"/>
</clipPath>
</defs>
</svg>
