<svg width="24" height="24" viewBox="0 0 24 24" fill="none" xmlns="http://www.w3.org/2000/svg">
<path d="M12.0273 -1.52588e-05H11.9727C5.36034 -1.52588e-05 0 5.36033 0 11.9727V12.0273C0 18.6396 5.36034 24 11.9727 24H12.0273C18.6396 24 24 18.6396 24 12.0273V11.9727C24 5.36033 18.6396 -1.52588e-05 12.0273 -1.52588e-05Z" fill="#A544FF"/>
<path d="M8.25896 5.7495L5.58594 8.42252V18.0442H8.7929V20.7172L11.4659 18.0442H13.6042L18.4154 13.2329V5.7495H8.25896ZM17.3459 12.6982L15.2076 14.8364H13.0694L11.1985 16.7073V14.8364H8.7929V6.8182H17.3459V12.6982Z" fill="white"/>
<path d="M15.7406 8.68993H14.6719V11.8969H15.7406V8.68993Z" fill="white"/>
<path d="M12.8031 8.68993H11.7344V11.8969H12.8031V8.68993Z" fill="white"/>
</svg>
