<svg width="60" height="60" viewBox="0 0 60 60" fill="none" xmlns="http://www.w3.org/2000/svg">
<path d="M53.8294 44.4691C55.9057 40.9995 57.0749 36.9238 56.9966 32.5699C56.7873 20.6855 47.1588 10.9193 35.2771 10.552C22.3248 10.1511 11.7432 20.7341 12.1428 33.6864C12.51 45.5667 22.2762 55.1952 34.162 55.4058C38.5172 55.4828 42.5916 54.3136 46.0612 52.2359C46.5013 51.9754 47.04 51.9295 47.5233 52.0996L53.5499 54.2043C54.9432 54.6889 56.2824 53.3511 55.7964 51.9578L53.689 45.9326C53.5229 45.4479 53.5661 44.9092 53.8294 44.4691Z" fill="url(#paint0_linear_9034_21097)"/>
<g filter="url(#filter0_bi_9034_21097)">
<path d="M25.4336 50.8673C37.8234 50.8673 47.8673 40.8234 47.8673 28.4336C47.8673 16.0439 37.8234 6 25.4336 6C13.0439 6 3 16.0439 3 28.4336C3 40.8234 13.0439 50.8673 25.4336 50.8673Z" fill="url(#paint1_linear_9034_21097)" fill-opacity="0.4"/>
</g>
<path d="M14.7028 32.181C16.7726 32.181 18.4505 30.5031 18.4505 28.4333C18.4505 26.3635 16.7726 24.6855 14.7028 24.6855C12.633 24.6855 10.9551 26.3635 10.9551 28.4333C10.9551 30.5031 12.633 32.181 14.7028 32.181Z" fill="white"/>
<path d="M25.4339 32.1802C27.5029 32.1802 29.1802 30.5029 29.1802 28.4339C29.1802 26.3648 27.5029 24.6875 25.4339 24.6875C23.3648 24.6875 21.6875 26.3648 21.6875 28.4339C21.6875 30.5029 23.3648 32.1802 25.4339 32.1802Z" fill="white"/>
<path d="M36.1637 32.181C38.2335 32.181 39.9114 30.5031 39.9114 28.4333C39.9114 26.3635 38.2335 24.6855 36.1637 24.6855C34.0939 24.6855 32.416 26.3635 32.416 28.4333C32.416 30.5031 34.0939 32.181 36.1637 32.181Z" fill="white"/>
<defs>
<filter id="filter0_bi_9034_21097" x="-27" y="-24" width="104.867" height="104.867" filterUnits="userSpaceOnUse" color-interpolation-filters="sRGB">
<feFlood flood-opacity="0" result="BackgroundImageFix"/>
<feGaussianBlur in="BackgroundImageFix" stdDeviation="15"/>
<feComposite in2="SourceAlpha" operator="in" result="effect1_backgroundBlur_9034_21097"/>
<feBlend mode="normal" in="SourceGraphic" in2="effect1_backgroundBlur_9034_21097" result="shape"/>
<feColorMatrix in="SourceAlpha" type="matrix" values="0 0 0 0 0 0 0 0 0 0 0 0 0 0 0 0 0 0 127 0" result="hardAlpha"/>
<feOffset/>
<feGaussianBlur stdDeviation="12"/>
<feComposite in2="hardAlpha" operator="arithmetic" k2="-1" k3="1"/>
<feColorMatrix type="matrix" values="0 0 0 0 1 0 0 0 0 1 0 0 0 0 1 0 0 0 0.8 0"/>
<feBlend mode="normal" in2="shape" result="effect2_innerShadow_9034_21097"/>
</filter>
<linearGradient id="paint0_linear_9034_21097" x1="34.5661" y1="10.541" x2="34.5661" y2="55.4094" gradientUnits="userSpaceOnUse">
<stop stop-color="#189BDC"/>
<stop offset="1" stop-color="#133A86"/>
</linearGradient>
<linearGradient id="paint1_linear_9034_21097" x1="25.4336" y1="6" x2="25.4336" y2="50.8673" gradientUnits="userSpaceOnUse">
<stop stop-color="#67CFE4"/>
<stop offset="1" stop-color="#189BDC"/>
</linearGradient>
</defs>
</svg>
