<svg width="115" height="96" viewBox="0 0 115 96" fill="none" xmlns="http://www.w3.org/2000/svg">
<g filter="url(#filter0_d_9010_7473)">
<path d="M81.1624 54.9691C83.2387 51.4995 84.4079 47.4238 84.3296 43.0699C84.1203 31.1855 74.4918 21.4193 62.6101 21.052C49.6578 20.6511 39.0762 31.2341 39.4758 44.1864C39.843 56.0667 49.6092 65.6952 61.495 65.9058C65.8502 65.9828 69.9246 64.8136 73.3942 62.7359C73.8344 62.4754 74.373 62.4295 74.8563 62.5996L80.8829 64.7043C82.2762 65.1889 83.6154 63.8511 83.1294 62.4578L81.022 56.4326C80.8559 55.9479 80.8991 55.4092 81.1624 54.9691Z" fill="url(#paint0_linear_9010_7473)"/>
<g filter="url(#filter1_bi_9010_7473)">
<path d="M52.7666 61.3673C65.1564 61.3673 75.2003 51.3234 75.2003 38.9336C75.2003 26.5439 65.1564 16.5 52.7666 16.5C40.3769 16.5 30.333 26.5439 30.333 38.9336C30.333 51.3234 40.3769 61.3673 52.7666 61.3673Z" fill="url(#paint1_linear_9010_7473)" fill-opacity="0.4"/>
</g>
<path d="M42.0368 42.681C44.1066 42.681 45.7845 41.0031 45.7845 38.9333C45.7845 36.8635 44.1066 35.1855 42.0368 35.1855C39.967 35.1855 38.2891 36.8635 38.2891 38.9333C38.2891 41.0031 39.967 42.681 42.0368 42.681Z" fill="white"/>
<path d="M52.7669 42.6797C54.8359 42.6797 56.5132 41.0024 56.5132 38.9334C56.5132 36.8643 54.8359 35.187 52.7669 35.187C50.6978 35.187 49.0205 36.8643 49.0205 38.9334C49.0205 41.0024 50.6978 42.6797 52.7669 42.6797Z" fill="white"/>
<path d="M63.4967 42.681C65.5665 42.681 67.2445 41.0031 67.2445 38.9333C67.2445 36.8635 65.5665 35.1855 63.4967 35.1855C61.4269 35.1855 59.749 36.8635 59.749 38.9333C59.749 41.0031 61.4269 42.681 63.4967 42.681Z" fill="white"/>
</g>
<defs>
<filter id="filter0_d_9010_7473" x="-2.66699" y="-19.5" width="120" height="120" filterUnits="userSpaceOnUse" color-interpolation-filters="sRGB">
<feFlood flood-opacity="0" result="BackgroundImageFix"/>
<feColorMatrix in="SourceAlpha" type="matrix" values="0 0 0 0 0 0 0 0 0 0 0 0 0 0 0 0 0 0 127 0" result="hardAlpha"/>
<feOffset/>
<feGaussianBlur stdDeviation="15"/>
<feComposite in2="hardAlpha" operator="out"/>
<feColorMatrix type="matrix" values="0 0 0 0 1 0 0 0 0 1 0 0 0 0 1 0 0 0 1 0"/>
<feBlend mode="normal" in2="BackgroundImageFix" result="effect1_dropShadow_9010_7473"/>
<feBlend mode="normal" in="SourceGraphic" in2="effect1_dropShadow_9010_7473" result="shape"/>
</filter>
<filter id="filter1_bi_9010_7473" x="0.333008" y="-13.5" width="104.867" height="104.867" filterUnits="userSpaceOnUse" color-interpolation-filters="sRGB">
<feFlood flood-opacity="0" result="BackgroundImageFix"/>
<feGaussianBlur in="BackgroundImageFix" stdDeviation="15"/>
<feComposite in2="SourceAlpha" operator="in" result="effect1_backgroundBlur_9010_7473"/>
<feBlend mode="normal" in="SourceGraphic" in2="effect1_backgroundBlur_9010_7473" result="shape"/>
<feColorMatrix in="SourceAlpha" type="matrix" values="0 0 0 0 0 0 0 0 0 0 0 0 0 0 0 0 0 0 127 0" result="hardAlpha"/>
<feOffset/>
<feGaussianBlur stdDeviation="12"/>
<feComposite in2="hardAlpha" operator="arithmetic" k2="-1" k3="1"/>
<feColorMatrix type="matrix" values="0 0 0 0 1 0 0 0 0 1 0 0 0 0 1 0 0 0 0.8 0"/>
<feBlend mode="normal" in2="shape" result="effect2_innerShadow_9010_7473"/>
</filter>
<linearGradient id="paint0_linear_9010_7473" x1="61.8991" y1="21.041" x2="61.8991" y2="65.9094" gradientUnits="userSpaceOnUse">
<stop stop-color="#189BDC"/>
<stop offset="1" stop-color="#133A86"/>
</linearGradient>
<linearGradient id="paint1_linear_9010_7473" x1="52.7666" y1="16.5" x2="52.7666" y2="61.3673" gradientUnits="userSpaceOnUse">
<stop stop-color="#67CFE4"/>
<stop offset="1" stop-color="#189BDC"/>
</linearGradient>
</defs>
</svg>
