<svg width="441" height="446" viewBox="0 0 441 446" fill="none" xmlns="http://www.w3.org/2000/svg">
<path d="M-156 72.3789C-149.688 60.4556 -131.742 52.0218 -120.652 46.9966C-85.0774 30.8768 -46.1578 20.7388 -7.96451 13.267C35.6894 4.72681 84.6999 -3.9854 129.168 4.40867C184.276 14.8109 233.809 59.9573 238.875 117.522C242.463 158.295 226.379 217.791 181.126 229.443C167.721 232.895 147.488 232.347 134.62 226.717C115.499 218.352 108.053 198.044 127.976 185.066C161.708 163.095 209.38 178.833 241.26 195.202C291.052 220.769 335.306 260.687 368.086 305.761C390.571 336.676 400.009 374.001 416.552 407.971C421.957 419.072 429.102 438.159 440.401 444.938" stroke="#A7B8BE" stroke-dasharray="8 8"/>
</svg>
