<svg width="32" height="33" viewBox="0 0 32 33" fill="none" xmlns="http://www.w3.org/2000/svg">
<path fill-rule="evenodd" clip-rule="evenodd" d="M9.4989 2.03032L9.52671 2.02775C9.94793 1.99133 10.3819 1.99869 10.8115 2.00598C10.9834 2.0089 11.1545 2.0118 11.3239 2.01189L14.6307 2.01212L19.728 2.01138C19.9783 2.01134 20.2296 2.00897 20.4814 2.0066C21.6589 1.99551 22.849 1.98431 24.003 2.21053C25.2581 2.45656 26.4694 2.97794 27.4484 3.80983C29.0341 5.15729 29.7855 7.13257 29.9488 9.16792C30.0068 9.88987 30.0021 10.6181 29.9975 11.344V11.344C29.9962 11.5379 29.995 11.7316 29.995 11.9249L29.9949 15.9722L29.995 20.0387C29.995 20.2277 29.9962 20.417 29.9973 20.6063V20.6063C30.0042 21.7535 30.0111 22.9042 29.7836 24.0335C29.5303 25.2909 29.0131 26.4899 28.1755 27.4699C26.7175 29.1758 24.7064 29.8052 22.5357 29.9737C21.9944 30.0091 21.4436 30.003 20.8965 29.9969C20.6873 29.9946 20.4786 29.9923 20.2711 29.9923L16.165 29.9919L11.9452 29.9926C11.7418 29.9926 11.5382 29.994 11.3344 29.9954C10.2199 30.003 9.10074 30.0107 8.00431 29.7915C6.70937 29.5326 5.48329 29.009 4.48165 28.1361C2.87687 26.7376 2.1705 24.7058 2.03297 22.6279C1.99264 22.0182 1.99832 21.4002 2.00397 20.7853C2.00593 20.5722 2.00788 20.3595 2.00791 20.1477L2.00818 16.0314L2.00785 11.9276C2.00785 11.7288 2.00657 11.5298 2.00529 11.3307C1.998 10.1933 1.99068 9.05295 2.2212 7.93392C2.48414 6.65788 3.01992 5.44651 3.88468 4.46336C5.32562 2.82514 7.37783 2.16745 9.4989 2.03032ZM12.2234 8.49564C12.2854 8.49091 12.3478 8.48626 12.4101 8.48613C12.6824 8.48567 12.9596 8.58804 13.1536 8.78138C13.1782 8.80617 13.2016 8.8321 13.2237 8.85916C13.2457 8.88627 13.2663 8.91438 13.2856 8.9435C13.3049 8.97266 13.3226 9.0027 13.3389 9.03361C13.3552 9.06452 13.3698 9.09615 13.383 9.12851C13.3961 9.16086 13.4076 9.19381 13.4175 9.22734C13.4273 9.26083 13.4355 9.29474 13.4419 9.32906C13.4484 9.36338 13.4532 9.39794 13.4562 9.43274C13.4593 9.46755 13.4606 9.50241 13.4602 9.53735C13.4581 9.7074 13.4167 9.90166 13.3233 10.0459C13.1423 10.3253 12.809 10.6412 12.5142 10.9206L12.5142 10.9206C12.4122 11.0173 12.3148 11.1096 12.2299 11.1945L10.1879 13.2357C9.907 13.513 9.65403 13.7283 9.23965 13.7215C8.84312 13.715 8.59336 13.4851 8.33154 13.218C8.24464 13.1284 8.1429 13.0345 8.03635 12.9362C7.63486 12.5657 7.16496 12.1321 7.16278 11.6251C7.16274 11.5912 7.1644 11.5574 7.16777 11.5237C7.17109 11.49 7.17608 11.4565 7.18272 11.4233C7.18937 11.3901 7.19763 11.3573 7.20751 11.3249C7.2174 11.2925 7.22887 11.2606 7.24195 11.2294C7.25502 11.1981 7.26958 11.1676 7.28563 11.1378C7.30172 11.1079 7.31925 11.079 7.33823 11.0509C7.35716 11.0229 7.37745 10.9958 7.39909 10.9697C7.42074 10.9436 7.4436 10.9187 7.4677 10.8949C7.49231 10.8701 7.51809 10.8465 7.54502 10.8242C7.572 10.802 7.60001 10.7811 7.62904 10.7616C7.65812 10.7422 7.68807 10.7242 7.71889 10.7077C7.74972 10.6912 7.78131 10.6763 7.81367 10.663C7.84598 10.6497 7.87888 10.638 7.91237 10.628C7.94587 10.618 7.97978 10.6096 8.0141 10.603C8.04847 10.5964 8.08305 10.5914 8.11786 10.5882C8.15266 10.585 8.18755 10.5836 8.22253 10.5839C8.67222 10.5871 8.93161 10.849 9.2222 11.1423L9.27028 11.1908L10.8958 9.56043C10.9712 9.48483 11.0467 9.40599 11.1229 9.32642L11.1229 9.32636C11.3434 9.09598 11.5698 8.85949 11.8189 8.67763C11.949 8.58273 12.0691 8.53781 12.2234 8.49564ZM12.3746 18.2754C12.3482 18.276 12.322 18.2775 12.2958 18.28C12.1 18.3193 11.9601 18.3718 11.7971 18.4891C11.5594 18.6603 11.3432 18.8876 11.1332 19.1082C11.0575 19.1878 10.9826 19.2665 10.9078 19.3414L9.26903 20.9833C8.97225 20.6795 8.68334 20.3863 8.22967 20.3775C8.19509 20.3767 8.16057 20.3776 8.12611 20.3802C8.09161 20.3829 8.05733 20.3872 8.02327 20.3933C7.98921 20.3993 7.95554 20.4071 7.92227 20.4165C7.889 20.4259 7.85627 20.437 7.82409 20.4496C7.7919 20.4623 7.76042 20.4765 7.72964 20.4924C7.6989 20.5082 7.66902 20.5255 7.63998 20.5443C7.61095 20.5631 7.58292 20.5833 7.5559 20.6048C7.52888 20.6264 7.503 20.6493 7.47825 20.6735C7.45372 20.6977 7.43046 20.7231 7.40846 20.7496C7.38647 20.7761 7.36583 20.8036 7.34655 20.8321C7.32727 20.8607 7.30943 20.8901 7.29303 20.9205C7.27668 20.9508 7.26186 20.9818 7.24856 21.0136C7.23527 21.0454 7.22357 21.0777 7.21347 21.1107C7.20333 21.1436 7.19487 21.1769 7.18809 21.2107C7.18127 21.2445 7.17615 21.2785 7.17274 21.3128C7.16929 21.3471 7.16754 21.3814 7.1675 21.4159C7.16886 21.9287 7.62626 22.3503 8.02196 22.715C8.12119 22.8065 8.21655 22.8944 8.29985 22.9792C8.57138 23.2556 8.82494 23.5097 9.2386 23.517C9.6592 23.5244 9.91407 23.3026 10.1961 23.0244L12.2508 20.9712C12.338 20.884 12.4361 20.7914 12.5377 20.6954L12.5378 20.6954C12.8213 20.4277 13.133 20.1334 13.3162 19.8536C13.4106 19.7094 13.4595 19.5077 13.4621 19.3363C13.4661 19.0678 13.3483 18.765 13.1571 18.5749C12.9591 18.378 12.6515 18.2697 12.3746 18.2754ZM17.2053 20.365H17.2054L17.2056 20.365C17.3242 20.3668 17.4423 20.3685 17.5593 20.3687L19.8154 20.369L22.4069 20.3674C22.5422 20.3674 22.6784 20.3655 22.815 20.3637C23.1413 20.3593 23.4698 20.3548 23.7922 20.3749C23.9562 20.385 24.1079 20.4081 24.2554 20.4847C24.2872 20.5017 24.3181 20.5201 24.3481 20.5401C24.378 20.5601 24.4069 20.5815 24.4348 20.6044C24.4626 20.6272 24.4893 20.6514 24.5147 20.6769C24.5402 20.7024 24.5643 20.7291 24.5871 20.757C24.6099 20.7849 24.6313 20.8138 24.6512 20.8438C24.6711 20.8738 24.6895 20.9047 24.7064 20.9366C24.7232 20.9684 24.7384 21.001 24.7521 21.0343C24.7657 21.0677 24.7776 21.1016 24.7879 21.1362C24.8699 21.4143 24.8259 21.6913 24.6835 21.942C24.5244 22.2218 24.2781 22.3643 23.977 22.45C23.6576 22.4837 23.3261 22.4776 22.9989 22.4716C22.8751 22.4693 22.7518 22.4671 22.6301 22.467L20.2564 22.4666L17.7875 22.4653C17.6478 22.4659 17.506 22.4693 17.3636 22.4727C17.0429 22.4805 16.7187 22.4883 16.4062 22.4636C16.2204 22.4488 16.0494 22.4033 15.8891 22.3067C15.8593 22.2889 15.8304 22.2697 15.8025 22.249C15.7746 22.2284 15.7478 22.2063 15.7221 22.1829C15.6964 22.1595 15.672 22.1348 15.6488 22.1089C15.6257 22.0831 15.6039 22.0561 15.5834 22.028C15.563 21.9998 15.5441 21.9708 15.5266 21.9407C15.5091 21.9107 15.4932 21.8799 15.4789 21.8483C15.4646 21.8166 15.4519 21.7843 15.4409 21.7513C15.4298 21.7184 15.4204 21.685 15.4128 21.6511C15.4052 21.6179 15.3993 21.5844 15.3951 21.5505C15.3909 21.5167 15.3883 21.4828 15.3875 21.4487C15.3866 21.4146 15.3874 21.3806 15.3899 21.3466C15.3924 21.3126 15.3966 21.2788 15.4024 21.2452C15.4083 21.2116 15.4158 21.1784 15.4249 21.1456C15.4341 21.1128 15.4449 21.0805 15.4572 21.0487C15.4695 21.017 15.4834 20.9859 15.4988 20.9555C15.5143 20.9251 15.5312 20.8955 15.5495 20.8668C15.7248 20.5893 15.9722 20.4525 16.2841 20.3793C16.5868 20.3559 16.8976 20.3605 17.2053 20.365ZM19.5644 10.5639C18.5058 10.5552 17.4394 10.5464 16.3992 10.5778C16.0756 10.6129 15.8203 10.7194 15.6127 10.9791C15.5914 11.0058 15.5715 11.0334 15.5529 11.062C15.5344 11.0906 15.5173 11.1201 15.5017 11.1504C15.486 11.1807 15.4719 11.2117 15.4594 11.2434C15.4468 11.2752 15.4359 11.3074 15.4266 11.3402C15.4172 11.373 15.4095 11.4062 15.4035 11.4398C15.3974 11.4733 15.393 11.5071 15.3904 11.5411C15.3876 11.5751 15.3866 11.6092 15.3873 11.6433C15.388 11.6774 15.3904 11.7114 15.3944 11.7452C15.3987 11.7796 15.4047 11.8137 15.4123 11.8476C15.42 11.8814 15.4293 11.9147 15.4402 11.9477C15.4511 11.9806 15.4637 12.0129 15.4778 12.0446C15.4919 12.0762 15.5075 12.1072 15.5246 12.1373C15.5418 12.1675 15.5603 12.1967 15.5804 12.225C15.6004 12.2533 15.6217 12.2806 15.6444 12.3068C15.6672 12.333 15.6911 12.3581 15.7163 12.3819C15.7414 12.4058 15.7677 12.4283 15.7951 12.4496C15.9356 12.559 16.0956 12.6283 16.2722 12.6512C16.5187 12.6832 16.7769 12.6792 17.0304 12.6753C17.1139 12.674 17.1969 12.6727 17.2787 12.6727L18.9547 12.6724C19.4883 12.6722 20.0228 12.6752 20.5574 12.6782C21.6636 12.6844 22.7709 12.6907 23.8747 12.6686C24.1943 12.6095 24.4468 12.4932 24.6376 12.2201C24.6571 12.1923 24.6753 12.1636 24.6921 12.134C24.7089 12.1044 24.7242 12.0741 24.738 12.043C24.7517 12.0119 24.764 11.9802 24.7746 11.9479C24.7853 11.9156 24.7943 11.8829 24.8017 11.8497C24.8091 11.8165 24.8149 11.783 24.819 11.7493C24.8231 11.7155 24.8256 11.6816 24.8263 11.6476C24.8271 11.6136 24.8262 11.5797 24.8236 11.5458C24.821 11.5118 24.8167 11.4781 24.8108 11.4446C24.8046 11.4101 24.7967 11.3761 24.787 11.3424C24.7774 11.3087 24.7662 11.2756 24.7533 11.243C24.7404 11.2104 24.726 11.1785 24.71 11.1474C24.6939 11.1162 24.6764 11.0859 24.6574 11.0565C24.6384 11.027 24.618 10.9986 24.5962 10.9711C24.5744 10.9437 24.5512 10.9174 24.5268 10.8922C24.5025 10.8671 24.4769 10.8432 24.4502 10.8206C24.4234 10.798 24.3956 10.7767 24.3668 10.7568C24.2282 10.6617 24.0863 10.6096 23.9191 10.5919C23.6499 10.5632 23.3731 10.5666 23.0994 10.5699C23.0107 10.571 22.9223 10.5721 22.8346 10.5721L21.0374 10.572C20.5504 10.572 20.0583 10.568 19.5644 10.5639Z" fill="#70ADC2"/>
</svg>
