<svg width="33" height="33" viewBox="0 0 33 33" fill="none" xmlns="http://www.w3.org/2000/svg">
<path fill-rule="evenodd" clip-rule="evenodd" d="M25.831 4.01432C25.8287 4.01457 25.8263 4.01481 25.8239 4.01502C24.2399 4.13549 22.7846 4.85266 21.7438 6.07329C20.6945 7.30399 20.2084 8.87412 20.3304 10.4895C20.3344 10.5379 20.3389 10.5863 20.344 10.6346C20.3491 10.683 20.3548 10.7313 20.3611 10.7794C20.3674 10.8276 20.3743 10.8758 20.3817 10.9238C20.3892 10.9718 20.3972 11.0197 20.4058 11.0675C20.4144 11.1154 20.4236 11.1631 20.4334 11.2107C20.4432 11.2583 20.4535 11.3058 20.4644 11.3531C20.4753 11.4005 20.4868 11.4477 20.4989 11.4947C20.511 11.5418 20.5236 11.5887 20.5368 11.6354C20.55 11.6821 20.5638 11.7287 20.5781 11.7751C20.5924 11.8215 20.6073 11.8678 20.6228 11.9138C20.6383 11.9598 20.6543 12.0056 20.6708 12.0513C20.6874 12.0969 20.7045 12.1423 20.7222 12.1875C20.7398 12.2328 20.7581 12.2778 20.7768 12.3225C20.7956 12.3673 20.8149 12.4118 20.8347 12.4561C20.8546 12.5003 20.875 12.5444 20.8959 12.5882C20.9168 12.6319 20.9382 12.6754 20.9601 12.7186C20.9821 12.7619 21.0046 12.8049 21.0276 12.8476C21.0506 12.8903 21.0741 12.9327 21.0982 12.9748C21.1222 13.0168 21.1467 13.0587 21.1718 13.1002C21.1968 13.1417 21.2224 13.1828 21.2484 13.2237C21.2745 13.2645 21.301 13.3051 21.328 13.3453C21.3551 13.3855 21.3826 13.4253 21.4106 13.4649C21.4386 13.5044 21.467 13.5435 21.496 13.5824C21.5249 13.6212 21.5543 13.6596 21.5842 13.6977C21.6141 13.7358 21.6444 13.7735 21.6752 13.8108C21.706 13.8482 21.7373 13.8851 21.7689 13.9217C21.8007 13.9582 21.8328 13.9944 21.8653 14.0302C21.8979 14.0659 21.9309 14.1013 21.9643 14.1362C21.9977 14.1712 22.0316 14.2057 22.0658 14.2398C22.1001 14.2739 22.1348 14.3076 22.1699 14.3408C22.2049 14.3741 22.2404 14.4069 22.2763 14.4393C22.3122 14.4716 22.3484 14.5035 22.3851 14.535C23.5393 15.5304 25.1067 16.0805 26.6267 15.9462L26.6581 15.9432C26.7053 15.9399 26.7525 15.9361 26.7997 15.9316C26.8468 15.9272 26.8939 15.9221 26.9409 15.9165C26.988 15.9109 27.0349 15.9047 27.0818 15.898C27.1287 15.8912 27.1755 15.8839 27.2222 15.876C27.2689 15.8681 27.3155 15.8596 27.362 15.8506C27.4085 15.8415 27.4549 15.8319 27.5012 15.8217C27.5475 15.8115 27.5936 15.8008 27.6396 15.7894C27.6856 15.7781 27.7315 15.7662 27.7772 15.7538C27.823 15.7413 27.8685 15.7283 27.9139 15.7148C27.9593 15.7012 28.0046 15.6871 28.0496 15.6724C28.0948 15.6577 28.1397 15.6425 28.1843 15.6267C28.2291 15.6109 28.2736 15.5946 28.3179 15.5778C28.3622 15.5609 28.4064 15.5435 28.4503 15.5256C28.4942 15.5076 28.5378 15.4891 28.5813 15.4701C28.6247 15.4511 28.668 15.4315 28.711 15.4114C28.7539 15.3913 28.7967 15.3707 28.8392 15.3496C28.8817 15.3285 28.9239 15.3068 28.9659 15.2846C29.0079 15.2625 29.0495 15.2398 29.091 15.2166C29.1324 15.1934 29.1736 15.1697 29.2144 15.1455C29.2553 15.1213 29.2959 15.0966 29.3362 15.0714C29.3764 15.0462 29.4164 15.0205 29.456 14.9944C29.4957 14.9682 29.535 14.9415 29.574 14.9143C29.6131 14.8872 29.6517 14.8596 29.6901 14.8315C29.7284 14.8034 29.7664 14.7749 29.8041 14.7458C29.8418 14.7168 29.8791 14.6873 29.9161 14.6574C29.953 14.6275 29.9896 14.5971 30.0259 14.5662C30.0621 14.5354 30.0979 14.5041 30.1334 14.4724C30.1689 14.4407 30.204 14.4085 30.2387 14.3759C30.2734 14.3434 30.3077 14.3104 30.3416 14.2769C30.3755 14.2435 30.409 14.2097 30.4421 14.1755C30.4752 14.1412 30.5079 14.1066 30.5402 14.0715C30.5725 14.0365 30.6043 14.0011 30.6357 13.9652C31.7034 12.7492 32.2185 11.1933 32.1221 9.5735C32.1189 9.5251 32.1151 9.47673 32.1108 9.42841C32.1065 9.38009 32.1016 9.33183 32.0961 9.28364C32.0906 9.2354 32.0845 9.18727 32.0778 9.13924C32.0711 9.09117 32.0639 9.04321 32.0561 8.99535C32.0482 8.94749 32.0398 8.89972 32.0309 8.85203C32.0219 8.80438 32.0124 8.75684 32.0023 8.7094C31.9921 8.66197 31.9814 8.61466 31.9702 8.56748C31.9589 8.52034 31.9471 8.47332 31.9347 8.42643C31.9222 8.37959 31.9092 8.33287 31.8957 8.28628C31.8822 8.23973 31.8681 8.19337 31.8534 8.1472C31.8388 8.10099 31.8235 8.05497 31.8078 8.00913C31.792 7.9633 31.7757 7.91768 31.7588 7.87227C31.742 7.82682 31.7245 7.7816 31.7066 7.73661C31.6886 7.69162 31.6701 7.64686 31.6511 7.60234C31.632 7.55782 31.6124 7.51352 31.5923 7.46946C31.5722 7.42541 31.5516 7.3816 31.5304 7.33805C31.5092 7.29449 31.4875 7.25121 31.4653 7.20821C31.4431 7.1652 31.4203 7.12249 31.3971 7.08008C31.3738 7.03762 31.3501 6.99547 31.3258 6.9536C31.3015 6.91174 31.2768 6.87019 31.2515 6.82895C31.2262 6.78772 31.2004 6.74678 31.1742 6.70614C31.1479 6.66554 31.1212 6.62528 31.0939 6.58536C31.0667 6.54539 31.039 6.50579 31.0107 6.46654C30.9826 6.42725 30.9539 6.38834 30.9248 6.3498C30.8956 6.31123 30.866 6.27304 30.836 6.23522C30.8059 6.19741 30.7754 6.15998 30.7445 6.12292C30.7135 6.08583 30.6821 6.04913 30.6503 6.01284C30.6184 5.97654 30.5861 5.94065 30.5534 5.90516C30.5206 5.86966 30.4875 5.83457 30.4539 5.79988C30.4204 5.76523 30.3864 5.73099 30.352 5.69714C30.3176 5.66329 30.2828 5.62989 30.2476 5.59693C30.2124 5.56397 30.1768 5.53143 30.1408 5.49931C30.1045 5.46673 30.0678 5.4346 30.0307 5.4029C29.9935 5.37121 29.956 5.34 29.9181 5.30927C29.8802 5.27851 29.842 5.24825 29.8034 5.2185C29.7647 5.1887 29.7258 5.15939 29.6864 5.13057C29.647 5.10178 29.6074 5.07349 29.5673 5.04568C29.5273 5.01786 29.4869 4.99056 29.4462 4.96376C29.4055 4.93696 29.3645 4.91067 29.3232 4.88488C29.2818 4.8591 29.2401 4.83384 29.1982 4.80911C29.1562 4.78438 29.1139 4.76017 29.0713 4.7365C29.0288 4.71282 28.9859 4.6897 28.9428 4.66712C28.8997 4.6445 28.8563 4.62245 28.8126 4.60096C28.7689 4.57944 28.725 4.55847 28.6808 4.53804C28.6366 4.51761 28.5922 4.49776 28.5475 4.47847C28.5029 4.45918 28.458 4.44045 28.4128 4.42226C28.3677 4.40411 28.3224 4.38651 28.2768 4.36946C28.2312 4.35241 28.1855 4.33593 28.1395 4.32002C28.0935 4.30415 28.0474 4.28885 28.0011 4.27413C27.9547 4.25935 27.9082 4.24519 27.8615 4.23165C27.8148 4.21806 27.768 4.20506 27.721 4.19265C27.674 4.18029 27.6268 4.16849 27.5795 4.15727C27.5323 4.14604 27.4848 4.1354 27.4373 4.12536C27.3897 4.11536 27.3421 4.10593 27.2943 4.09706C27.2465 4.08824 27.1986 4.08001 27.1506 4.07237C27.1026 4.06474 27.0546 4.05769 27.0064 4.05123C26.9583 4.04482 26.91 4.03899 26.8617 4.03376C26.8134 4.02853 26.7651 4.0239 26.7167 4.0199C26.6683 4.01589 26.6198 4.01249 26.5712 4.0097C26.5228 4.00688 26.4742 4.00468 26.4257 4.00312C26.3771 4.00152 26.3286 4.00052 26.28 4.00014C26.2314 3.99981 26.1828 4.00006 26.1343 4.0009C26.0857 4.00175 26.0372 4.00318 25.9887 4.00521C25.9401 4.00728 25.8916 4.00996 25.8431 4.01325C25.8391 4.01349 25.8351 4.0139 25.831 4.01432ZM26.8185 7.03C26.7592 7.02404 26.6999 7.0236 26.6405 7.02867C26.4891 7.0631 26.3553 7.0976 26.2241 7.18667C25.9318 7.38494 24.6026 8.66989 24.4299 8.94203C24.3078 9.13435 24.2823 9.3996 24.3297 9.62122C24.3361 9.65102 24.344 9.68043 24.3534 9.70947C24.3627 9.73846 24.3735 9.76693 24.3857 9.79487C24.3978 9.82276 24.4113 9.85001 24.4262 9.87659C24.4411 9.90314 24.4572 9.92886 24.4746 9.95376C24.4921 9.9787 24.5107 10.0027 24.5305 10.0257C24.5502 10.0488 24.5711 10.0708 24.5931 10.0917C24.615 10.1126 24.638 10.1324 24.6619 10.151C24.6858 10.1696 24.7106 10.1869 24.7362 10.2031C24.7629 10.2202 24.7904 10.2359 24.8187 10.2502C24.8469 10.2645 24.8758 10.2774 24.9054 10.2887C24.9349 10.3001 24.965 10.3099 24.9955 10.3182C25.026 10.3265 25.0569 10.3332 25.0881 10.3384C25.1193 10.3435 25.1507 10.347 25.1822 10.349C25.2138 10.3509 25.2454 10.3512 25.277 10.35C25.3085 10.3487 25.34 10.3458 25.3713 10.3412C25.4026 10.3368 25.4336 10.3307 25.4643 10.323C25.5825 10.294 25.6936 10.2398 25.798 10.178C25.7981 10.2975 25.7948 10.451 25.7912 10.6219C25.7791 11.1907 25.7629 11.9523 25.8531 12.2967C25.9661 12.5614 26.1217 12.758 26.3947 12.8675C26.635 12.9637 26.8687 12.9666 27.1057 12.8591C27.3176 12.7631 27.5338 12.5708 27.6111 12.3436C27.6501 12.2291 27.6631 12.0935 27.6708 11.9731C27.6997 11.5183 27.6925 11.0525 27.6853 10.5901C27.6821 10.385 27.6789 10.1805 27.6789 9.97801C27.6789 9.77549 27.6822 9.57088 27.6855 9.36554C27.6929 8.90335 27.7003 8.43745 27.6707 7.98323C27.6614 7.84067 27.6471 7.67671 27.5791 7.5496C27.4519 7.31138 27.2516 7.13958 26.9933 7.06405C26.9361 7.0473 26.8778 7.03595 26.8185 7.03Z" fill="#70ADC2"/>
<path d="M4.76492 5.76884C5.34468 5.74555 5.93146 5.76334 6.51191 5.76327H9.78931L19.6326 5.76543C19.4444 6.06899 19.2764 6.38353 19.1285 6.70904C18.2445 8.66868 18.2249 10.8567 18.9651 12.8628L15.5505 15.0639L14.1021 15.992C13.6828 15.6865 13.2191 15.4189 12.7827 15.1379L10.1564 13.4467L1.08008 7.59669C1.1554 7.50485 1.233 7.41503 1.31287 7.3272C2.24518 6.30509 3.40201 5.82607 4.76492 5.76884Z" fill="#70ADC2"/>
<path d="M0.236747 9.31934C0.653699 9.54299 1.05613 9.83609 1.45505 10.093L3.7671 11.582L11.1095 16.3118C11.5998 16.6281 13.546 17.9635 13.9383 18.0477C14.1255 18.0879 14.286 18.0632 14.4596 17.9843C14.7206 17.8658 14.9612 17.6937 15.2021 17.5387L16.2516 16.8634L19.8571 14.5363C20.4722 15.3644 21.17 16.0711 22.0364 16.6312C23.8806 17.8234 26.0004 18.0996 28.1177 17.6307C28.1363 18.1251 28.1236 18.6233 28.1236 19.1183L28.1239 21.8091L28.1243 23.6958C28.125 24.3813 28.1394 25.0457 28.0155 25.7224C27.7136 26.9576 27.0163 28.0132 25.9487 28.7034C25.3705 29.0771 24.6796 29.3366 23.9954 29.4086C23.4992 29.4608 22.9982 29.4489 22.5 29.4486L20.5348 29.447L14.087 29.4476L7.55748 29.4475L5.7139 29.4488C5.06071 29.4492 4.39544 29.4745 3.75358 29.3309C3.67826 29.3136 3.60339 29.2944 3.52898 29.2734C3.45458 29.2523 3.38074 29.2294 3.30746 29.2048C3.23418 29.18 3.16155 29.1535 3.08956 29.1252C3.01758 29.0969 2.94632 29.0668 2.8758 29.0349C2.80527 29.003 2.73556 28.9695 2.66666 28.9341C2.59776 28.8988 2.52977 28.8617 2.46266 28.823C2.39556 28.7843 2.32944 28.744 2.26429 28.702C2.19915 28.66 2.13508 28.6164 2.07206 28.5712C2.00905 28.526 1.94718 28.4793 1.88647 28.431C1.82571 28.3828 1.76616 28.333 1.70782 28.2818C1.64952 28.2306 1.59247 28.178 1.53668 28.1239C1.48093 28.0698 1.42651 28.0144 1.37343 27.9577C1.32039 27.9009 1.26873 27.8428 1.21844 27.7835C1.1682 27.7242 1.11943 27.6636 1.07215 27.6019C1.02483 27.5401 0.979053 27.4773 0.934818 27.4132C0.890584 27.3492 0.847914 27.2841 0.806809 27.218C0.515112 26.749 0.244071 26.1362 0.177281 25.5829C0.0985975 24.9317 0.149425 23.9686 0.149738 23.287L0.150803 18.8139L0.150677 12.702L0.148674 10.9637C0.148174 10.4166 0.115811 9.85603 0.236747 9.31934Z" fill="#70ADC2"/>
</svg>
