<svg width="61" height="61" viewBox="0 0 61 61" fill="none" xmlns="http://www.w3.org/2000/svg">
<rect x="15.333" y="6.5" width="42" height="36" rx="6" fill="url(#paint0_linear_9010_3363)"/>
<g filter="url(#filter0_bi_9010_3363)">
<rect x="3.33301" y="20" width="42" height="36" rx="6" fill="url(#paint1_linear_9010_3363)" fill-opacity="0.4"/>
</g>
<path d="M19.9997 32H16.6663C15.9108 32 15.333 32.6073 15.333 33.4014V44.0986C15.333 44.8927 15.9108 45.5 16.6663 45.5H19.9997C20.7552 45.5 21.333 44.8927 21.333 44.0986V33.4014C21.333 32.654 20.7552 32 19.9997 32Z" fill="white"/>
<path d="M34.184 34.5909H30.4565L31.6701 32.3182C32.4503 30.8182 31.4534 29 29.8497 29C29.3296 29 28.8095 29.2273 28.4194 29.5909L24.3452 33.5909L22.833 45.5H31.6268C32.4936 45.5 33.2305 44.9545 33.5772 44.1364L36.1778 37.6364C36.7412 36.1818 35.701 34.5909 34.184 34.5909Z" fill="white"/>
<defs>
<filter id="filter0_bi_9010_3363" x="-16.667" y="0" width="82" height="76" filterUnits="userSpaceOnUse" color-interpolation-filters="sRGB">
<feFlood flood-opacity="0" result="BackgroundImageFix"/>
<feGaussianBlur in="BackgroundImageFix" stdDeviation="10"/>
<feComposite in2="SourceAlpha" operator="in" result="effect1_backgroundBlur_9010_3363"/>
<feBlend mode="normal" in="SourceGraphic" in2="effect1_backgroundBlur_9010_3363" result="shape"/>
<feColorMatrix in="SourceAlpha" type="matrix" values="0 0 0 0 0 0 0 0 0 0 0 0 0 0 0 0 0 0 127 0" result="hardAlpha"/>
<feOffset/>
<feGaussianBlur stdDeviation="8"/>
<feComposite in2="hardAlpha" operator="arithmetic" k2="-1" k3="1"/>
<feColorMatrix type="matrix" values="0 0 0 0 1 0 0 0 0 1 0 0 0 0 1 0 0 0 1 0"/>
<feBlend mode="normal" in2="shape" result="effect2_innerShadow_9010_3363"/>
</filter>
<linearGradient id="paint0_linear_9010_3363" x1="36.333" y1="6.5" x2="36.333" y2="42.5" gradientUnits="userSpaceOnUse">
<stop stop-color="#189BDC"/>
<stop offset="1" stop-color="#133A86"/>
</linearGradient>
<linearGradient id="paint1_linear_9010_3363" x1="24.333" y1="20" x2="24.333" y2="56" gradientUnits="userSpaceOnUse">
<stop stop-color="#67CFE4"/>
<stop offset="1" stop-color="#189BDC"/>
</linearGradient>
</defs>
</svg>
