<svg width="61" height="61" viewBox="0 0 61 61" fill="none" xmlns="http://www.w3.org/2000/svg">
<circle cx="36.666" cy="27.5" r="21" fill="url(#paint0_linear_9010_18113)"/>
<g filter="url(#filter0_bi_9010_18113)">
<circle cx="24.666" cy="35" r="21" fill="url(#paint1_linear_9010_18113)" fill-opacity="0.4"/>
</g>
<path d="M18.666 28V41.4167" stroke="white" stroke-width="2" stroke-linecap="round"/>
<path d="M22.749 24.5V26.8333" stroke="white" stroke-width="2" stroke-linecap="round"/>
<path d="M22.749 43.1665V45.4998" stroke="white" stroke-width="2" stroke-linecap="round"/>
<path d="M27.416 24.5V26.8333" stroke="white" stroke-width="2" stroke-linecap="round"/>
<path d="M27.416 43.1665V45.4998" stroke="white" stroke-width="2" stroke-linecap="round"/>
<path d="M14.749 28H28.6601C29.8009 28.2121 32.0824 29.1455 32.0824 31.1818C32.0824 33.7273 28.6601 35 28.6601 35H19.249" stroke="white" stroke-width="2" stroke-linecap="round"/>
<path d="M19.249 35H28.6601C29.8009 35.2121 32.0824 36.1455 32.0824 38.1818C32.0824 40.7273 28.6601 42 28.6601 42H14.749" stroke="white" stroke-width="2" stroke-linecap="round"/>
<defs>
<filter id="filter0_bi_9010_18113" x="-12.334" y="-2" width="74" height="74" filterUnits="userSpaceOnUse" color-interpolation-filters="sRGB">
<feFlood flood-opacity="0" result="BackgroundImageFix"/>
<feGaussianBlur in="BackgroundImageFix" stdDeviation="8"/>
<feComposite in2="SourceAlpha" operator="in" result="effect1_backgroundBlur_9010_18113"/>
<feBlend mode="normal" in="SourceGraphic" in2="effect1_backgroundBlur_9010_18113" result="shape"/>
<feColorMatrix in="SourceAlpha" type="matrix" values="0 0 0 0 0 0 0 0 0 0 0 0 0 0 0 0 0 0 127 0" result="hardAlpha"/>
<feOffset/>
<feGaussianBlur stdDeviation="8"/>
<feComposite in2="hardAlpha" operator="arithmetic" k2="-1" k3="1"/>
<feColorMatrix type="matrix" values="0 0 0 0 1 0 0 0 0 1 0 0 0 0 1 0 0 0 1 0"/>
<feBlend mode="normal" in2="shape" result="effect2_innerShadow_9010_18113"/>
</filter>
<linearGradient id="paint0_linear_9010_18113" x1="36.666" y1="6.5" x2="36.666" y2="48.5" gradientUnits="userSpaceOnUse">
<stop stop-color="#189BDC"/>
<stop offset="1" stop-color="#133A86"/>
</linearGradient>
<linearGradient id="paint1_linear_9010_18113" x1="24.666" y1="14" x2="24.666" y2="56" gradientUnits="userSpaceOnUse">
<stop stop-color="#67CFE4"/>
<stop offset="1" stop-color="#189BDC"/>
</linearGradient>
</defs>
</svg>
