<svg width="160" height="160" viewBox="0 0 160 160" fill="none" xmlns="http://www.w3.org/2000/svg">
<g opacity="0.5">
<mask id="path-1-inside-1_7449_31397" fill="white">
<path fill-rule="evenodd" clip-rule="evenodd" d="M79.9993 20C114.724 20 142.973 42.9241 142.973 71.1018C142.973 82.3791 138.602 92.535 129.475 102.542H129.478C116.266 117.749 86.721 136.271 79.9993 139.103C73.4676 141.856 74.2219 137.553 74.5208 135.848C74.5294 135.799 74.5376 135.753 74.5452 135.708C74.7046 134.762 75.4434 130.318 75.4434 130.318C75.6558 128.71 75.8756 126.216 75.2406 124.624C74.5344 122.871 71.7433 121.961 69.6923 121.519C39.4302 117.519 17.027 96.3629 17.027 71.1018C17.027 42.9241 45.2791 20 79.9993 20ZM122.002 64.3564C122.679 64.3564 123.226 63.8084 123.226 63.13V58.7129C123.226 58.0357 122.679 57.4852 122.002 57.4852H104.354C104.023 57.4852 103.725 57.618 103.504 57.8317C103.502 57.8337 103.5 57.8354 103.497 57.8372C103.494 57.8397 103.491 57.8421 103.489 57.845C103.482 57.8522 103.476 57.8594 103.47 57.8666C103.26 58.0863 103.129 58.3834 103.129 58.7117V86.1482C103.129 86.4778 103.261 86.7759 103.472 86.9956C103.477 87.0017 103.483 87.0089 103.489 87.0137C103.492 87.0175 103.496 87.0213 103.5 87.0248C103.503 87.0268 103.505 87.0288 103.507 87.0306C103.727 87.2419 104.025 87.3735 104.354 87.3735H122.002C122.679 87.3735 123.226 86.823 123.226 86.147V81.7288C123.226 81.0527 122.679 80.5023 122.002 80.5023H110.001V75.8643H122.002C122.679 75.8643 123.226 75.3151 123.226 74.6379V70.2208C123.226 69.5436 122.679 68.9932 122.002 68.9932H110.001V64.3564H122.002ZM44.5554 80.5023H56.5574C57.2346 80.5023 57.7815 81.0515 57.7815 81.7287V86.1458C57.7815 86.823 57.2346 87.3734 56.5574 87.3734H38.9105C38.5809 87.3734 38.284 87.2431 38.0631 87.0306C38.06 87.0276 38.057 87.0249 38.054 87.0222C38.051 87.0194 38.048 87.0167 38.045 87.0137C38.0377 87.0077 38.0329 87.0016 38.0281 86.9956C37.8168 86.7759 37.6852 86.4777 37.6852 86.1482V58.7117C37.6852 58.0345 38.2345 57.4852 38.9117 57.4852H43.3301C44.0061 57.4852 44.5554 58.0345 44.5554 58.7117V80.5023ZM67.2047 57.4855H62.7876C62.1103 57.4855 61.5598 58.0348 61.5598 58.7096V86.1485C61.5598 86.8245 62.1103 87.3725 62.7876 87.3725H67.2047C67.8819 87.3725 68.4312 86.8245 68.4312 86.1485V58.7096C68.4312 58.0348 67.8819 57.4855 67.2047 57.4855ZM97.6086 57.4855H93.1915C92.5143 57.4855 91.965 58.0348 91.965 58.7096V75.0111L79.3908 58.0299C79.3618 57.9865 79.3292 57.9454 79.2954 57.9056L79.287 57.8983C79.2628 57.8706 79.2387 57.8464 79.2133 57.8223C79.207 57.816 79.2007 57.8106 79.1936 57.8046L79.1904 57.8018C79.179 57.791 79.1672 57.7807 79.155 57.7707C79.1453 57.7627 79.1354 57.755 79.1252 57.7475C79.1211 57.7434 79.1169 57.7398 79.1125 57.7363L79.1025 57.7287L79.0938 57.7221L79.0839 57.7154L79.069 57.705L79.0503 57.692C79.0436 57.6874 79.0368 57.6829 79.0298 57.6786C79.0178 57.6702 79.0057 57.663 78.9924 57.6569C78.9707 57.6436 78.9489 57.6304 78.9272 57.6195C78.9222 57.6172 78.9174 57.6148 78.9126 57.6124C78.9047 57.6084 78.8969 57.6044 78.8886 57.6014C78.8656 57.5905 78.8427 57.5797 78.8186 57.5712C78.8041 57.5664 78.792 57.5616 78.7787 57.5567C78.7546 57.5483 78.7304 57.5398 78.7051 57.5338C78.7015 57.5325 78.6977 57.5313 78.6939 57.5303L78.6831 57.5274C78.6766 57.5257 78.6695 57.524 78.6628 57.5217C78.6495 57.5191 78.6365 57.516 78.6237 57.513C78.6137 57.5107 78.6027 57.5081 78.5928 57.506C78.584 57.5048 78.5749 57.5035 78.5658 57.5024C78.5574 57.5014 78.549 57.5006 78.5409 57.5C78.5246 57.4964 78.5083 57.4948 78.492 57.4932L78.4757 57.4915C78.4687 57.4907 78.4616 57.4902 78.4545 57.4898L78.413 57.4879C78.4097 57.4879 78.4065 57.4878 78.4035 57.4876L78.3981 57.4873L78.3912 57.4867L78.381 57.4859C78.3773 57.4857 78.3735 57.4855 78.3695 57.4855H73.9536C73.2763 57.4855 72.7258 58.0348 72.7258 58.7096V86.1485C72.7258 86.8245 73.2763 87.3725 73.9536 87.3725H78.3695C79.0479 87.3725 79.5972 86.8245 79.5972 86.1485V69.8517L92.1871 86.8546C92.274 86.9778 92.3815 87.078 92.4986 87.1576C92.5005 87.1589 92.5027 87.1606 92.505 87.1623C92.507 87.1639 92.5089 87.1656 92.5106 87.1673C92.5358 87.1829 92.5615 87.1988 92.5867 87.2132C92.5956 87.2186 92.604 87.2226 92.6126 87.2268L92.6217 87.2313C92.6343 87.2388 92.648 87.2458 92.6617 87.2522C92.6677 87.255 92.6737 87.2577 92.6796 87.2603L92.7035 87.2704C92.7152 87.2755 92.727 87.2805 92.74 87.2856C92.7464 87.2882 92.7528 87.2907 92.7592 87.2931C92.7648 87.2952 92.7705 87.2972 92.7762 87.2989C92.8052 87.3097 92.8317 87.3182 92.8595 87.3266C92.8635 87.3266 92.8676 87.3277 92.8716 87.3288L92.8776 87.3303C92.9778 87.3568 93.0828 87.3725 93.1915 87.3725H97.6086C98.2871 87.3725 98.8351 86.8245 98.8351 86.1485V58.7096C98.8351 58.0348 98.2871 57.4855 97.6086 57.4855Z"/>
</mask>
<path fill-rule="evenodd" clip-rule="evenodd" d="M79.9993 20C114.724 20 142.973 42.9241 142.973 71.1018C142.973 82.3791 138.602 92.535 129.475 102.542H129.478C116.266 117.749 86.721 136.271 79.9993 139.103C73.4676 141.856 74.2219 137.553 74.5208 135.848C74.5294 135.799 74.5376 135.753 74.5452 135.708C74.7046 134.762 75.4434 130.318 75.4434 130.318C75.6558 128.71 75.8756 126.216 75.2406 124.624C74.5344 122.871 71.7433 121.961 69.6923 121.519C39.4302 117.519 17.027 96.3629 17.027 71.1018C17.027 42.9241 45.2791 20 79.9993 20ZM122.002 64.3564C122.679 64.3564 123.226 63.8084 123.226 63.13V58.7129C123.226 58.0357 122.679 57.4852 122.002 57.4852H104.354C104.023 57.4852 103.725 57.618 103.504 57.8317C103.502 57.8337 103.5 57.8354 103.497 57.8372C103.494 57.8397 103.491 57.8421 103.489 57.845C103.482 57.8522 103.476 57.8594 103.47 57.8666C103.26 58.0863 103.129 58.3834 103.129 58.7117V86.1482C103.129 86.4778 103.261 86.7759 103.472 86.9956C103.477 87.0017 103.483 87.0089 103.489 87.0137C103.492 87.0175 103.496 87.0213 103.5 87.0248C103.503 87.0268 103.505 87.0288 103.507 87.0306C103.727 87.2419 104.025 87.3735 104.354 87.3735H122.002C122.679 87.3735 123.226 86.823 123.226 86.147V81.7288C123.226 81.0527 122.679 80.5023 122.002 80.5023H110.001V75.8643H122.002C122.679 75.8643 123.226 75.3151 123.226 74.6379V70.2208C123.226 69.5436 122.679 68.9932 122.002 68.9932H110.001V64.3564H122.002ZM44.5554 80.5023H56.5574C57.2346 80.5023 57.7815 81.0515 57.7815 81.7287V86.1458C57.7815 86.823 57.2346 87.3734 56.5574 87.3734H38.9105C38.5809 87.3734 38.284 87.2431 38.0631 87.0306C38.06 87.0276 38.057 87.0249 38.054 87.0222C38.051 87.0194 38.048 87.0167 38.045 87.0137C38.0377 87.0077 38.0329 87.0016 38.0281 86.9956C37.8168 86.7759 37.6852 86.4777 37.6852 86.1482V58.7117C37.6852 58.0345 38.2345 57.4852 38.9117 57.4852H43.3301C44.0061 57.4852 44.5554 58.0345 44.5554 58.7117V80.5023ZM67.2047 57.4855H62.7876C62.1103 57.4855 61.5598 58.0348 61.5598 58.7096V86.1485C61.5598 86.8245 62.1103 87.3725 62.7876 87.3725H67.2047C67.8819 87.3725 68.4312 86.8245 68.4312 86.1485V58.7096C68.4312 58.0348 67.8819 57.4855 67.2047 57.4855ZM97.6086 57.4855H93.1915C92.5143 57.4855 91.965 58.0348 91.965 58.7096V75.0111L79.3908 58.0299C79.3618 57.9865 79.3292 57.9454 79.2954 57.9056L79.287 57.8983C79.2628 57.8706 79.2387 57.8464 79.2133 57.8223C79.207 57.816 79.2007 57.8106 79.1936 57.8046L79.1904 57.8018C79.179 57.791 79.1672 57.7807 79.155 57.7707C79.1453 57.7627 79.1354 57.755 79.1252 57.7475C79.1211 57.7434 79.1169 57.7398 79.1125 57.7363L79.1025 57.7287L79.0938 57.7221L79.0839 57.7154L79.069 57.705L79.0503 57.692C79.0436 57.6874 79.0368 57.6829 79.0298 57.6786C79.0178 57.6702 79.0057 57.663 78.9924 57.6569C78.9707 57.6436 78.9489 57.6304 78.9272 57.6195C78.9222 57.6172 78.9174 57.6148 78.9126 57.6124C78.9047 57.6084 78.8969 57.6044 78.8886 57.6014C78.8656 57.5905 78.8427 57.5797 78.8186 57.5712C78.8041 57.5664 78.792 57.5616 78.7787 57.5567C78.7546 57.5483 78.7304 57.5398 78.7051 57.5338C78.7015 57.5325 78.6977 57.5313 78.6939 57.5303L78.6831 57.5274C78.6766 57.5257 78.6695 57.524 78.6628 57.5217C78.6495 57.5191 78.6365 57.516 78.6237 57.513C78.6137 57.5107 78.6027 57.5081 78.5928 57.506C78.584 57.5048 78.5749 57.5035 78.5658 57.5024C78.5574 57.5014 78.549 57.5006 78.5409 57.5C78.5246 57.4964 78.5083 57.4948 78.492 57.4932L78.4757 57.4915C78.4687 57.4907 78.4616 57.4902 78.4545 57.4898L78.413 57.4879C78.4097 57.4879 78.4065 57.4878 78.4035 57.4876L78.3981 57.4873L78.3912 57.4867L78.381 57.4859C78.3773 57.4857 78.3735 57.4855 78.3695 57.4855H73.9536C73.2763 57.4855 72.7258 58.0348 72.7258 58.7096V86.1485C72.7258 86.8245 73.2763 87.3725 73.9536 87.3725H78.3695C79.0479 87.3725 79.5972 86.8245 79.5972 86.1485V69.8517L92.1871 86.8546C92.274 86.9778 92.3815 87.078 92.4986 87.1576C92.5005 87.1589 92.5027 87.1606 92.505 87.1623C92.507 87.1639 92.5089 87.1656 92.5106 87.1673C92.5358 87.1829 92.5615 87.1988 92.5867 87.2132C92.5956 87.2186 92.604 87.2226 92.6126 87.2268L92.6217 87.2313C92.6343 87.2388 92.648 87.2458 92.6617 87.2522C92.6677 87.255 92.6737 87.2577 92.6796 87.2603L92.7035 87.2704C92.7152 87.2755 92.727 87.2805 92.74 87.2856C92.7464 87.2882 92.7528 87.2907 92.7592 87.2931C92.7648 87.2952 92.7705 87.2972 92.7762 87.2989C92.8052 87.3097 92.8317 87.3182 92.8595 87.3266C92.8635 87.3266 92.8676 87.3277 92.8716 87.3288L92.8776 87.3303C92.9778 87.3568 93.0828 87.3725 93.1915 87.3725H97.6086C98.2871 87.3725 98.8351 86.8245 98.8351 86.1485V58.7096C98.8351 58.0348 98.2871 57.4855 97.6086 57.4855Z" fill="white" stroke="#00A4F6" stroke-width="2" mask="url(#path-1-inside-1_7449_31397)"/>
</g>
</svg>
