<svg width="160" height="160" viewBox="0 0 160 160" fill="none" xmlns="http://www.w3.org/2000/svg">
<g opacity="0.5">
<path d="M142.466 15.25L92.6246 69.0953L92.4831 69.2481L92.6078 69.4149L148.951 144.75H108.243L70.146 93.8117L69.9663 93.5714L69.7624 93.7916L22.5885 144.75H11.1216L64.6948 86.8715L64.8362 86.7187L64.7115 86.5519L11.3828 15.25H52.0995L87.1815 62.1551L87.3613 62.3954L87.5652 62.1751L130.999 15.25H142.466ZM28.7432 23.6964H28.244L28.543 24.0961L112.39 136.203L112.465 136.304H112.591H131.575H132.074L131.775 135.904L47.9274 23.7967L47.8524 23.6964H47.7272H28.7432Z" fill="white" stroke="#00A4F6" stroke-width="0.5"/>
</g>
</svg>
