<svg width="160" height="160" viewBox="0 0 160 160" fill="none" xmlns="http://www.w3.org/2000/svg">
<g opacity="0.5">
<path d="M48.6994 20.25H111.301C128.457 20.25 142.415 34.2078 142.415 51.3644V108.636C142.415 125.792 128.457 139.75 111.301 139.75H48.6994C31.5427 139.75 17.585 125.792 17.585 108.636V51.3644C17.585 34.2078 31.5427 20.25 48.6994 20.25ZM48.6994 30.8144C37.3694 30.8144 28.1494 40.0344 28.1494 51.3644V108.636C28.1494 119.966 37.3694 129.186 48.6994 129.186H111.301C122.631 129.186 131.851 119.966 131.851 108.636V51.3644C131.851 40.0344 122.631 30.8144 111.301 30.8144H48.6994ZM108.922 79.9915C108.922 95.9432 95.9425 108.916 79.9979 108.916C64.0462 108.916 51.0736 95.9432 51.0736 79.9915C51.0736 64.0398 64.0462 51.0672 79.9979 51.0672C95.9496 51.0672 108.922 64.0398 108.922 79.9915ZM98.3577 79.9986C98.3577 69.8735 90.1229 61.6387 79.9979 61.6387C69.8728 61.6387 61.638 69.8735 61.638 79.9986C61.638 90.1236 69.8728 98.3584 79.9979 98.3584C90.1229 98.3584 98.3577 90.1236 98.3577 79.9986ZM119.507 47.6715C119.507 51.8711 116.089 55.2821 111.897 55.2821C107.697 55.2821 104.286 51.8713 104.286 47.6715C104.286 43.4717 107.697 40.0609 111.897 40.0609C116.096 40.0609 119.507 43.4717 119.507 47.6715Z" fill="white" stroke="#00A4F6" stroke-width="0.5"/>
</g>
</svg>
