<svg width="160" height="160" viewBox="0 0 160 160" fill="none" xmlns="http://www.w3.org/2000/svg">
<g opacity="0.5">
<path d="M42.0091 53.5317L42.0091 53.5316L42.0017 53.5316C39.7164 53.5187 37.4861 52.8292 35.5924 51.55C33.6986 50.2708 32.2262 48.4593 31.361 46.3441C30.4958 44.2289 30.2766 41.9048 30.731 39.6652C31.1853 37.4255 32.293 35.3706 33.9141 33.7598C35.5353 32.1491 37.5972 31.0546 39.8398 30.6146C42.0823 30.1746 44.405 30.4088 46.5146 31.2875C48.6242 32.1663 50.4262 33.6503 51.6932 35.5522C52.9602 37.4542 53.6354 39.6888 53.6336 41.9741H53.6335L53.6336 41.9816C53.6552 43.5106 53.3687 45.0283 52.7911 46.4443C52.2136 47.8602 51.357 49.1454 50.2722 50.2233C49.1874 51.3011 47.8968 52.1495 46.4771 52.7179C45.0575 53.2863 43.538 53.5631 42.0091 53.5317ZM129.5 88.8049L129.49 129.602H109.483V93.6297C109.483 88.193 108.329 84.534 106.337 82.2309C104.332 79.9131 101.553 79.0534 98.5079 79.0534C95.2661 79.0534 92.0464 80.2761 89.6376 82.7608C87.2257 85.2488 85.6596 88.9675 85.6596 93.9015V129.602H65.6422V63.8317H84.8539V72.5832V73.0832H85.3539H85.6257H85.9363L86.0739 72.8047C88.0308 68.844 94.9771 61.9581 105.604 61.9581C111.375 61.9581 117.341 63.6707 121.86 67.8535C126.37 72.0282 129.5 78.7202 129.5 88.8049ZM52.0221 129.544H32.0047V63.7831H52.0221V129.544Z" fill="white" stroke="#00A4F6"/>
</g>
</svg>
