<svg width="160" height="160" viewBox="0 0 160 160" fill="none" xmlns="http://www.w3.org/2000/svg">
<g opacity="0.5">
<path d="M111.373 115.59H111.373C90.0167 115.57 68.6606 115.55 47.3111 115.537H47.3109C40.576 115.537 33.3522 115.311 28.2395 111.106C22.4821 106.358 21.2626 98.1035 20.7882 90.526L20.7881 90.5258C20.1306 80.1635 20.078 69.7683 20.6172 59.3992L20.3675 59.3862L20.6172 59.3992C20.9134 53.6994 21.4328 47.9074 23.8641 42.7972C25.6083 39.133 28.5126 35.8517 32.2137 34.1305C35.9455 32.3965 39.8324 32.4281 43.8911 32.4651L43.8917 32.4651C44.5169 32.4708 45.1461 32.4765 45.7778 32.4756C51.4179 32.469 57.0579 32.4641 62.698 32.4592C68.3381 32.4542 73.9783 32.4493 79.6184 32.4427C85.4822 32.4361 91.3477 32.4312 97.2132 32.4262C103.079 32.4213 108.944 32.4164 114.808 32.4098C120.364 32.4098 126.229 32.5291 130.675 35.6807L130.675 35.6808C136.411 39.7415 137.994 47.4924 138.725 54.6141L138.725 54.6141C140.073 67.7005 140.092 80.9248 138.778 94.0111C138.231 99.4183 137.326 105.054 133.823 109.088L133.823 109.088C130.357 113.084 125.203 114.639 119.736 115.236L119.649 115.245L119.643 115.252C116.894 115.545 114.08 115.596 111.373 115.59ZM67.4109 55.4147L67.0359 55.1982V55.6313V92.3807V92.8137L67.4109 92.5972L99.2375 74.2225L99.6125 74.006L99.2375 73.7895L67.4109 55.4147Z" fill="white" stroke="#00A4F6" stroke-width="0.5"/>
</g>
</svg>
