<svg width="112" height="40" viewBox="0 0 112 40" fill="none" xmlns="http://www.w3.org/2000/svg">
<path d="M5.13324 12.373C5.05186 12.5158 4.97127 12.655 4.89227 12.7918C5.19716 12.3802 5.49251 12.0926 5.84066 11.8942C6.21819 11.6786 6.65725 11.5678 7.23645 11.5146H10.8363C11.4464 11.527 12.1281 11.535 12.8934 11.535C13.6588 11.535 14.3397 11.527 14.949 11.5146H18.5512C19.1459 11.5694 19.5941 11.685 19.978 11.9122C20.3686 12.1442 20.6953 12.4926 21.0463 13.0058L22.6334 15.7747C22.9685 16.3887 23.3551 17.0887 23.8136 17.8871C24.2702 18.6864 24.6791 19.3732 25.0387 19.9732L26.6259 22.7429C26.8994 23.3217 27.0343 23.7897 27.0308 24.2577C27.0284 24.6485 26.9291 25.0397 26.7338 25.4969C26.8112 25.3601 26.891 25.2205 26.9736 25.0781C27.2983 24.5085 27.6 23.9977 27.8752 23.5329L29.8406 20.1032C30.0709 19.5932 30.188 19.1672 30.1911 18.744C30.1943 18.2743 30.0601 17.8079 29.7862 17.2275L28.1991 14.4586C27.8402 13.8594 27.4297 13.1718 26.9732 12.3734C26.5159 11.5742 26.1296 10.8733 25.793 10.2593L24.2066 7.49124C23.8545 6.97723 23.529 6.63042 23.1376 6.39841C22.7529 6.1704 22.3063 6.054 21.7116 6H18.1094C17.4992 6.0116 16.8184 6.0212 16.0538 6.0212C15.2876 6.0212 14.6068 6.012 13.9967 6H10.396C9.81763 6.0532 9.37817 6.164 9.00104 6.37961C8.6243 6.59442 8.30949 6.91403 7.97524 7.38204L6.00343 10.8241C5.7442 11.2929 5.45678 11.8086 5.13324 12.373Z" fill="url(#paint0_linear_7089_25001)"/>
<path d="M5.77666 11.933C5.79849 11.919 5.81993 11.9074 5.84176 11.8938C6.21929 11.6782 6.65835 11.5674 7.23755 11.5142H9.84254C8.54521 10.8174 7.70718 9.48534 7.63572 8.0061H7.61944L6.00452 10.8234C5.86717 11.0726 5.72147 11.335 5.56586 11.6118C5.62858 11.7234 5.69924 11.8314 5.77666 11.933Z" fill="url(#paint1_linear_7089_25001)"/>
<path d="M7.3958 8.42572C7.47718 8.28291 7.55697 8.14291 7.63557 8.0061C7.43391 8.47732 7.33466 8.87893 7.33863 9.28174C7.34101 9.71935 7.46567 10.1574 7.71021 10.6882L9.51052 13.8311C9.82533 14.3575 10.1735 14.9475 10.5558 15.6147C10.9389 16.2827 11.2715 16.8828 11.5669 17.4188L13.368 20.5625C13.7114 21.0545 14.0349 21.3869 14.4224 21.6085C14.817 21.8333 15.2791 21.9453 15.8964 21.9953H19.0698C19.7654 21.9805 20.5609 21.9673 21.476 21.9673C22.391 21.9673 23.1858 21.9805 23.8813 21.9953H27.0555C27.6899 21.9429 28.1595 21.8281 28.5605 21.5897C28.894 21.3921 29.1802 21.1101 29.4763 20.7117C29.3981 20.8485 29.3175 20.9873 29.2346 21.1305C28.9106 21.6985 28.6204 22.2173 28.3592 22.6905L27.8761 23.5321L26.3946 26.1198C26.0706 26.5762 25.7634 26.8918 25.4005 27.1058C24.9988 27.3434 24.5299 27.459 23.8948 27.5107H20.7221C20.0258 27.4967 19.2302 27.4834 18.316 27.4834C17.4001 27.4834 16.6054 27.4967 15.9099 27.5107H12.7372C12.1183 27.4606 11.657 27.349 11.2632 27.1238C10.8746 26.9018 10.5522 26.5698 10.208 26.0778L8.40612 22.9341C8.11156 22.3981 7.77889 21.7981 7.39659 21.1309C7.01271 20.4637 6.66535 19.8728 6.35054 19.3464L4.55102 16.2043C4.30609 15.6723 4.18183 15.2339 4.17826 14.7963C4.17588 14.3603 4.29299 13.9251 4.528 13.4011L6.00517 10.8238L6.5006 9.96056C6.77412 9.49855 7.07186 8.99053 7.3958 8.42572Z" fill="url(#paint2_linear_7089_25001)"/>
<path d="M9.79321 28.5663C9.93653 28.6991 10.0854 28.8083 10.2462 28.8991C10.3942 28.9843 10.5522 29.0523 10.7245 29.1083C11.3121 29.3591 11.931 29.4739 12.5776 29.5255L12.6566 29.5327H15.9286L15.9496 29.5319C16.7372 29.5163 17.5268 29.5063 18.3152 29.5063C19.1044 29.5063 19.8924 29.5163 20.6808 29.5319L20.7003 29.5327H23.9738L24.0536 29.5255C24.1894 29.5155 24.3236 29.5011 24.4561 29.4847C24.3617 29.6551 24.27 29.8199 24.181 29.9807L23.6995 30.8224L22.2164 33.4108C21.8924 33.8664 21.5852 34.1812 21.2223 34.3961C20.8214 34.6337 20.3525 34.7493 19.7174 34.8001H16.5447C15.8484 34.7861 12.4276 34.7861 11.7329 34.8001H8.5594C7.93971 34.7509 7.47921 34.6401 7.0854 34.4141C6.69636 34.1928 6.37361 33.86 6.02943 33.368L4.22911 30.2259C3.93376 29.6883 3.60109 29.0891 3.21879 28.4219C2.83571 27.7531 2.48755 27.1635 2.17275 26.6366L0.372433 23.4949C0.127495 22.9621 0.00323916 22.5229 6.33041e-05 22.0865C-0.00311255 21.6505 0.113203 21.2161 0.349805 20.6921L1.82777 18.114L2.32241 17.25C2.41371 17.0968 2.50859 16.9376 2.60546 16.7736C2.64436 16.8672 2.68525 16.9612 2.72892 17.054L2.76703 17.1368L4.62094 20.3745L4.63086 20.3909C4.97822 20.9721 5.32081 21.5549 5.65746 22.1425C5.99489 22.7301 6.32359 23.3205 6.64991 23.9146L6.65904 23.931L8.51454 27.1695L8.56575 27.2439C8.92065 27.7491 9.31366 28.2007 9.79321 28.5663Z" fill="url(#paint3_linear_7089_25001)"/>
<path d="M27.6314 23.2761L26.107 25.9353C25.8652 26.2738 25.5866 26.5986 25.2269 26.8126C24.8208 27.0518 24.342 27.1314 23.8791 27.169H20.7227C19.9197 27.1534 19.117 27.169 18.3139 27.169C17.5108 27.169 16.7073 27.1534 15.905 27.169H12.7494C12.2972 27.133 11.8276 27.0558 11.429 26.8274C11.04 26.6054 10.7458 26.2577 10.4925 25.8937L8.70054 22.7665C8.36708 22.1616 8.03123 21.5592 7.68863 20.9592C7.34524 20.3608 6.99471 19.7664 6.641 19.1732L4.84902 16.0467C4.66998 15.6531 4.51953 15.2318 4.51556 14.795C4.51238 14.3606 4.65291 13.9474 4.82798 13.5574L6.3516 10.8989C6.17653 11.2889 6.0352 11.7021 6.03838 12.135C6.04235 12.5734 6.1936 12.995 6.37264 13.3882L8.16461 16.5147C8.51832 17.1075 8.86767 17.7015 9.21146 18.3015C9.55405 18.8999 9.89149 19.5032 10.2234 20.108L12.0153 23.2353C12.2706 23.5977 12.5636 23.9469 12.9518 24.1681C13.3512 24.3969 13.8208 24.4729 14.273 24.5101H17.4278C18.2317 24.4937 21.4441 24.4937 22.2476 24.5101H25.404C25.8668 24.4717 26.3444 24.3929 26.7501 24.1521C27.111 23.9389 27.3889 23.6153 27.6314 23.2761Z" fill="url(#paint4_linear_7089_25001)"/>
<path d="M23.4537 30.5663L21.9301 33.2248C21.6875 33.564 21.4096 33.8888 21.0492 34.102C20.6431 34.342 20.1651 34.4208 19.7022 34.4592H16.5458C15.7427 34.4428 14.9392 34.4592 14.1361 34.4592C13.3338 34.4592 12.5303 34.4428 11.7272 34.4592H8.57242C8.11946 34.4224 7.64983 34.346 7.25126 34.1176C6.86262 33.8948 6.56885 33.5472 6.31558 33.184L4.52281 30.0567C4.19014 29.4519 3.85429 28.8486 3.5109 28.2494C3.16751 27.6502 2.81697 27.0566 2.46406 26.4626L0.672081 23.3361C0.493042 22.9433 0.341791 22.5213 0.337821 22.0845C0.334645 21.6501 0.475177 21.2376 0.650246 20.8476L2.17466 18.1884C1.99959 18.5792 1.85826 18.9924 1.86064 19.4252C1.86461 19.8636 2.01586 20.2844 2.1957 20.6784L3.98768 23.8041C4.34139 24.3969 4.69073 24.9917 5.03452 25.591C5.37711 26.1902 5.71375 26.7934 6.04642 27.3974L7.8384 30.5255C8.09287 30.8871 8.38663 31.2363 8.77488 31.4583C9.17425 31.6863 9.64348 31.7623 10.096 31.7999H13.2505C14.0536 31.7843 17.2667 31.7843 18.0694 31.7999H21.2258C21.6887 31.7615 22.1671 31.6827 22.5728 31.4419C22.9332 31.2287 23.2107 30.9055 23.4537 30.5663Z" fill="url(#paint5_linear_7089_25001)"/>
<path d="M47.8215 9.716H53.9265V11.6585H47.8215V9.716ZM48.2285 6.275L50.06 6.6265C49.431 10.1415 48.3765 13.8415 47.063 16.2465C46.767 15.8765 46.0455 15.155 45.6385 14.8405C46.841 12.7685 47.7105 9.4755 48.2285 6.275ZM50.8555 10.974L52.7425 11.122C52.095 17.5045 50.3745 21.4265 45.8235 23.739C45.6385 23.3135 45.102 22.481 44.7505 22.0925C48.9315 20.224 50.393 16.672 50.8555 10.974ZM48.876 11.5105C49.542 16.1355 50.985 20.15 54.1485 21.9075C53.7045 22.2775 53.057 23.073 52.761 23.628C49.431 21.445 48.0805 17.0975 47.322 11.7325L48.876 11.5105ZM40.8655 6.2935H42.5305V16.1725H40.8655V6.2935ZM39.5335 8.791V11.529H43.9735V8.791H39.5335ZM37.8685 7.4035H45.7125V12.935H37.8685V7.4035ZM39.3855 14.711V15.525H44.0475V14.711H39.3855ZM37.554 13.4715H45.9715V16.783H37.554V13.4715ZM36.5735 9.3275H38.4235V9.4385H44.621V9.3275H46.693V10.9H44.621V10.789H38.4235V10.9H36.5735V9.3275ZM37.7205 20.52C38.664 19.3545 39.8295 17.5415 40.477 16.0615L42.2345 16.45C41.4945 18.041 40.3475 19.7985 39.4965 20.927L37.7205 20.52ZM37.7205 20.52L39.1265 19.373C41.476 19.928 44.325 21.0195 46.027 21.889L44.6395 23.1285C43.03 22.222 40.1255 21.0935 37.7205 20.52ZM43.3075 17.0605H45.0465V17.9855C45.0465 19.928 44.14 22.4995 37.258 23.6465C37.11 23.2395 36.703 22.5735 36.3885 22.222C42.6415 21.26 43.3075 19.2805 43.3075 17.9115V17.0605ZM36.777 17.597H46.582V19.077H36.777V17.597ZM61.937 9.4015H72.297V11.566H61.937V9.4015ZM63.0285 12.602L65.0265 12.1395C65.5815 14.6 66.118 17.782 66.303 19.6505L64.12 20.2795C63.9905 18.3555 63.5095 15.0995 63.0285 12.602ZM69.2445 12.084L71.5755 12.4355C71.039 15.562 70.2435 19.225 69.5405 21.5745L67.6165 21.1675C68.2825 18.7625 68.967 14.933 69.2445 12.084ZM61.271 20.7975H72.926V22.925H61.271V20.7975ZM65.452 6.5525L67.5795 6.016C67.931 6.9225 68.3195 8.0695 68.523 8.865L66.303 9.4755C66.1735 8.6985 65.785 7.459 65.452 6.5525ZM60.013 6.3675L62.1035 7.015C60.9195 10.1785 58.9955 13.5085 56.979 15.6175C56.7755 15.081 56.165 13.86 55.795 13.3235C57.46 11.64 59.0695 9.013 60.013 6.3675ZM58.1445 11.4735L60.383 9.235V9.2535V23.6465H58.1445V11.4735ZM82.2685 6.312H84.803C84.692 10.1415 84.581 19.077 76.848 23.628C76.441 23.036 75.7195 22.333 74.998 21.8335C82.5275 17.782 82.176 9.4755 82.2685 6.312ZM84.5995 8.569C84.7475 10.0675 85.3395 18.3925 92.5545 21.6115C91.8885 22.1295 91.2595 22.888 90.9265 23.517C83.3415 19.9095 82.731 10.6595 82.4535 8.8095L84.5995 8.569ZM97.5495 9.642H110.426V11.8065H97.5495V9.642ZM96.791 15.0995H109.723V17.227H96.791V15.0995ZM94.645 20.964H111.369V23.1285H94.645V20.964ZM101.842 6.2935H104.154V22.037H101.842V6.2935ZM97.568 6.5155L99.862 7.0335C99.048 9.901 97.6975 12.75 96.2545 14.526C95.8105 14.1375 94.83 13.49 94.2565 13.1755C95.718 11.6215 96.902 9.0685 97.568 6.5155Z" fill="#2B2B2B"/>
<path d="M36.6321 34V26.7273H39.544C40.0791 26.7273 40.5253 26.8066 40.8828 26.9652C41.2403 27.1238 41.509 27.344 41.6889 27.6257C41.8688 27.9051 41.9588 28.227 41.9588 28.5916C41.9588 28.8757 41.902 29.1255 41.7884 29.3409C41.6747 29.554 41.5185 29.7292 41.3196 29.8665C41.1231 30.0014 40.8982 30.0973 40.6449 30.1541V30.2251C40.9219 30.237 41.1811 30.3151 41.4226 30.4595C41.6664 30.6039 41.8641 30.8063 42.0156 31.0668C42.1671 31.3248 42.2429 31.6326 42.2429 31.9901C42.2429 32.3759 42.147 32.7204 41.9553 33.0234C41.7659 33.3241 41.4853 33.562 41.1136 33.7372C40.742 33.9124 40.2839 34 39.7393 34H36.6321ZM38.1697 32.7429H39.4233C39.8518 32.7429 40.1643 32.6612 40.3608 32.4979C40.5573 32.3321 40.6555 32.112 40.6555 31.8374C40.6555 31.6361 40.607 31.4586 40.5099 31.3047C40.4129 31.1508 40.2744 31.0301 40.0945 30.9425C39.9169 30.8549 39.705 30.8111 39.4588 30.8111H38.1697V32.7429ZM38.1697 29.7706H39.3097C39.5204 29.7706 39.7074 29.7339 39.8707 29.6605C40.0365 29.5848 40.1667 29.4782 40.2614 29.3409C40.3584 29.2036 40.407 29.0391 40.407 28.8473C40.407 28.5845 40.3134 28.3726 40.1264 28.2116C39.9418 28.0507 39.679 27.9702 39.3381 27.9702H38.1697V29.7706ZM43.515 34V28.5455H44.9816V29.4972H45.0385C45.1379 29.1586 45.3048 28.9029 45.5392 28.7301C45.7735 28.5549 46.0434 28.4673 46.3488 28.4673C46.4246 28.4673 46.5063 28.4721 46.5939 28.4815C46.6815 28.491 46.7584 28.504 46.8247 28.5206V29.8629C46.7537 29.8416 46.6554 29.8227 46.5299 29.8061C46.4045 29.7895 46.2896 29.7812 46.1855 29.7812C45.9629 29.7812 45.7641 29.8298 45.5889 29.9268C45.4161 30.0215 45.2788 30.1541 45.177 30.3246C45.0775 30.495 45.0278 30.6915 45.0278 30.9141V34H43.515ZM51.4047 31.6776V28.5455H52.9175V34H51.4651V33.0092H51.4082C51.2851 33.3288 51.0804 33.5857 50.7939 33.7798C50.5098 33.974 50.163 34.071 49.7534 34.071C49.3888 34.071 49.068 33.9882 48.7911 33.8224C48.5141 33.6567 48.2974 33.4212 48.1412 33.1158C47.9873 32.8104 47.9092 32.4446 47.9068 32.0185V28.5455H49.4196V31.7486C49.422 32.0705 49.5084 32.325 49.6788 32.5121C49.8493 32.6991 50.0777 32.7926 50.3642 32.7926C50.5465 32.7926 50.717 32.7512 50.8756 32.6683C51.0342 32.5831 51.162 32.4576 51.2591 32.2919C51.3585 32.1262 51.4071 31.9214 51.4047 31.6776ZM58.9659 30.1009L57.5809 30.1861C57.5573 30.0677 57.5064 29.9612 57.4282 29.8665C57.3501 29.7694 57.2471 29.6925 57.1193 29.6357C56.9938 29.5765 56.8435 29.5469 56.6683 29.5469C56.4339 29.5469 56.2362 29.5966 56.0752 29.696C55.9143 29.7931 55.8338 29.9233 55.8338 30.0866C55.8338 30.2169 55.8859 30.3269 55.99 30.4169C56.0942 30.5069 56.2729 30.5791 56.5262 30.6335L57.5135 30.8324C58.0438 30.9413 58.4391 31.1165 58.6995 31.358C58.96 31.5994 59.0902 31.9167 59.0902 32.3097C59.0902 32.6671 58.9848 32.9808 58.7741 33.2507C58.5658 33.5206 58.2793 33.7313 57.9147 33.8828C57.5525 34.032 57.1347 34.1065 56.6612 34.1065C55.9391 34.1065 55.3638 33.9562 54.9353 33.6555C54.5092 33.3525 54.2594 32.9406 54.186 32.4197L55.674 32.3416C55.719 32.5618 55.8279 32.7299 56.0007 32.8459C56.1735 32.9595 56.3949 33.0163 56.6647 33.0163C56.9299 33.0163 57.143 32.9654 57.3039 32.8636C57.4673 32.7595 57.5502 32.6257 57.5525 32.4624C57.5502 32.325 57.4922 32.2126 57.3785 32.125C57.2649 32.035 57.0897 31.9664 56.8529 31.919L55.9083 31.7308C55.3757 31.6243 54.9791 31.4396 54.7187 31.1768C54.4607 30.9141 54.3316 30.5791 54.3316 30.1719C54.3316 29.8215 54.4263 29.5196 54.6157 29.2663C54.8075 29.013 55.0762 28.8177 55.4218 28.6804C55.7699 28.5431 56.177 28.4744 56.6434 28.4744C57.3324 28.4744 57.8745 28.62 58.2699 28.9112C58.6676 29.2024 58.8996 29.599 58.9659 30.1009ZM61.8555 30.8466V34H60.3428V26.7273H61.8129V29.5078H61.8768C62 29.1858 62.1988 28.9337 62.4734 28.7514C62.7481 28.5668 63.0925 28.4744 63.5068 28.4744C63.8856 28.4744 64.2159 28.5573 64.4976 28.723C64.7817 28.8864 65.0018 29.1219 65.1581 29.4297C65.3167 29.7351 65.3948 30.1009 65.3925 30.527V34H63.8797V30.7969C63.8821 30.4607 63.7968 30.1991 63.624 30.0121C63.4536 29.825 63.2144 29.7315 62.9067 29.7315C62.7007 29.7315 62.5184 29.7753 62.3598 29.8629C62.2036 29.9505 62.0804 30.0784 61.9905 30.2464C61.9029 30.4122 61.8579 30.6122 61.8555 30.8466ZM72.9953 31.6776V28.5455H74.5081V34H73.0557V33.0092H72.9989C72.8758 33.3288 72.671 33.5857 72.3845 33.7798C72.1004 33.974 71.7536 34.071 71.344 34.071C70.9795 34.071 70.6587 33.9882 70.3817 33.8224C70.1047 33.6567 69.8881 33.4212 69.7318 33.1158C69.5779 32.8104 69.4998 32.4446 69.4974 32.0185V28.5455H71.0102V31.7486C71.0126 32.0705 71.099 32.325 71.2695 32.5121C71.4399 32.6991 71.6684 32.7926 71.9548 32.7926C72.1371 32.7926 72.3076 32.7512 72.4662 32.6683C72.6248 32.5831 72.7527 32.4576 72.8497 32.2919C72.9491 32.1262 72.9977 31.9214 72.9953 31.6776ZM76.0181 36.0455V28.5455H77.5096V29.4616H77.5771C77.6434 29.3149 77.7393 29.1657 77.8647 29.0142C77.9926 28.8603 78.1583 28.7325 78.3619 28.6307C78.5679 28.5265 78.8235 28.4744 79.1289 28.4744C79.5267 28.4744 79.8936 28.5786 80.2298 28.7869C80.566 28.9929 80.8347 29.3042 81.0359 29.7209C81.2371 30.1352 81.3377 30.6548 81.3377 31.2798C81.3377 31.8883 81.2395 32.402 81.043 32.821C80.8489 33.2377 80.5837 33.5537 80.2475 33.7692C79.9137 33.9822 79.5397 34.0888 79.1254 34.0888C78.8318 34.0888 78.5821 34.0402 78.3761 33.9432C78.1725 33.8461 78.0056 33.7242 77.8754 33.5774C77.7452 33.4283 77.6457 33.2779 77.5771 33.1264H77.5309V36.0455H76.0181ZM77.499 31.2727C77.499 31.5971 77.5439 31.88 77.6339 32.1214C77.7239 32.3629 77.8541 32.5511 78.0245 32.6861C78.195 32.8187 78.4021 32.8849 78.646 32.8849C78.8922 32.8849 79.1005 32.8175 79.271 32.6825C79.4414 32.5452 79.5705 32.3558 79.6581 32.1143C79.748 31.8705 79.793 31.59 79.793 31.2727C79.793 30.9579 79.7492 30.6809 79.6616 30.4418C79.574 30.2027 79.445 30.0156 79.2745 29.8807C79.1041 29.7457 78.8946 29.6783 78.646 29.6783C78.3998 29.6783 78.1914 29.7434 78.021 29.8736C77.8529 30.0038 77.7239 30.1884 77.6339 30.4276C77.5439 30.6667 77.499 30.9484 77.499 31.2727ZM85.2891 34V26.7273H90.1897V27.995H86.8268V29.728H89.9376V30.9957H86.8268V32.7322H90.2039V34H85.2891ZM95.0822 30.4134V31.6136H91.7654V30.4134H95.0822ZM98.1841 26.7273V34H96.6713V26.7273H98.1841ZM99.6959 34V28.5455H101.209V34H99.6959ZM100.456 27.8423C100.231 27.8423 100.038 27.7678 99.877 27.6186C99.7184 27.4671 99.6391 27.286 99.6391 27.0753C99.6391 26.867 99.7184 26.6882 99.877 26.5391C100.038 26.3875 100.231 26.3118 100.456 26.3118C100.681 26.3118 100.872 26.3875 101.031 26.5391C101.192 26.6882 101.273 26.867 101.273 27.0753C101.273 27.286 101.192 27.4671 101.031 27.6186C100.872 27.7678 100.681 27.8423 100.456 27.8423ZM105.654 28.5455V29.6818H102.287V28.5455H105.654ZM103.058 34V28.1513C103.058 27.7559 103.135 27.428 103.289 27.1676C103.445 26.9072 103.658 26.7119 103.928 26.5817C104.198 26.4515 104.504 26.3864 104.848 26.3864C105.08 26.3864 105.292 26.4041 105.483 26.4396C105.677 26.4751 105.822 26.5071 105.917 26.5355L105.647 27.6719C105.587 27.6529 105.514 27.6352 105.426 27.6186C105.341 27.602 105.254 27.5938 105.164 27.5938C104.941 27.5938 104.786 27.6458 104.698 27.75C104.611 27.8518 104.567 27.995 104.567 28.1797V34H103.058ZM109.168 34.1065C108.607 34.1065 108.124 33.9929 107.72 33.7656C107.317 33.536 107.007 33.2116 106.789 32.7926C106.571 32.3712 106.462 31.8729 106.462 31.2976C106.462 30.7365 106.571 30.2441 106.789 29.8203C107.007 29.3965 107.314 29.0663 107.709 28.8295C108.107 28.5928 108.573 28.4744 109.108 28.4744C109.468 28.4744 109.803 28.5324 110.113 28.6484C110.425 28.7621 110.698 28.9337 110.93 29.1634C111.164 29.393 111.346 29.6818 111.477 30.0298C111.607 30.3755 111.672 30.7803 111.672 31.2443V31.6598H107.066V30.7223H110.248C110.248 30.5045 110.201 30.3116 110.106 30.1435C110.011 29.9754 109.88 29.844 109.712 29.7493C109.546 29.6522 109.353 29.6037 109.133 29.6037C108.903 29.6037 108.7 29.657 108.522 29.7635C108.347 29.8677 108.21 30.0085 108.11 30.1861C108.011 30.3613 107.96 30.5566 107.957 30.772V31.6634C107.957 31.9332 108.007 32.1664 108.107 32.3629C108.208 32.5594 108.352 32.7109 108.536 32.8175C108.721 32.924 108.94 32.9773 109.193 32.9773C109.361 32.9773 109.515 32.9536 109.655 32.9062C109.795 32.8589 109.914 32.7879 110.014 32.6932C110.113 32.5985 110.189 32.4825 110.241 32.3452L111.64 32.4375C111.569 32.7737 111.423 33.0672 111.203 33.3182C110.985 33.5668 110.704 33.7609 110.358 33.9006C110.015 34.0379 109.618 34.1065 109.168 34.1065Z" fill="#2B2B2B"/>
<defs>
<linearGradient id="paint0_linear_7089_25001" x1="29.2225" y1="18.9402" x2="8.0616" y2="6.13209" gradientUnits="userSpaceOnUse">
<stop stop-color="#0579C3"/>
<stop offset="1" stop-color="#1199E6"/>
</linearGradient>
<linearGradient id="paint1_linear_7089_25001" x1="7.05847" y1="12.6787" x2="9.23538" y2="8.9365" gradientUnits="userSpaceOnUse">
<stop stop-color="#05699F"/>
<stop offset="1" stop-color="#0579C3"/>
</linearGradient>
<linearGradient id="paint2_linear_7089_25001" x1="4.17822" y1="17.7584" x2="29.4763" y2="17.7584" gradientUnits="userSpaceOnUse">
<stop stop-color="#3BB3F5"/>
<stop offset="1" stop-color="#BBE3FC"/>
</linearGradient>
<linearGradient id="paint3_linear_7089_25001" x1="0" y1="25.7868" x2="24.4561" y2="25.7868" gradientUnits="userSpaceOnUse">
<stop stop-color="#3BB3F5"/>
<stop offset="1" stop-color="#BBE3FC"/>
</linearGradient>
<linearGradient id="paint4_linear_7089_25001" x1="4.5155" y1="19.034" x2="27.6314" y2="19.034" gradientUnits="userSpaceOnUse">
<stop stop-color="#3BB3F5"/>
<stop offset="1" stop-color="#BBE3FC"/>
</linearGradient>
<linearGradient id="paint5_linear_7089_25001" x1="0.337769" y1="26.3238" x2="23.4537" y2="26.3238" gradientUnits="userSpaceOnUse">
<stop stop-color="#3BB3F5"/>
<stop offset="1" stop-color="#BBE3FC"/>
</linearGradient>
</defs>
</svg>
