<svg width="120" height="40" viewBox="0 0 120 40" fill="none" xmlns="http://www.w3.org/2000/svg">
<path d="M45.8621 17.7704C45.2072 18.8727 44.3073 19.9743 43.2637 20.7792C44.2456 21.3304 45.4733 21.7961 46.5369 22.1992H42.5474C42.3841 22.1353 42.016 21.945 41.8316 21.8382C41.5456 22.0507 41.0958 22.3469 40.809 22.5165H36.7999C37.8225 22.1992 39.2132 21.5206 40.2365 20.9063C39.541 20.4822 38.8459 20.0589 38.395 19.6562C38.0886 19.3806 38.1699 18.8934 38.3547 18.5972C38.4973 18.3641 38.7841 18.0043 38.9885 17.7704H37.0664V16.5211H39.9912C40.2572 16.1816 40.5433 15.8 40.8094 15.4613H38.9275C38.5591 15.4613 38.232 15.3557 37.9866 15.144C37.7205 14.9324 37.5564 14.6143 37.5564 14.2327V12.9827C37.5564 12.4954 37.7408 12.1781 38.0269 11.9665C38.3137 11.754 38.7232 11.6695 39.1112 11.6695H41.2591V10.8221H39.2749C38.9881 10.8221 38.62 10.695 38.3547 10.4405C38.1093 10.2288 37.9245 9.91074 37.9245 9.52914V8.49152H37.0453V7.26291H37.9245V6.45761C37.9245 6.05574 38.0679 5.71624 38.2723 5.4617C38.4973 5.1869 38.8045 5.01696 39.1315 5.01696H41.2588V4H42.9569V5.01696H45.0842C45.4937 5.01696 45.8414 5.1869 46.0661 5.4617C46.2912 5.71585 46.4139 6.05535 46.4139 6.41551V7.26291H47.3755V8.49152H46.4139V9.36036C46.4139 9.76223 46.2912 10.1438 46.0251 10.4194C45.8 10.6736 45.473 10.8221 45.0232 10.8221H42.9569V11.6695H45.5144C45.8621 11.6695 46.2099 11.8597 46.4553 12.1992C46.5979 12.4108 46.7007 12.6864 46.7007 13.0037V13.9365C46.7007 14.4023 46.6182 14.7839 46.3936 15.038C46.1685 15.3128 45.8211 15.4613 45.269 15.4613H42.9983C42.6705 15.8 42.3638 16.161 42.1391 16.5211H47.3966V17.7704H45.8621ZM41.2588 12.9409H39.643C39.4586 12.9409 39.2745 13.1101 39.2745 13.3226V13.8729C39.2745 14.0214 39.4386 14.191 39.5809 14.191H41.2584L41.2588 12.9409ZM41.2588 6.26739H39.9494C39.786 6.26739 39.6223 6.45761 39.6223 6.67005V7.26291H41.2588V6.26739ZM41.2588 8.49191H39.6223V9.12766C39.6223 9.36075 39.8267 9.50926 39.9701 9.50926H41.2588V8.49191ZM41.1568 17.7704C40.8707 18.1314 40.6046 18.4701 40.3799 18.8303C40.3389 18.8727 40.3389 18.9788 40.4006 19.0205C40.8711 19.36 41.2388 19.5931 41.7296 19.8893C42.4869 19.2964 43.2437 18.5761 43.7959 17.7704H41.1568ZM44.6758 6.67005C44.6758 6.4159 44.5531 6.26739 44.328 6.26739H42.9569V7.2633H44.6754V6.67005H44.6758ZM44.6758 8.49191H42.9573V9.50887H44.3284C44.5328 9.50887 44.6762 9.31787 44.6762 9.12727L44.6758 8.49191ZM45.0232 13.3428C45.0232 13.1097 44.8388 12.9409 44.6344 12.9409H42.9569V14.191H44.6551C44.8388 14.191 45.0236 14 45.0236 13.8094V13.3428H45.0232ZM52.7963 22.5165C52.1422 21.5206 51.549 20.4822 50.9762 19.4446C50.3213 20.4822 49.5238 21.5634 48.7259 22.5165H46.3522C47.7436 21.0123 49.1757 19.0844 50.0142 17.39C49.257 15.5888 48.6028 13.6613 48.0914 11.754H46.8027C47.8046 9.31787 48.3774 6.67005 48.7662 4H50.5663C50.4847 4.78425 50.2796 6.01286 50.1166 6.92341H54.8419V8.30053H53.901C53.6759 11.521 53.1644 14.5929 51.9781 17.3896C52.7354 19.19 53.901 20.9273 55.108 22.5161L52.7963 22.5165ZM49.8302 8.30053C49.6051 9.21185 49.339 10.3765 48.951 11.3518H49.8302C50.158 12.5379 50.5667 13.7665 50.9962 14.8681C51.6307 12.7921 51.9378 10.5886 52.1012 8.30014H49.8302V8.30053Z" fill="white"/>
<path d="M60.18 10.1018H61.2437V22.5797H59.3825V10.8853H57.5616C59.0141 8.7461 60.0167 6.43622 60.8146 4.02148H62.8598C62.1029 6.09749 61.2851 8.23743 60.18 10.1018ZM62.1846 22.5797V21.0763H69.2012C70.4492 17.6648 71.4515 14.1057 71.8813 10.3349H73.8042C73.313 14.0636 72.2494 17.6227 71.0631 21.0763H75.584V22.5797H62.1846ZM62.8594 8.70361V7.19942H68.1579C67.8309 6.18325 67.5234 5.12341 67.3397 4.02187H69.2215C69.406 5.12341 69.7127 6.16181 70.1015 7.19942H74.8268V8.70361H62.8594ZM65.8463 18.7032C64.987 16.3088 64.3739 13.1951 64.0054 10.3349H65.8463C66.2147 13.2368 66.8696 16.034 67.8105 18.7032H65.8463Z" fill="white"/>
<path d="M93.6452 22.6435C91.1288 19.9743 88.5518 16.1816 87.3448 12.7281C86.0761 16.8384 84.1536 19.7201 81.0237 22.6435H78.1599C82.1897 19.2746 84.6647 15.3557 85.688 11.3307C86.1792 9.33931 86.3019 5.92867 86.3019 4H88.3064C88.3264 6.33054 88.0403 10.2502 87.5288 12.0296H89.1246C90.597 15.9489 93.072 19.466 96.55 22.6435H93.6452Z" fill="white"/>
<path d="M99.0644 22.538V21.0338H106.981V15.7584H100.149V14.2542H106.981V9.42355H102.746C102.378 10.589 101.785 12.0297 101.294 12.8135H99.0234C100.415 10.7582 101.458 7.66483 101.806 5.29258H103.79C103.667 5.97003 103.381 7.1776 103.177 7.8987H106.981V4.02148H108.822V7.8987H116.33V9.42355H108.822V14.2542H115.695V15.7584H108.822V21.0334H116.8V22.5376L99.0644 22.538Z" fill="white"/>
<path d="M42.4929 31.6488C42.4929 32.4635 42.2215 33.0528 41.6807 33.4173C41.1391 33.7821 40.3604 33.9638 39.3468 33.9638C38.5463 33.9638 37.9494 33.924 37.5561 33.8457C37.3766 33.8098 37.249 33.7529 37.1729 33.6746C37.0965 33.5962 37.0589 33.4598 37.0589 33.2672V26.5138C37.0589 26.3278 37.0935 26.1926 37.1624 26.1064C37.2309 26.0211 37.3521 25.9642 37.5241 25.9353C37.9731 25.8636 38.5489 25.8281 39.2531 25.8281C41.3781 25.8281 42.4406 26.5535 42.4406 28.0039V28.2187C42.4406 28.5835 42.3597 28.9098 42.1978 29.1994C42.0352 29.4886 41.7993 29.7018 41.4884 29.8375C42.1572 30.1306 42.4925 30.6736 42.4925 31.4668L42.4929 31.6488ZM41.0439 28.2397V28.0897C41.0439 27.7112 40.9107 27.445 40.6453 27.291C40.3792 27.137 39.9155 27.0602 39.2531 27.0602C39.0393 27.0602 38.7872 27.068 38.4974 27.0825V29.2583H39.8117C40.6329 29.2583 41.0439 28.9188 41.0439 28.2397ZM41.0853 31.6266V31.4875C41.0853 31.1518 40.9852 30.8786 40.7853 30.6673C40.5847 30.4572 40.2603 30.3512 39.812 30.3512H38.4978V32.7098C38.5809 32.7098 38.7255 32.7129 38.9321 32.7204C39.1395 32.7274 39.2776 32.7309 39.3468 32.7309C39.9886 32.7309 40.4383 32.6432 40.6973 32.4682C40.9562 32.2931 41.0853 32.0125 41.0853 31.6266Z" fill="white"/>
<path d="M47.2676 28.7436C47.2676 28.8005 47.247 28.8508 47.2059 28.8937C47.1642 28.9361 47.1163 28.9584 47.061 28.9584C46.5845 28.9584 46.1084 29.0862 45.6327 29.3435V33.6534C45.6327 33.7103 45.6113 33.7621 45.5702 33.8085C45.5292 33.8549 45.4807 33.8779 45.4253 33.8779H44.4735C44.4178 33.8779 44.37 33.8549 44.3286 33.8085C44.2868 33.7621 44.2661 33.7103 44.2661 33.6534V28.047C44.2661 27.9901 44.2868 27.9398 44.3286 27.897C44.3696 27.8537 44.4174 27.8323 44.4735 27.8323H45.3741C45.4291 27.8323 45.4769 27.8537 45.519 27.897C45.5601 27.9395 45.5808 27.9897 45.5808 28.047V28.2716C46.0087 27.9289 46.5017 27.7578 47.0614 27.7578C47.1164 27.7578 47.1641 27.7793 47.2063 27.8217C47.2473 27.8642 47.268 27.9145 47.268 27.9718V28.7436H47.2676Z" fill="white"/>
<path d="M53.5586 33.6636C53.5586 33.7206 53.5379 33.7701 53.4969 33.8137C53.4551 33.8562 53.4066 33.8776 53.3512 33.8776H52.3994C52.3445 33.8776 52.2959 33.8562 52.2545 33.8137C52.2135 33.7704 52.192 33.7209 52.192 33.6636V33.4169C51.6677 33.774 51.1261 33.9529 50.5676 33.9529C50.0091 33.9529 49.5842 33.8028 49.2944 33.5023C48.9496 33.1452 48.7769 32.4951 48.7769 31.5518V28.0573C48.7769 28.0004 48.7976 27.9486 48.8393 27.9022C48.8804 27.8558 48.9282 27.832 48.9842 27.832H49.9361C49.991 27.832 50.0396 27.8558 50.081 27.9022C50.1224 27.9486 50.1434 28.0004 50.1434 28.0573V31.5518C50.1434 32.0877 50.2221 32.4304 50.3809 32.5812C50.5266 32.7098 50.7396 32.7738 51.0226 32.7738C51.285 32.7738 51.6745 32.6307 52.192 32.345V28.0573C52.192 28.0004 52.2135 27.9486 52.2545 27.9022C52.2955 27.8558 52.3441 27.832 52.3994 27.832H53.3512C53.4062 27.832 53.4547 27.8558 53.4969 27.9022C53.5379 27.9486 53.5586 28.0004 53.5586 28.0573V33.6636Z" fill="white"/>
<path d="M59.3911 32.2909C59.3911 32.7774 59.2154 33.1769 58.8635 33.4915C58.5112 33.8068 58.0114 33.9635 57.3625 33.9635C56.6451 33.9635 56.0275 33.8918 55.51 33.7488C55.379 33.7129 55.3139 33.6306 55.3139 33.502V32.8596C55.3139 32.8164 55.3309 32.7774 55.3655 32.7415C55.4001 32.7057 55.4411 32.6874 55.4897 32.6874H55.5307C56.1378 32.7665 56.7178 32.8055 57.2699 32.8055C57.5661 32.8055 57.7633 32.763 57.8593 32.6768C57.9564 32.5915 58.0042 32.4628 58.0042 32.2909C58.0042 32.1198 57.8529 31.9378 57.5492 31.7445L56.131 30.8444C55.8687 30.68 55.6583 30.4675 55.4995 30.2064C55.3406 29.9452 55.2612 29.6649 55.2612 29.3652C55.2612 28.2933 55.9169 27.7573 57.2278 27.7573C57.8145 27.7573 58.4287 27.829 59.0705 27.9713C59.1947 28.0072 59.2564 28.0894 59.2564 28.2181V28.8402C59.2564 28.9758 59.2014 29.0432 59.0912 29.0432H59.0501C58.4701 28.9579 57.9011 28.9146 57.3418 28.9146C57.0866 28.9146 56.9037 28.9489 56.7934 29.0167C56.6831 29.0846 56.6282 29.2011 56.6282 29.3656C56.6282 29.4439 56.6591 29.5133 56.7215 29.5741C56.7833 29.6349 56.8898 29.7121 57.0422 29.8049L58.3979 30.662C58.7983 30.9127 59.0641 31.166 59.1954 31.4233C59.3256 31.6805 59.3911 31.9698 59.3911 32.2909Z" fill="white"/>
<path d="M65.8292 33.6528C65.8292 33.7097 65.8085 33.7615 65.7667 33.8079C65.7257 33.8543 65.6771 33.8773 65.6218 33.8773H64.67C64.615 33.8773 64.5665 33.8543 64.5251 33.8079C64.4833 33.7615 64.4626 33.7097 64.4626 33.6528V30.1256C64.4626 29.6543 64.4076 29.3413 64.2974 29.1878C64.1871 29.0346 63.9594 28.9578 63.6146 28.9578C63.2623 28.9578 62.8619 29.079 62.4136 29.3219V33.6528C62.4136 33.7097 62.3929 33.7615 62.3519 33.8079C62.3109 33.8543 62.2623 33.8773 62.207 33.8773H61.2544C61.1995 33.8773 61.1517 33.8543 61.1095 33.8079C61.0685 33.7615 61.0478 33.7097 61.0478 33.6528V25.935C61.0478 25.8781 61.0685 25.8278 61.1095 25.7849C61.1513 25.7424 61.1991 25.7202 61.2544 25.7202H62.207C62.262 25.7202 62.3105 25.7424 62.3519 25.7849C62.3933 25.8274 62.4136 25.8777 62.4136 25.935V28.154C62.8348 27.889 63.3561 27.7572 63.9763 27.7572C65.2119 27.7572 65.8296 28.5466 65.8296 30.1256V33.6528H65.8292Z" fill="white"/>
<path d="M75.786 33.6636C75.786 33.7206 75.7653 33.7701 75.7235 33.8137C75.6825 33.8562 75.6339 33.8776 75.5786 33.8776H74.6268C74.5718 33.8776 74.5233 33.8562 74.4819 33.8137C74.4401 33.7704 74.4194 33.7209 74.4194 33.6636V33.4169C73.8951 33.774 73.3535 33.9529 72.795 33.9529C72.2357 33.9529 71.8115 33.8028 71.5217 33.5023C71.1762 33.1452 71.0042 32.4951 71.0042 31.5518V28.0573C71.0042 28.0004 71.0249 27.9486 71.0659 27.9022C71.1077 27.8558 71.1555 27.832 71.2108 27.832H72.1634C72.2184 27.832 72.2669 27.8558 72.3083 27.9022C72.3497 27.9486 72.3701 28.0004 72.3701 28.0573V31.5518C72.3701 32.0877 72.4495 32.4304 72.6083 32.5812C72.7532 32.7098 72.967 32.7738 73.25 32.7738C73.5123 32.7738 73.9019 32.6307 74.4194 32.345V28.0573C74.4194 28.0004 74.4401 27.9486 74.4819 27.9022C74.5229 27.8558 74.5714 27.832 74.6268 27.832H75.5786C75.6335 27.832 75.6821 27.8558 75.7235 27.9022C75.7653 27.9486 75.786 28.0004 75.786 28.0573V33.6636Z" fill="white"/>
<path d="M82.5424 31.2732C82.5424 32.1237 82.3335 32.7844 81.9161 33.2564C81.4988 33.7277 80.8834 33.9635 80.0689 33.9635C79.7652 33.9635 79.4336 33.9386 79.0749 33.8883V35.7854C79.0749 35.8431 79.0542 35.8926 79.0132 35.9362C78.9722 35.9787 78.9236 36.0002 78.8683 36.0002H77.9157C77.8608 36.0002 77.813 35.9787 77.7708 35.9362C77.7298 35.893 77.7091 35.8435 77.7091 35.7854V28.3252C77.7091 28.2391 77.726 28.1767 77.7607 28.1374C77.7953 28.0984 77.8709 28.0641 77.9884 28.036C78.6854 27.8501 79.3783 27.7573 80.0686 27.7573C80.883 27.7573 81.4984 27.9928 81.9158 28.4644C82.3332 28.9357 82.542 29.5971 82.542 30.4476V31.2732H82.5424ZM81.1766 31.2732V30.448C81.1766 29.9616 81.0949 29.5846 80.9335 29.3169C80.7709 29.0487 80.4829 28.915 80.0689 28.915C79.6346 28.915 79.303 28.9399 79.0749 28.9902V32.7314C79.4129 32.7809 79.7445 32.8059 80.0689 32.8059C80.4829 32.8059 80.7709 32.6718 80.9335 32.404C81.0949 32.1358 81.1766 31.7589 81.1766 31.2732Z" fill="white"/>
<path d="M92.1786 33.5884C92.1786 33.6601 92.1631 33.7116 92.1315 33.7435C92.1007 33.7755 92.0468 33.7993 91.9712 33.8137C91.3502 33.9135 90.6942 33.9638 90.0047 33.9638C89.6385 33.9638 89.3231 33.9334 89.0577 33.8726C88.7916 33.8125 88.5432 33.705 88.3125 33.5514C88.081 33.3974 87.9068 33.1721 87.7897 32.8763C87.6723 32.5792 87.6132 32.2101 87.6132 31.7661V28.0257C87.6132 27.5826 87.6719 27.2127 87.7897 26.9156C87.9068 26.6194 88.0807 26.3941 88.3125 26.2405C88.5432 26.0873 88.7916 25.9801 89.0577 25.9193C89.3231 25.8585 89.6385 25.8281 90.0047 25.8281C90.6942 25.8281 91.3498 25.8784 91.9712 25.9782C92.0468 25.9926 92.1007 26.0164 92.1315 26.0484C92.1631 26.0803 92.1786 26.1322 92.1786 26.2035V26.8895C92.1786 26.9464 92.1571 26.9967 92.1161 27.0396C92.0751 27.0829 92.0265 27.1043 91.9712 27.1043H89.8601C89.5564 27.1043 89.3441 27.1706 89.2237 27.3023C89.1025 27.4348 89.0423 27.6761 89.0423 28.0261V29.1834H91.8474C91.9023 29.1834 91.9509 29.2049 91.9923 29.2481C92.034 29.2906 92.0547 29.3409 92.0547 29.3982V30.17C92.0547 30.2269 92.034 30.2764 91.9923 30.32C91.9512 30.3625 91.9027 30.384 91.8474 30.384H89.0423V31.7665C89.0423 32.1173 89.1025 32.3582 89.2237 32.4904C89.3441 32.6229 89.5568 32.6884 89.8601 32.6884H91.9712C92.0261 32.6884 92.0747 32.7106 92.1161 32.7531C92.1575 32.7956 92.1786 32.8459 92.1786 32.9032V33.5884Z" fill="white"/>
<path d="M96.211 30.9191C96.211 31.0477 96.1455 31.1124 96.0149 31.1124H93.9859C93.8477 31.1124 93.7792 31.0477 93.7792 30.9191V30.2436C93.7792 30.1867 93.7999 30.1384 93.841 30.099C93.882 30.06 93.9305 30.0405 93.9859 30.0405H96.0149C96.1458 30.0405 96.211 30.1083 96.211 30.2436V30.9191Z" fill="white"/>
<path d="M102.427 33.5881C102.427 33.6598 102.413 33.7113 102.386 33.7432C102.358 33.7752 102.302 33.799 102.22 33.8134C101.806 33.9132 101.22 33.9635 100.461 33.9635C100.094 33.9635 99.7789 33.9331 99.5136 33.8723C99.2475 33.8122 98.9991 33.7047 98.7684 33.5511C98.5369 33.3971 98.3626 33.1718 98.2456 32.876C98.1282 32.5789 98.0698 32.2098 98.0698 31.7658V26.1276C98.0698 26.0707 98.0905 26.0212 98.1315 25.9775C98.1726 25.935 98.2211 25.9136 98.2765 25.9136H99.3013C99.3563 25.9136 99.4048 25.935 99.4462 25.9775C99.488 26.0208 99.5087 26.0703 99.5087 26.1276V31.7658C99.5087 32.1167 99.5666 32.3575 99.6844 32.4897C99.8023 32.6218 100.012 32.6877 100.316 32.6877H102.221C102.276 32.6877 102.324 32.7099 102.366 32.7524C102.407 32.7949 102.427 32.8452 102.427 32.9025V33.5881H102.427Z" fill="white"/>
<path d="M105.384 26.8144C105.384 26.8713 105.364 26.9208 105.323 26.9645C105.282 27.007 105.233 27.0284 105.178 27.0284H104.174C104.119 27.0284 104.069 27.007 104.024 26.9645C103.979 26.9212 103.956 26.8717 103.956 26.8144V25.8707C103.956 25.8138 103.979 25.7643 104.024 25.7207C104.069 25.6782 104.119 25.6567 104.174 25.6567H105.178C105.233 25.6567 105.281 25.6782 105.323 25.7207C105.364 25.7639 105.384 25.8134 105.384 25.8707V26.8144ZM105.353 33.6532C105.353 33.7101 105.333 33.762 105.292 33.8084C105.25 33.8548 105.202 33.8777 105.147 33.8777H104.194C104.139 33.8777 104.091 33.8548 104.049 33.8084C104.008 33.762 103.988 33.7101 103.988 33.6532V28.0473C103.988 27.9904 104.008 27.9401 104.049 27.8972C104.09 27.854 104.139 27.8325 104.194 27.8325H105.147C105.202 27.8325 105.25 27.854 105.292 27.8972C105.333 27.9397 105.353 27.99 105.353 28.0473V33.6532Z" fill="white"/>
<path d="M110.573 26.4816C110.573 26.6032 110.521 26.6636 110.418 26.6636H109.952C109.704 26.6636 109.54 26.7053 109.461 26.7868C109.381 26.869 109.342 27.0425 109.342 27.3068V27.8322H110.336C110.391 27.8322 110.438 27.8536 110.481 27.8969C110.522 27.9394 110.542 27.9897 110.542 28.047V28.6901C110.542 28.747 110.522 28.7954 110.481 28.8347C110.439 28.8737 110.391 28.8932 110.336 28.8932H109.342V33.6529C109.342 33.7098 109.321 33.7616 109.279 33.808C109.238 33.8544 109.19 33.8774 109.134 33.8774H108.193C108.138 33.8774 108.088 33.8544 108.043 33.808C107.998 33.7616 107.975 33.7098 107.975 33.6529V28.8932L107.054 28.7431C106.916 28.7151 106.847 28.6465 106.847 28.5393V28.0466C106.847 27.9897 106.868 27.9394 106.909 27.8965C106.95 27.8532 106.999 27.8318 107.054 27.8318H107.975V27.3064C107.975 26.6562 108.127 26.208 108.431 25.9612C108.735 25.7145 109.179 25.5913 109.766 25.5913C109.917 25.5913 110.124 25.6202 110.387 25.6775C110.511 25.7133 110.573 25.7702 110.573 25.8486V26.4816Z" fill="white"/>
<path d="M116.752 31.0797C116.752 31.2586 116.684 31.3479 116.546 31.3479H113.171V31.3806C113.171 31.7591 113.266 32.081 113.456 32.3453C113.646 32.6096 113.965 32.7421 114.413 32.7421C114.958 32.7421 115.593 32.7063 116.318 32.6349H116.349C116.473 32.6349 116.535 32.6883 116.535 32.7955V33.5026C116.535 33.6671 116.463 33.7599 116.318 33.7821C115.683 33.9033 115.014 33.9641 114.31 33.9641C114.027 33.9641 113.75 33.9216 113.477 33.8355C113.204 33.7493 112.937 33.6102 112.675 33.4176C112.412 33.2243 112.202 32.944 112.043 32.5765C111.884 32.2081 111.805 31.7739 111.805 31.2738V30.4806C111.805 29.6371 112.022 28.9725 112.457 28.4868C112.892 28.0011 113.502 27.7583 114.288 27.7583C115.068 27.7583 115.674 28.0066 116.105 28.5028C116.536 28.9998 116.752 29.6593 116.752 30.4806V31.0797H116.752ZM115.376 30.3403V30.2978C115.376 29.883 115.276 29.5591 115.075 29.3272C114.876 29.0949 114.614 28.9791 114.289 28.9791C113.958 28.9791 113.69 29.0949 113.487 29.3272C113.283 29.5595 113.182 29.883 113.182 30.2978V30.3403H115.376Z" fill="white"/>
<path d="M5.1692 10.373C5.08726 10.5158 5.00612 10.655 4.92657 10.7918C5.23356 10.3802 5.53095 10.0926 5.8815 9.89416C6.26164 9.67856 6.70373 9.56775 7.28692 9.51455H10.9116C11.5259 9.52695 12.2123 9.53495 12.9829 9.53495C13.7536 9.53495 14.4391 9.52695 15.0527 9.51455H18.6797C19.2785 9.56935 19.7298 9.68496 20.1163 9.91216C20.5096 10.1442 20.8386 10.4926 21.192 11.0058L22.79 13.7747C23.1274 14.3887 23.5167 15.0887 23.9784 15.8871C24.4381 16.6864 24.8498 17.3732 25.2119 17.9732L26.81 20.7429C27.0854 21.3217 27.2213 21.7897 27.2177 22.2577C27.2153 22.6485 27.1154 23.0397 26.9187 23.4969C26.9967 23.3601 27.077 23.2205 27.1602 23.0781C27.4872 22.5085 27.7909 21.9977 28.0679 21.5329L30.047 18.1032C30.2788 17.5932 30.3967 17.1672 30.3999 16.744C30.4031 16.2743 30.268 15.8079 29.9922 15.2275L28.3941 12.4586C28.0328 11.8594 27.6195 11.1718 27.1598 10.3734C26.6993 9.57415 26.3104 8.87333 25.9714 8.25932L24.3741 5.49124C24.0196 4.97723 23.6918 4.63042 23.2977 4.39841C22.9104 4.1704 22.4607 4.054 21.8619 4H18.2348C17.6205 4.0116 16.935 4.0212 16.1651 4.0212C15.3936 4.0212 14.7081 4.012 14.0937 4H10.4683C9.8859 4.0532 9.44341 4.164 9.06367 4.37961C8.68434 4.59442 8.36736 4.91403 8.0308 5.38204L6.04539 8.82413C5.78437 9.29295 5.49498 9.80856 5.1692 10.373Z" fill="url(#paint0_linear_7072_5926)"/>
<path d="M5.81552 9.93277C5.83751 9.91877 5.85909 9.90717 5.88108 9.89357C6.26121 9.67796 6.7033 9.56716 7.28649 9.51396H9.90945C8.60317 8.81714 7.75936 7.4851 7.68741 6.00586H7.67102L6.04496 8.82314C5.90666 9.07234 5.75996 9.33475 5.60327 9.61156C5.66643 9.72316 5.73758 9.83117 5.81552 9.93277Z" fill="url(#paint1_linear_7072_5926)"/>
<path d="M7.44637 6.42547C7.52831 6.28267 7.60865 6.14266 7.6878 6.00586C7.48474 6.47707 7.38481 6.87868 7.38881 7.28149C7.39121 7.71911 7.51672 8.15712 7.76295 8.68793L9.57567 11.8308C9.89265 12.3572 10.2432 12.9473 10.6281 13.6145C11.0139 14.2825 11.3488 14.8825 11.6462 15.4185L13.4598 18.5622C13.8055 19.0542 14.1313 19.3866 14.5214 19.6082C14.9187 19.833 15.384 19.945 16.0056 19.995H19.2009C19.9012 19.9802 20.7023 19.967 21.6236 19.967C22.545 19.967 23.3452 19.9802 24.0455 19.995H27.2417C27.8804 19.9426 28.3533 19.8278 28.757 19.5894C29.0928 19.3918 29.381 19.1098 29.6792 18.7114C29.6004 18.8482 29.5193 18.987 29.4357 19.1302C29.1096 19.6982 28.8174 20.2171 28.5544 20.6903L28.0679 21.5319L26.5762 24.1196C26.25 24.576 25.9406 24.8916 25.5753 25.1056C25.1707 25.3432 24.6987 25.4588 24.0591 25.5104H20.8646C20.1635 25.4964 19.3624 25.4832 18.4419 25.4832C17.5197 25.4832 16.7195 25.4964 16.0192 25.5104H12.8246C12.2014 25.4604 11.737 25.3488 11.3404 25.1236C10.9491 24.9016 10.6245 24.5696 10.278 24.0776L8.46365 20.9339C8.16706 20.3979 7.8321 19.7978 7.44717 19.1306C7.06064 18.4634 6.71088 17.8726 6.39391 17.3462L4.58198 14.2041C4.33535 13.6721 4.21024 13.2337 4.20664 12.796C4.20424 12.36 4.32216 11.9248 4.55879 11.4008L6.04615 8.82354L6.545 7.96031C6.82041 7.4983 7.1202 6.99029 7.44637 6.42547Z" fill="url(#paint2_linear_7072_5926)"/>
<path d="M9.86069 26.5662C10.005 26.699 10.1549 26.8082 10.3168 26.899C10.4659 26.9842 10.625 27.0522 10.7984 27.1082C11.39 27.359 12.0132 27.4738 12.6643 27.5254L12.7439 27.5326H16.0384L16.0595 27.5318C16.8526 27.5162 17.6476 27.5062 18.4415 27.5062C19.2361 27.5062 20.0296 27.5162 20.8234 27.5318L20.843 27.5326H24.1391L24.2194 27.5254C24.3561 27.5154 24.4912 27.501 24.6247 27.4846C24.5296 27.655 24.4373 27.8198 24.3477 27.9806L23.8629 28.8222L22.3695 31.4107C22.0433 31.8663 21.734 32.1811 21.3686 32.3959C20.9649 32.6335 20.4928 32.7491 19.8533 32.7999H16.6587C15.9576 32.7859 12.5132 32.7859 11.8137 32.7999H8.61836C7.9944 32.7507 7.53072 32.6399 7.1342 32.4139C6.74247 32.1927 6.4175 31.8599 6.07095 31.3679L4.25822 28.2258C3.96083 27.6882 3.62586 27.089 3.24093 26.4218C2.8552 25.7529 2.50465 25.1633 2.18767 24.6365L0.37494 21.4948C0.128313 20.962 0.00320046 20.5228 2.70554e-06 20.0864C-0.00319505 19.6504 0.113923 19.216 0.352156 18.6919L1.84031 16.1139L2.33836 15.2499C2.4303 15.0966 2.52583 14.9374 2.62336 14.7734C2.66254 14.867 2.70371 14.961 2.74768 15.0538L2.78605 15.1366L4.65274 18.3743L4.66273 18.3907C5.01249 18.972 5.35745 19.5548 5.69641 20.1424C6.03617 20.73 6.36714 21.3204 6.69571 21.9144L6.7049 21.9308L8.57319 25.1693L8.62475 25.2437C8.9821 25.7489 9.37783 26.2006 9.86069 26.5662Z" fill="url(#paint3_linear_7072_5926)"/>
<path d="M27.8221 21.2761L26.2872 23.9353C26.0438 24.2738 25.7632 24.5986 25.401 24.8126C24.9921 25.0518 24.5101 25.1314 24.044 25.169H20.8658C20.0572 25.1534 19.249 25.169 18.4403 25.169C17.6317 25.169 16.8227 25.1534 16.0148 25.169H12.8375C12.3822 25.133 11.9093 25.0558 11.508 24.8274C11.1163 24.6054 10.8201 24.2578 10.565 23.8937L8.76071 20.7665C8.42495 20.1616 8.08678 19.5592 7.74183 18.9592C7.39607 18.3608 7.04312 17.7664 6.68697 17.1732L4.88263 14.0467C4.70236 13.6531 4.55086 13.2318 4.54687 12.795C4.54367 12.3606 4.68517 11.9474 4.86145 11.5574L6.39557 8.89893C6.21929 9.28894 6.07699 9.70215 6.08019 10.135C6.08419 10.5734 6.23648 10.995 6.41675 11.3882L8.22109 14.5147C8.57724 15.1075 8.92899 15.7015 9.27515 16.3015C9.62011 16.8999 9.95987 17.5032 10.294 18.108L12.0984 21.2353C12.3554 21.5977 12.6504 21.9469 13.0413 22.1681C13.4434 22.3969 13.9163 22.4729 14.3716 22.5101H17.5481C18.3576 22.4937 21.5921 22.4937 22.4011 22.5101H25.5793C26.0454 22.4717 26.5263 22.3929 26.9348 22.1521C27.2981 21.9389 27.5779 21.6153 27.8221 21.2761Z" fill="url(#paint4_linear_7072_5926)"/>
<path d="M23.6167 28.5664L22.0826 31.2249C21.8383 31.5641 21.5585 31.8889 21.1956 32.1021C20.7867 32.3421 20.3054 32.4209 19.8393 32.4593H16.6612C15.8525 32.4429 15.0435 32.4593 14.2349 32.4593C13.427 32.4593 12.618 32.4429 11.8094 32.4593H8.63281C8.17673 32.4225 7.70386 32.3461 7.30254 32.1177C6.91122 31.8949 6.61542 31.5473 6.3604 31.1841L4.55527 28.0568C4.2203 27.452 3.88214 26.8488 3.53638 26.2496C3.19062 25.6503 2.83767 25.0567 2.48232 24.4627L0.677987 21.3362C0.497714 20.9434 0.34542 20.5214 0.341423 20.0846C0.338225 19.6502 0.479726 19.2378 0.656002 18.8478L2.19093 16.1885C2.01465 16.5793 1.87235 16.9925 1.87475 17.4253C1.87874 17.8637 2.03104 18.2845 2.21211 18.6785L4.01645 21.8042C4.3726 22.397 4.72435 22.9919 5.07051 23.5911C5.41546 24.1903 5.75443 24.7935 6.08939 25.3975L7.89373 28.5256C8.14995 28.8872 8.44574 29.2364 8.83667 29.4584C9.23878 29.6865 9.71125 29.7625 10.1669 29.8001H13.3431C14.1517 29.7845 17.3871 29.7845 18.1953 29.8001H21.3735C21.8395 29.7617 22.3212 29.6829 22.7297 29.442C23.0927 29.2288 23.3721 28.9056 23.6167 28.5664Z" fill="url(#paint5_linear_7072_5926)"/>
<defs>
<linearGradient id="paint0_linear_7072_5926" x1="29.4246" y1="16.9402" x2="8.19653" y2="4.00284" gradientUnits="userSpaceOnUse">
<stop stop-color="#0579C3"/>
<stop offset="1" stop-color="#1199E6"/>
</linearGradient>
<linearGradient id="paint1_linear_7072_5926" x1="7.10618" y1="10.6785" x2="9.27567" y2="6.92329" gradientUnits="userSpaceOnUse">
<stop stop-color="#05699F"/>
<stop offset="1" stop-color="#0579C3"/>
</linearGradient>
<linearGradient id="paint2_linear_7072_5926" x1="5.5375" y1="8.99982" x2="27.2029" y2="23.4742" gradientUnits="userSpaceOnUse">
<stop stop-color="#EFD15A"/>
<stop offset="1" stop-color="#E4A11C"/>
</linearGradient>
<linearGradient id="paint3_linear_7072_5926" x1="1.28654" y1="17.5405" x2="21.64" y2="31.7636" gradientUnits="userSpaceOnUse">
<stop stop-color="#EFD15A"/>
<stop offset="1" stop-color="#E4A11C"/>
</linearGradient>
<linearGradient id="paint4_linear_7072_5926" x1="29.7037" y1="27" x2="2.21971" y2="10.6542" gradientUnits="userSpaceOnUse">
<stop stop-color="#C97C16"/>
<stop offset="0.4" stop-color="#E4A11C"/>
<stop offset="1" stop-color="#EFD15A"/>
</linearGradient>
<linearGradient id="paint5_linear_7072_5926" x1="25.4983" y1="34.2904" x2="-1.98644" y2="17.9451" gradientUnits="userSpaceOnUse">
<stop stop-color="#C97C16"/>
<stop offset="0.4" stop-color="#E4A11C"/>
<stop offset="1" stop-color="#EFD15A"/>
</linearGradient>
</defs>
</svg>
