<svg width="60" height="60" viewBox="0 0 60 60" fill="none" xmlns="http://www.w3.org/2000/svg">
<path d="M24.9419 3.0474L24.9854 3.04338C25.9075 2.96366 26.8687 3.01812 27.7956 3.01859L32.9665 3.01896L40.9372 3.01779C43.1579 3.01747 45.4315 2.8998 47.6221 3.32919C49.5846 3.71388 51.4788 4.52913 53.0097 5.82989C55.4892 7.9368 56.6641 11.0254 56.9195 14.2079C57.0344 15.6383 56.992 17.0846 56.9917 18.5188L56.9916 24.8471L56.9917 31.2057C56.9926 33.2922 57.0757 35.3948 56.6613 37.452C56.2652 39.4181 55.4563 41.293 54.1465 42.8253C51.8668 45.4926 48.722 46.4768 45.3276 46.7402C44.1576 46.8167 42.959 46.7692 41.7865 46.7693L35.3657 46.7686L28.7671 46.7697C26.7106 46.7698 24.6328 46.8608 22.6048 46.4553C20.5799 46.0505 18.6627 45.2317 17.0964 43.8669C14.587 41.6802 13.4824 38.5033 13.2674 35.2542C13.1825 33.9703 13.228 32.663 13.2282 31.376L13.2286 24.9397L13.2281 18.523C13.2281 16.4365 13.1381 14.3344 13.5617 12.2784C13.9729 10.2831 14.8107 8.38902 16.1629 6.85176C18.4161 4.2902 21.6252 3.26183 24.9419 3.0474Z" fill="url(#paint0_linear_9010_4043)"/>
<g filter="url(#filter0_bi_9010_4043)">
<path d="M14.7254 13.2637L14.7689 13.2597C15.691 13.18 16.6521 13.2344 17.579 13.2349L22.7496 13.2353L30.7199 13.2341C32.9404 13.2338 35.2139 13.1161 37.4043 13.5455C39.3668 13.9302 41.2608 14.7454 42.7916 16.0462C45.2711 18.1531 46.4459 21.2417 46.7013 24.4242C46.8161 25.8546 46.7738 27.3009 46.7735 28.7351L46.7734 35.0634L46.7735 41.422C46.7744 43.5085 46.8574 45.6111 46.443 47.6683C46.047 49.6344 45.2381 51.5093 43.9284 53.0416C41.6488 55.7089 38.5042 56.6931 35.11 56.9565C33.94 57.033 32.7415 56.9855 31.5691 56.9856L25.1487 56.9849L18.5504 56.986C16.4941 56.9861 14.4163 57.0771 12.3885 56.6716C10.3637 56.2668 8.44654 55.448 6.88035 54.0832C4.3711 51.8965 3.2666 48.7196 3.05155 45.4705C2.96664 44.1867 3.01217 42.8793 3.01238 41.5923L3.01279 35.156L3.01227 28.7393C3.01227 26.6528 2.92233 24.5507 3.34588 22.4947C3.75701 20.4995 4.59476 18.6053 5.94692 17.0681C8.2 14.5065 11.4089 13.4781 14.7254 13.2637Z" fill="url(#paint1_linear_9010_4043)" fill-opacity="0.4"/>
</g>
<path d="M18.9861 23.3723C19.0831 23.3649 19.1806 23.3576 19.2781 23.3574C19.7039 23.3567 20.1373 23.5168 20.4406 23.8191C20.4791 23.8578 20.5156 23.8984 20.5501 23.9407C20.5846 23.9831 20.6169 24.027 20.6469 24.0726C20.6771 24.1182 20.7049 24.1651 20.7303 24.2135C20.7558 24.2618 20.7787 24.3113 20.7992 24.3619C20.8197 24.4125 20.8377 24.464 20.8532 24.5164C20.8686 24.5688 20.8813 24.6218 20.8914 24.6754C20.9016 24.7291 20.909 24.7832 20.9138 24.8376C20.9186 24.892 20.9206 24.9465 20.9199 25.0011C20.9168 25.267 20.8521 25.5708 20.7059 25.7964C20.3251 26.3843 19.5128 27.0756 18.9964 27.5923L15.8034 30.7839C15.3642 31.2175 14.9686 31.5542 14.3207 31.5436C13.7006 31.5334 13.3101 31.174 12.9007 30.7563C12.2529 30.0881 11.0776 29.2687 11.0732 28.2656C11.0732 28.2126 11.0758 28.1598 11.081 28.107C11.0862 28.0543 11.094 28.002 11.1044 27.95C11.1148 27.8981 11.1277 27.8468 11.1432 27.7961C11.1586 27.7455 11.1766 27.6957 11.197 27.6468C11.2175 27.5979 11.2402 27.5502 11.2653 27.5036C11.2905 27.4569 11.3179 27.4117 11.3476 27.3678C11.3772 27.3239 11.4089 27.2816 11.4427 27.2408C11.4766 27.2 11.5123 27.161 11.55 27.1238C11.5885 27.085 11.6288 27.0482 11.6709 27.0133C11.7131 26.9785 11.7569 26.9459 11.8023 26.9155C11.8478 26.885 11.8946 26.8569 11.9428 26.8312C11.991 26.8054 12.0404 26.7821 12.091 26.7612C12.1415 26.7404 12.1929 26.7222 12.2453 26.7065C12.2977 26.6908 12.3507 26.6778 12.4044 26.6674C12.4581 26.657 12.5122 26.6493 12.5666 26.6443C12.621 26.6393 12.6756 26.6371 12.7303 26.6376C13.472 26.6428 13.8826 27.0981 14.3686 27.5865L16.9102 25.0372C17.3699 24.5767 17.8295 24.0395 18.3537 23.6569C18.557 23.5085 18.7449 23.4382 18.9861 23.3723Z" fill="#F8F8F8"/>
<path d="M19.0978 38.6701C19.1388 38.6663 19.1798 38.6639 19.221 38.6629C19.6539 38.654 20.135 38.8234 20.4445 39.1313C20.7436 39.4284 20.9277 39.902 20.9214 40.3218C20.9174 40.5898 20.841 40.9051 20.6933 41.1306C20.304 41.7251 19.5439 42.3614 19.0274 42.8782L15.8147 46.0886C15.3737 46.5235 14.9752 46.8704 14.3175 46.8588C13.6707 46.8473 13.2742 46.4501 12.8497 46.0179C12.2 45.3562 11.0818 44.5765 11.0791 43.5735C11.0792 43.5196 11.0819 43.4658 11.0873 43.4122C11.0926 43.3586 11.1006 43.3055 11.1113 43.2527C11.1219 43.1998 11.1351 43.1477 11.151 43.0962C11.1668 43.0447 11.1851 42.9941 11.2059 42.9444C11.2266 42.8947 11.2498 42.8462 11.2754 42.7988C11.301 42.7514 11.3289 42.7053 11.3591 42.6607C11.3892 42.616 11.4215 42.573 11.4559 42.5316C11.4903 42.4902 11.5266 42.4505 11.565 42.4126C11.6037 42.3748 11.6442 42.339 11.6864 42.3053C11.7287 42.2716 11.7725 42.24 11.8179 42.2106C11.8633 42.1812 11.91 42.1541 11.9581 42.1294C12.0062 42.1047 12.0554 42.0824 12.1058 42.0625C12.1561 42.0428 12.2073 42.0255 12.2593 42.0108C12.3113 41.9961 12.364 41.984 12.4172 41.9744C12.4705 41.965 12.5241 41.9582 12.578 41.954C12.6319 41.9499 12.6859 41.9485 12.7399 41.9497C13.4493 41.9636 13.901 42.422 14.3651 42.8971L16.9276 40.3297C17.3688 39.8878 17.8124 39.3614 18.3181 38.9971C18.5729 38.8137 18.7917 38.7316 19.0978 38.6701Z" fill="#F8F8F8"/>
<path d="M25.3342 41.9523C25.99 41.9015 26.6701 41.9348 27.3281 41.9355L30.8557 41.936L34.9079 41.9336C35.6247 41.9334 36.3588 41.9008 37.074 41.9453C37.3304 41.9612 37.5677 41.9972 37.7982 42.117C37.8479 42.1435 37.8962 42.1723 37.9431 42.2036C37.99 42.2348 38.0351 42.2683 38.0787 42.3041C38.1222 42.3398 38.1639 42.3776 38.2037 42.4175C38.2435 42.4574 38.2812 42.4991 38.3169 42.5427C38.3525 42.5863 38.3859 42.6316 38.4171 42.6785C38.4482 42.7254 38.477 42.7737 38.5034 42.8236C38.5297 42.8734 38.5535 42.9243 38.5748 42.9764C38.5961 43.0285 38.6148 43.0816 38.6308 43.1356C38.7591 43.5705 38.6903 44.0036 38.4676 44.3956C38.2189 44.8332 37.8338 45.0559 37.363 45.19C36.6743 45.2625 35.9499 45.217 35.2569 45.2165L31.5454 45.216L27.6849 45.2139C26.9746 45.2167 26.2307 45.2672 25.5251 45.2112C25.2346 45.1881 24.9671 45.1169 24.7166 44.9659C24.6699 44.9381 24.6247 44.9081 24.5811 44.8757C24.5374 44.8434 24.4955 44.8089 24.4554 44.7723C24.4153 44.7357 24.3771 44.6972 24.3408 44.6567C24.3046 44.6162 24.2705 44.574 24.2386 44.5301C24.2067 44.4861 24.1771 44.4406 24.1498 44.3937C24.1224 44.3467 24.0976 44.2985 24.0751 44.2491C24.0528 44.1996 24.0329 44.1491 24.0157 44.0975C23.9984 44.046 23.9837 43.9938 23.9718 43.9408C23.9599 43.8889 23.9507 43.8364 23.9441 43.7835C23.9375 43.7307 23.9335 43.6776 23.9322 43.6243C23.9308 43.571 23.9321 43.5178 23.936 43.4647C23.9399 43.4115 23.9465 43.3587 23.9556 43.3062C23.9647 43.2537 23.9764 43.2017 23.9907 43.1504C24.0051 43.0991 24.0219 43.0486 24.0412 42.9989C24.0605 42.9492 24.0822 42.9006 24.1063 42.8531C24.1304 42.8056 24.1569 42.7594 24.1856 42.7145C24.4597 42.2805 24.8464 42.0666 25.3342 41.9523Z" fill="#F8F8F8"/>
<path d="M25.5142 26.6277C27.8994 26.5558 30.3727 26.6189 32.7666 26.6187L35.5767 26.6188C36.137 26.6189 36.7152 26.5904 37.2724 26.6497C37.5338 26.6775 37.7558 26.7588 37.9724 26.9076C38.0175 26.9387 38.061 26.972 38.1028 27.0074C38.1446 27.0428 38.1845 27.0801 38.2227 27.1194C38.2608 27.1588 38.297 27.1999 38.3311 27.2427C38.3652 27.2856 38.3971 27.3301 38.4269 27.3762C38.4565 27.4222 38.4839 27.4695 38.509 27.5183C38.534 27.567 38.5566 27.6168 38.5768 27.6678C38.5969 27.7187 38.6145 27.7706 38.6295 27.8233C38.6446 27.8759 38.657 27.9292 38.6667 27.9831C38.676 28.0355 38.6826 28.0882 38.6866 28.1413C38.6907 28.1942 38.6922 28.2473 38.6909 28.3005C38.6898 28.3537 38.686 28.4067 38.6796 28.4595C38.6731 28.5122 38.664 28.5646 38.6525 28.6165C38.6409 28.6683 38.6267 28.7195 38.6101 28.7701C38.5935 28.8206 38.5743 28.8702 38.5528 28.9188C38.5313 28.9674 38.5074 29.0148 38.4811 29.0611C38.4549 29.1073 38.4264 29.1522 38.3958 29.1956C38.0975 29.6227 37.7026 29.8045 37.2029 29.8969C34.6429 29.9481 32.0708 29.902 29.5099 29.9029L26.8894 29.9034C26.3729 29.9033 25.828 29.9362 25.3156 29.8698C25.0394 29.8339 24.7892 29.7256 24.5695 29.5545C24.5267 29.5213 24.4857 29.4859 24.4463 29.4486C24.407 29.4114 24.3695 29.3722 24.334 29.3312C24.2985 29.2902 24.2651 29.2476 24.2338 29.2033C24.2025 29.159 24.1734 29.1133 24.1466 29.0662C24.1198 29.0191 24.0954 28.9707 24.0734 28.9212C24.0513 28.8717 24.0317 28.8211 24.0146 28.7697C23.9975 28.7182 23.983 28.666 23.971 28.6132C23.9591 28.5603 23.9498 28.5069 23.9431 28.4531C23.9367 28.4002 23.933 28.3471 23.932 28.2937C23.9309 28.2404 23.9325 28.1872 23.9367 28.134C23.9409 28.0808 23.9477 28.028 23.9572 27.9755C23.9666 27.923 23.9787 27.8712 23.9933 27.8199C24.0079 27.7686 24.025 27.7182 24.0446 27.6685C24.0642 27.619 24.0862 27.5705 24.1107 27.5231C24.1351 27.4757 24.1619 27.4296 24.1909 27.3849C24.2199 27.3401 24.2511 27.2969 24.2843 27.2553C24.6089 26.8491 25.0082 26.6825 25.5142 26.6277Z" fill="#F8F8F8"/>
<defs>
<filter id="filter0_bi_9010_4043" x="-13" y="-2.78369" width="75.7812" height="75.7837" filterUnits="userSpaceOnUse" color-interpolation-filters="sRGB">
<feFlood flood-opacity="0" result="BackgroundImageFix"/>
<feGaussianBlur in="BackgroundImageFix" stdDeviation="8"/>
<feComposite in2="SourceAlpha" operator="in" result="effect1_backgroundBlur_9010_4043"/>
<feBlend mode="normal" in="SourceGraphic" in2="effect1_backgroundBlur_9010_4043" result="shape"/>
<feColorMatrix in="SourceAlpha" type="matrix" values="0 0 0 0 0 0 0 0 0 0 0 0 0 0 0 0 0 0 127 0" result="hardAlpha"/>
<feOffset/>
<feGaussianBlur stdDeviation="8"/>
<feComposite in2="hardAlpha" operator="arithmetic" k2="-1" k3="1"/>
<feColorMatrix type="matrix" values="0 0 0 0 1 0 0 0 0 1 0 0 0 0 1 0 0 0 1 0"/>
<feBlend mode="normal" in2="shape" result="effect2_innerShadow_9010_4043"/>
</filter>
<linearGradient id="paint0_linear_9010_4043" x1="35.1077" y1="3" x2="35.1077" y2="46.7838" gradientUnits="userSpaceOnUse">
<stop stop-color="#189BDC"/>
<stop offset="1" stop-color="#133A86"/>
</linearGradient>
<linearGradient id="paint1_linear_9010_4043" x1="24.8907" y1="13.2163" x2="24.8907" y2="57.0001" gradientUnits="userSpaceOnUse">
<stop stop-color="#67CFE4"/>
<stop offset="1" stop-color="#189BDC"/>
</linearGradient>
</defs>
</svg>
