<svg width="48" height="48" viewBox="0 0 48 48" fill="none" xmlns="http://www.w3.org/2000/svg">
<path d="M35.7846 13.1552C33.6169 12.1574 31.2934 11.4226 28.8637 11.0019C28.8197 10.9933 28.7758 11.0147 28.7517 11.0545C28.4528 11.5875 28.1213 12.2839 27.8903 12.8297C25.2764 12.4374 22.6766 12.4374 20.1166 12.8297C19.8856 12.2711 19.5413 11.5875 19.2424 11.0545C19.2183 11.0147 19.1744 10.9948 19.1305 11.0019C16.7021 11.4212 14.3786 12.156 12.2096 13.1552C12.1912 13.1623 12.1742 13.1765 12.1642 13.1936C7.75668 19.8001 6.54818 26.2445 7.14038 32.6093C7.14322 32.6406 7.16022 32.6704 7.1843 32.6889C10.0929 34.8323 12.9095 36.1329 15.675 36.9942C15.7189 37.0084 15.7657 36.9914 15.794 36.9544C16.4485 36.0589 17.0308 35.1137 17.531 34.1202C17.5607 34.0619 17.5324 33.9923 17.4714 33.9696C16.5463 33.6171 15.6665 33.1878 14.8193 32.7017C14.7527 32.6619 14.747 32.5667 14.8079 32.5198C14.9864 32.3862 15.165 32.2469 15.335 32.1062C15.3661 32.0806 15.4086 32.0749 15.4455 32.0919C21.0105 34.6404 27.0346 34.6404 32.5331 32.0919C32.5699 32.0749 32.6124 32.0791 32.645 32.1062C32.815 32.2469 32.9935 32.3876 33.1735 32.5212C33.2358 32.5667 33.2316 32.6633 33.1636 32.7031C32.3163 33.1992 31.4365 33.6199 30.51 33.9696C30.449 33.9923 30.4235 34.0634 30.4519 34.1216C30.9619 35.1137 31.5456 36.0589 32.1874 36.9544C32.2143 36.9928 32.2625 37.0084 32.3064 36.9956C35.0847 36.1329 37.9026 34.8323 40.8098 32.6903C40.8353 32.6719 40.8509 32.6434 40.8538 32.6122C41.5622 25.2538 39.6665 18.862 35.8271 13.1964C35.82 13.1765 35.803 13.1623 35.7846 13.1552ZM18.3626 28.7347C16.6866 28.7347 15.3066 27.1911 15.3066 25.2964C15.3066 23.4018 16.6596 21.8582 18.3626 21.8582C20.0783 21.8582 21.4455 23.4146 21.4186 25.2964C21.4186 27.1925 20.0641 28.7347 18.3626 28.7347ZM29.6613 28.7347C27.9867 28.7347 26.6053 27.1911 26.6053 25.2964C26.6053 23.4018 27.9584 21.8582 29.6613 21.8582C31.377 21.8582 32.7442 23.4146 32.7173 25.2964C32.7173 27.1925 31.377 28.7347 29.6613 28.7347Z" fill="#D3DBDE"/>
</svg>
