<svg width="32" height="32" viewBox="0 0 32 32" fill="none" xmlns="http://www.w3.org/2000/svg">
<path fill-rule="evenodd" clip-rule="evenodd" d="M16.3 0.0874514C16.1158 0.0314076 15.9464 -0.0101737 15.7524 0.00218813C15.3405 0.0830224 14.8336 0.264239 14.3682 0.430634C14.1896 0.494479 14.0171 0.556143 13.8585 0.609116L10.0962 1.86477L5.0704 3.53927L3.44273 4.08182C3.35999 4.10945 3.27609 4.13615 3.19187 4.16294C2.98237 4.2296 2.77096 4.29687 2.57084 4.38058C2.53049 4.39788 2.49158 4.41797 2.4541 4.44086C2.41663 4.46378 2.38099 4.48927 2.34718 4.51733C2.31341 4.54534 2.28182 4.57567 2.25239 4.60831C2.22296 4.6409 2.19603 4.67544 2.1716 4.71192C2.08237 4.84498 2.03316 4.99192 2.01991 5.15099C1.9935 5.46834 1.99909 5.79439 2.00463 6.11761C2.00687 6.24826 2.00911 6.37844 2.00922 6.50741L2.01153 9.02685L2.01115 12.168C2.01117 12.3087 2.01055 12.4495 2.00993 12.5904C2.00752 13.137 2.0051 13.685 2.0396 14.2296C2.06862 14.7674 2.11935 15.3031 2.1918 15.8368C2.26429 16.3704 2.35827 16.9003 2.47374 17.4263C2.50871 17.5852 2.54564 17.7436 2.58454 17.9015C2.62343 18.0595 2.66424 18.217 2.70696 18.3739C2.74973 18.5309 2.79444 18.6873 2.84109 18.8431C2.88769 18.9989 2.93621 19.1542 2.98665 19.3088C3.03709 19.4635 3.08943 19.6175 3.14366 19.7708C3.19794 19.9242 3.25406 20.0769 3.31205 20.2289C3.37007 20.3808 3.42996 20.5321 3.49169 20.6826C3.55343 20.8331 3.617 20.9828 3.6824 21.1318C3.74785 21.2807 3.81511 21.4288 3.88418 21.576C3.95325 21.7233 4.02414 21.8697 4.09684 22.0152C4.16949 22.1608 4.24397 22.3054 4.32025 22.4491C4.39649 22.5928 4.47451 22.7355 4.55429 22.8773C4.63404 23.0191 4.71553 23.1598 4.79878 23.2996C4.88202 23.4393 4.96698 23.578 5.05364 23.7157C5.1403 23.8534 5.22864 23.9899 5.31863 24.1254C5.40868 24.2609 5.50036 24.3953 5.5937 24.5285C5.68703 24.6617 5.78201 24.7938 5.87863 24.9247C5.97522 25.0555 6.07341 25.1852 6.1732 25.3136C6.273 25.4421 6.37436 25.5693 6.47728 25.6953C6.5802 25.8212 6.68466 25.9459 6.79067 26.0693C6.89667 26.1927 7.00418 26.3148 7.11319 26.4355C7.2222 26.5562 7.33268 26.6756 7.44465 26.7936C7.55662 26.9116 7.67 27.0282 7.7848 27.1435C7.89964 27.2587 8.01588 27.3725 8.13352 27.4848C8.25116 27.5971 8.37015 27.708 8.49049 27.8174C8.61088 27.9269 8.73258 28.0348 8.85559 28.1412C8.97865 28.2476 9.10297 28.3525 9.22857 28.4558C9.35417 28.5592 9.48104 28.661 9.60918 28.7612C9.73732 28.8614 9.86665 28.96 9.99717 29.0571C10.1277 29.1541 10.2595 29.2495 10.3924 29.3433C10.5253 29.4371 10.6593 29.5292 10.7945 29.6197C10.9297 29.7101 11.066 29.7989 11.2033 29.8861C11.4891 30.0672 11.7793 30.2409 12.074 30.4072C12.3686 30.5735 12.6673 30.7322 12.9701 30.8833C13.2728 31.0343 13.5792 31.1776 13.8892 31.313C14.1993 31.4485 14.5126 31.5759 14.8291 31.6954C14.8812 31.7153 14.9352 31.7368 14.9906 31.7588C15.3097 31.8861 15.6758 32.032 16.0019 31.9938C16.6669 31.8471 17.426 31.5026 18.0539 31.2176L18.0972 31.198C18.2053 31.149 18.3129 31.0989 18.42 31.048C18.5272 30.997 18.6339 30.945 18.7401 30.8921C18.8464 30.8392 18.9522 30.7853 19.0574 30.7305C19.1627 30.6757 19.2674 30.62 19.3717 30.5632C19.476 30.5065 19.5797 30.4489 19.6829 30.3904C19.7862 30.3318 19.8889 30.2724 19.991 30.212C20.0932 30.1515 20.1948 30.0902 20.2958 30.0279C20.3969 29.9657 20.4974 29.9026 20.5974 29.8385C20.6973 29.7745 20.7966 29.7096 20.8954 29.6437C20.9941 29.5779 21.0923 29.5112 21.1898 29.4436C21.2873 29.376 21.3843 29.3075 21.4806 29.2382C21.577 29.1689 21.6726 29.0987 21.7677 29.0276C21.8628 28.9565 21.9572 28.8846 22.0509 28.8119C22.1447 28.7391 22.2378 28.6655 22.3303 28.5911C22.4227 28.5167 22.5145 28.4414 22.6056 28.3653C22.6966 28.2892 22.787 28.2124 22.8767 28.1347C22.9665 28.057 23.0555 27.9784 23.1438 27.8991C23.2321 27.8198 23.3197 27.7397 23.4065 27.6588C23.4934 27.5779 23.5795 27.4963 23.6649 27.4139C23.7503 27.3314 23.8349 27.2482 23.9188 27.1643C24.0027 27.0803 24.0858 26.9956 24.1682 26.9102C24.2506 26.8247 24.3322 26.7385 24.413 26.6516C24.4938 26.5647 24.5739 26.4771 24.6531 26.3887C24.7323 26.3004 24.8108 26.2113 24.8884 26.1215C24.9661 26.0318 25.0429 25.9413 25.1189 25.8501C25.1949 25.759 25.2701 25.6672 25.3445 25.5747C25.4188 25.4822 25.4924 25.389 25.5651 25.2952C25.6378 25.2014 25.7096 25.1069 25.7806 25.0118C25.8516 24.9167 25.9217 24.8209 25.991 24.7246C26.0603 24.6282 26.1286 24.5312 26.1962 24.4336C26.2637 24.336 26.3304 24.2378 26.3961 24.139C26.4619 24.0402 26.5267 23.9408 26.5907 23.8408C26.707 23.6592 26.8203 23.4757 26.9306 23.2904C27.0409 23.1051 27.1481 22.918 27.2523 22.7292C27.3564 22.5404 27.4575 22.3499 27.5555 22.1578C27.6534 21.9657 27.7482 21.772 27.8398 21.5768C27.9314 21.3816 28.0198 21.1849 28.105 20.9868C28.1902 20.7886 28.2721 20.5892 28.3508 20.3884C28.4294 20.1876 28.5048 19.9856 28.5769 19.7824C28.6489 19.5791 28.7177 19.3747 28.783 19.1692C28.8484 18.9637 28.9104 18.7572 28.969 18.5496C29.0277 18.3421 29.0829 18.1337 29.1347 17.9243C29.1866 17.715 29.2349 17.5049 29.2799 17.2939C29.3248 17.083 29.3663 16.8714 29.4043 16.6591C29.4424 16.4469 29.4769 16.2341 29.508 16.0207C29.539 15.8072 29.5666 15.5934 29.5907 15.3791C29.6148 15.1648 29.6354 14.9501 29.6524 14.7352C29.6695 14.5202 29.683 14.305 29.6931 14.0896C29.7221 13.5514 29.7199 13.0109 29.7177 12.4714C29.7172 12.3281 29.7166 12.1849 29.7166 12.0418L29.7162 8.95131L29.7181 6.44757C29.7181 6.32648 29.7219 6.2001 29.7257 6.07139C29.7369 5.70089 29.7485 5.31108 29.6729 4.9726C29.6258 4.76188 29.4688 4.56791 29.2889 4.45193C29.0625 4.30603 28.6758 4.19052 28.3454 4.09182C28.2318 4.0579 28.125 4.02597 28.0335 3.99547L25.5137 3.15528L19.4241 1.12581C19.0884 1.01395 18.753 0.899302 18.4174 0.784601C17.7138 0.54411 17.0095 0.303365 16.3 0.0874514ZM18.73 8.57041C17.6878 8.57773 16.7237 8.89568 15.8644 9.48026C14.8654 8.83309 13.8494 8.52996 12.6554 8.58185C12.6141 8.58423 12.5728 8.58711 12.5316 8.59048C12.4903 8.59386 12.4491 8.59776 12.408 8.60218C12.3668 8.60655 12.3257 8.61147 12.2847 8.61693C12.2437 8.62235 12.2028 8.62829 12.1619 8.63475C12.121 8.64117 12.0802 8.64811 12.0395 8.65558C11.9988 8.66304 11.9582 8.67102 11.9177 8.67952C11.8772 8.68799 11.8368 8.69695 11.7966 8.70641C11.7563 8.71591 11.7161 8.7259 11.6761 8.73636C11.6361 8.74682 11.5962 8.75779 11.5564 8.76925C11.5166 8.78076 11.477 8.79272 11.4375 8.80514C11.3981 8.81761 11.3588 8.83055 11.3197 8.84397C11.2805 8.8574 11.2416 8.87132 11.2027 8.88574C11.164 8.90012 11.1254 8.915 11.0869 8.93039C11.0485 8.94573 11.0103 8.96157 10.9723 8.97791C10.9342 8.99421 10.8964 9.01098 10.8588 9.02824C10.8212 9.0455 10.7838 9.06322 10.7466 9.08139C10.7094 9.09957 10.6725 9.1182 10.6358 9.13729C10.5991 9.15638 10.5626 9.17593 10.5264 9.19594C10.4902 9.21595 10.4542 9.23642 10.4185 9.25734C10.3828 9.27823 10.3473 9.29957 10.3122 9.32137C10.277 9.34313 10.2421 9.36535 10.2074 9.38803C10.1728 9.41066 10.1384 9.43374 10.1044 9.45725C10.0703 9.48076 10.0366 9.50468 10.0031 9.52903C9.96965 9.55337 9.93651 9.57813 9.90366 9.60331C9.87081 9.62849 9.83828 9.65406 9.80606 9.68003C9.77383 9.706 9.74196 9.73239 9.71045 9.75919C9.67889 9.78596 9.64767 9.81312 9.61678 9.84067C9.58589 9.86818 9.55536 9.89611 9.52518 9.92446C9.495 9.95276 9.46517 9.98144 9.4357 10.0105C9.40623 10.0395 9.37711 10.0689 9.34835 10.0987C9.31963 10.1285 9.29128 10.1586 9.26331 10.1891C9.2353 10.2195 9.20768 10.2504 9.18046 10.2816C9.15287 10.3129 9.12569 10.3447 9.09892 10.3767C9.07212 10.4088 9.04574 10.4412 9.01976 10.474C8.99375 10.5067 8.96818 10.5397 8.94304 10.5731C8.91787 10.6065 8.89312 10.6402 8.86882 10.6742C8.84452 10.7081 8.82063 10.7424 8.79717 10.777C8.77374 10.8116 8.75073 10.8465 8.72813 10.8816C8.70554 10.9168 8.6834 10.9522 8.66173 10.9879C8.64001 11.0237 8.61877 11.0597 8.59801 11.0959C8.57721 11.1321 8.55687 11.1686 8.53699 11.2054C8.5171 11.2422 8.49768 11.2792 8.47871 11.3164C8.45974 11.3537 8.44126 11.3911 8.42325 11.4288C8.40524 11.4665 8.38769 11.5045 8.3706 11.5426C8.35355 11.5808 8.33698 11.6191 8.32089 11.6577C8.30476 11.6962 8.28913 11.735 8.27399 11.774C8.25886 11.8129 8.24421 11.852 8.23004 11.8913C8.21586 11.9306 8.20219 11.9701 8.18902 12.0098C8.17585 12.0495 8.16317 12.0893 8.151 12.1293C8.13883 12.1692 8.12716 12.2094 8.11598 12.2496C8.10481 12.2899 8.09414 12.3303 8.08397 12.3709C8.07384 12.4114 8.06419 12.452 8.05502 12.4928C8.04589 12.5336 8.03726 12.5745 8.02913 12.6155C8.021 12.6564 8.0134 12.6975 8.00631 12.7387C7.99922 12.7799 7.99264 12.8212 7.98655 12.8625C7.98051 12.9039 7.97498 12.9453 7.96998 12.9868C7.96494 13.0283 7.96042 13.0698 7.95641 13.1114C7.95245 13.153 7.94899 13.1947 7.94603 13.2364C7.94312 13.2781 7.9407 13.3198 7.93878 13.3615C7.93686 13.4033 7.93549 13.445 7.93465 13.4868C7.93378 13.5286 7.93345 13.5704 7.93365 13.6122C7.93386 13.6539 7.93457 13.6957 7.93578 13.7375C7.93703 13.7793 7.9388 13.8211 7.94109 13.8628C7.94335 13.9045 7.94614 13.9462 7.94947 13.9878C7.95693 14.0922 7.96771 14.1963 7.9818 14.3C7.99589 14.4036 8.01325 14.5068 8.03389 14.6094C8.05452 14.712 8.07838 14.8138 8.10548 14.9149C8.13258 15.016 8.16286 15.1161 8.19633 15.2152C8.22981 15.3144 8.26639 15.4124 8.30607 15.5092C8.34575 15.606 8.38848 15.7015 8.43425 15.7956C8.48002 15.8897 8.52871 15.9823 8.58032 16.0733C8.63197 16.1643 8.68645 16.2536 8.74377 16.3411C9.09397 16.8754 9.56214 17.3321 10.0227 17.7814C10.1316 17.8876 10.24 17.9934 10.3464 18.0997L12.3363 20.0881L14.2002 21.9538C14.2984 22.0523 14.3961 22.1533 14.4942 22.2547C14.7357 22.5042 14.9796 22.7563 15.239 22.9794C15.4384 23.151 15.6797 23.248 15.9466 23.2213C16.1149 23.2045 16.2732 23.1303 16.4108 23.035C16.5958 22.9067 16.7622 22.7328 16.9233 22.5645C16.9745 22.511 17.0251 22.4581 17.0756 22.4074L18.1704 21.3073L20.7518 18.7274C20.913 18.5661 21.0836 18.4012 21.2579 18.2328C21.9578 17.5562 22.7168 16.8225 23.1663 16.0393C23.587 15.3063 23.7918 14.4275 23.7896 13.5858C23.7897 13.5445 23.7892 13.5032 23.7882 13.4619C23.7872 13.4206 23.7858 13.3794 23.7838 13.3381C23.7818 13.2968 23.7792 13.2556 23.7762 13.2144C23.7731 13.1732 23.7696 13.132 23.7656 13.0909C23.7615 13.0498 23.7569 13.0088 23.7519 12.9678C23.7468 12.9268 23.7413 12.8859 23.7352 12.845C23.7291 12.8042 23.7225 12.7634 23.7153 12.7227C23.7083 12.682 23.7007 12.6414 23.6926 12.6009C23.6845 12.5604 23.6758 12.52 23.6668 12.4797C23.6577 12.4394 23.6481 12.3992 23.6379 12.3592C23.6278 12.3191 23.6173 12.2792 23.6062 12.2394C23.5951 12.1996 23.5835 12.16 23.5714 12.1204C23.5593 12.0809 23.5467 12.0416 23.5337 12.0024C23.5207 11.9632 23.5071 11.9242 23.4931 11.8853C23.4791 11.8465 23.4646 11.8078 23.4496 11.7693C23.4346 11.7308 23.4192 11.6925 23.4033 11.6544C23.3873 11.6163 23.3709 11.5784 23.3541 11.5407C23.3372 11.503 23.3198 11.4655 23.302 11.4282C23.2842 11.3909 23.266 11.3539 23.2473 11.317C23.2285 11.2802 23.2094 11.2436 23.1897 11.2073C23.1701 11.1709 23.15 11.1348 23.1295 11.099C23.109 11.0631 23.088 11.0275 23.0666 10.9922C23.0452 10.9569 23.0234 10.9218 23.0012 10.887C22.9788 10.8522 22.9561 10.8178 22.933 10.7835C22.9099 10.7493 22.8863 10.7154 22.8623 10.6817C22.8384 10.6481 22.814 10.6147 22.7892 10.5817C22.7644 10.5487 22.7392 10.516 22.7136 10.4835C22.688 10.4511 22.662 10.4191 22.6355 10.3873C22.6092 10.3555 22.5824 10.3241 22.5552 10.293C22.528 10.2619 22.5004 10.2311 22.4725 10.2007C22.4445 10.1703 22.4162 10.1402 22.3875 10.1105C22.3588 10.0808 22.3298 10.0515 22.3003 10.0224C22.2711 9.99334 22.2415 9.96462 22.2116 9.93627C22.1817 9.90793 22.1514 9.87994 22.1208 9.8523C22.0902 9.8247 22.0592 9.79748 22.028 9.77064C21.9967 9.74383 21.965 9.71741 21.933 9.69135C21.9011 9.6653 21.8689 9.63964 21.8363 9.61438C21.8037 9.58912 21.7708 9.56427 21.7376 9.53985C21.7044 9.51542 21.6708 9.49141 21.637 9.46781C21.6033 9.44422 21.5692 9.42104 21.5348 9.39828C21.5004 9.37552 21.4658 9.35318 21.4308 9.33125C21.3959 9.30937 21.3607 9.28792 21.3253 9.26691C21.2898 9.24586 21.2541 9.22527 21.2181 9.20513C21.1821 9.185 21.1459 9.16532 21.1094 9.14611C21.073 9.12685 21.0363 9.10807 20.9994 9.08977C20.9624 9.07143 20.9253 9.05354 20.888 9.03612C20.8506 9.01874 20.813 9.00181 20.7752 8.98535C20.7374 8.96884 20.6994 8.95283 20.6612 8.93733C20.623 8.92178 20.5847 8.90671 20.5461 8.89212C20.5076 8.87757 20.4688 8.86348 20.4299 8.84985C20.391 8.83622 20.3519 8.82309 20.3126 8.81046C20.2734 8.79783 20.234 8.78568 20.1945 8.774C20.155 8.76233 20.1153 8.75114 20.0755 8.74043C20.0357 8.72975 19.9957 8.71956 19.9557 8.70985C19.9156 8.70018 19.8754 8.69099 19.8351 8.68227C19.7948 8.6736 19.7544 8.66541 19.7139 8.6577C19.6734 8.64999 19.6328 8.6428 19.5921 8.63613C19.5514 8.62946 19.5107 8.62327 19.4699 8.61756C19.429 8.61189 19.3881 8.60672 19.3472 8.60205C19.3062 8.59742 19.2652 8.59328 19.2241 8.58961C19.1831 8.58598 19.142 8.58286 19.1008 8.58023C19.0597 8.5776 19.0185 8.5755 18.9773 8.57391C18.9362 8.57229 18.895 8.57118 18.8537 8.5706C18.8125 8.57002 18.7713 8.56995 18.73 8.57041Z" fill="#70ADC2"/>
<path d="M12.7032 10.4565C13.3923 10.3681 14.1637 10.5952 14.7294 10.985C15.0818 11.2278 15.3901 11.6335 15.853 11.6426C16.3448 11.6522 16.7126 11.16 17.0962 10.9175C17.1565 10.8794 17.2181 10.8436 17.2809 10.8098C17.3438 10.7761 17.4077 10.7445 17.4727 10.7153C17.5377 10.686 17.6037 10.659 17.6706 10.6343C17.7375 10.6096 17.8052 10.5873 17.8736 10.5673C17.9421 10.5474 18.0112 10.5298 18.0809 10.5147C18.1505 10.4996 18.2207 10.4869 18.2913 10.4766C18.3618 10.4664 18.4327 10.4586 18.5038 10.4533C18.5749 10.448 18.6461 10.4452 18.7174 10.4449C19.5711 10.438 20.38 10.7565 20.9853 11.3622C21.0221 11.3985 21.058 11.4357 21.0929 11.4738C21.1278 11.5119 21.1618 11.5508 21.1947 11.5906C21.2278 11.6304 21.2598 11.671 21.2907 11.7124C21.3217 11.7537 21.3516 11.7958 21.3805 11.8387C21.4094 11.8815 21.4372 11.9251 21.4639 11.9693C21.4906 12.0136 21.5163 12.0584 21.5408 12.1039C21.5653 12.1494 21.5887 12.1955 21.6109 12.2422C21.633 12.2889 21.6541 12.3361 21.674 12.3838C21.6938 12.4315 21.7125 12.4796 21.73 12.5283C21.7475 12.5769 21.7637 12.626 21.7788 12.6754C21.7938 12.7249 21.8076 12.7746 21.8202 12.8248C21.8327 12.8749 21.844 12.9254 21.8541 12.976C21.8641 13.0267 21.8729 13.0776 21.8805 13.1287C21.888 13.1799 21.8943 13.2312 21.8993 13.2826C21.9043 13.3341 21.908 13.3856 21.9104 13.4373C21.9129 13.4889 21.914 13.5405 21.9139 13.5922C21.9144 13.6614 21.9126 13.7305 21.9084 13.7996C21.9043 13.8687 21.8979 13.9375 21.8892 14.0062C21.8805 14.0748 21.8696 14.1431 21.8564 14.211C21.8431 14.2789 21.8276 14.3463 21.8099 14.4133C21.7922 14.4801 21.7723 14.5463 21.7501 14.6119C21.728 14.6775 21.7037 14.7422 21.6773 14.8062C21.6508 14.8701 21.6223 14.9331 21.5917 14.9951C21.561 15.0572 21.5284 15.1182 21.4937 15.178C21.1287 15.8011 20.5043 16.3223 19.9953 16.8312L18.1 18.7247L15.8631 20.9633L12.2053 17.306C11.6832 16.7839 10.7498 15.9418 10.3548 15.3692C10.3178 15.3162 10.2825 15.2621 10.249 15.2068C10.2155 15.1516 10.1838 15.0953 10.1539 15.038C10.124 14.9807 10.096 14.9224 10.07 14.8633C10.0439 14.8042 10.0197 14.7443 9.99742 14.6837C9.9752 14.623 9.95494 14.5617 9.93664 14.4997C9.91838 14.4377 9.90213 14.3752 9.88787 14.3121C9.87366 14.2491 9.86146 14.1857 9.85129 14.1219C9.84116 14.0581 9.8331 13.994 9.82709 13.9296C9.74506 13.0807 9.98823 12.2493 10.5317 11.59C11.0808 10.9238 11.8498 10.5411 12.7032 10.4565Z" fill="#70ADC2"/>
</svg>
