<svg width="90" height="90" viewBox="0 0 90 90" fill="none" xmlns="http://www.w3.org/2000/svg">
<g clip-path="url(#clip0_7139_27542)">
<path d="M65.2 22.6471C65.2 22.6471 61.6613 22.0859 59.7069 20.0259C57.7524 17.966 57.3787 16.375 57.3787 16.375H32.6215C32.6215 16.375 32.2497 17.966 30.2933 20.0259C28.3383 22.0859 24.8002 22.6471 24.8002 22.6471C24.8002 22.6471 22.753 31.9981 28.1524 46.1337C33.5227 60.1927 44.8739 64.8041 44.9972 64.8538C44.9972 64.8538 56.4774 60.1922 61.8477 46.1337C67.2471 31.9981 65.2 22.6471 65.2 22.6471Z" fill="url(#paint0_linear_7139_27542)"/>
<path fill-rule="evenodd" clip-rule="evenodd" d="M24.4195 27.4415C24.4194 27.4656 24.4194 27.4898 24.4195 27.5141V27.4415ZM24.4363 28.625C24.556 32.7374 25.3543 38.7667 28.1524 46.0785C33.5227 60.1114 44.8739 64.7142 44.9972 64.7639C44.9972 64.7639 56.4774 60.1109 61.8477 46.0785C64.6458 38.7667 65.4441 32.7374 65.5638 28.625H24.4363Z" fill="url(#paint1_linear_7139_27542)"/>
<g filter="url(#filter0_bd_7139_27542)">
<path d="M43.7588 74.5022C43.1193 74.2434 28.0074 67.9451 20.8837 49.4704C13.8642 31.2632 16.4403 19.0311 16.5533 18.5188L17.035 16.34L19.2476 15.9919C20.1091 15.8498 22.9042 15.1222 24.2484 13.7192C25.7721 12.13 26.2572 10.9098 26.3446 10.6638L26.81 8L29.5317 8.18625H63.2249L63.6548 10.6615C63.7427 10.9086 64.229 12.1294 65.7521 13.7186C67.1441 15.1721 70.0511 15.8817 70.7529 15.9913L72.9655 16.3395L73.4472 18.5182C73.5596 19.0299 76.1357 31.2621 69.1157 49.4699C61.9756 67.9881 46.8649 74.2469 46.2242 74.5039L44.9918 75L43.7588 74.5022Z" fill="url(#paint2_linear_7139_27542)" fill-opacity="0.8" shape-rendering="crispEdges"/>
<path d="M19.3254 16.4858L19.3253 16.4858L17.4496 16.781L17.0416 18.6264C17.0415 18.6265 17.0415 18.6266 17.0415 18.6267C16.9432 19.0725 14.3756 31.1997 21.3502 49.2906C28.3996 67.5723 43.3535 73.7987 43.9462 74.0386C43.9462 74.0386 43.9463 74.0387 43.9464 74.0387L44.9921 74.4609L46.0375 74.0401L46.0381 74.0399C46.6277 73.8033 61.5828 67.617 68.6491 49.29C75.6222 31.2042 73.0583 19.0788 72.959 18.6261L19.3254 16.4858ZM19.3254 16.4858L19.329 16.4852M19.3254 16.4858L19.329 16.4852M19.329 16.4852C19.7937 16.4086 20.7407 16.1821 21.7466 15.795C22.7428 15.4116 23.8604 14.8469 24.6093 14.0652C26.1864 12.4203 26.707 11.1375 26.8158 10.8311L26.8299 10.7914M19.329 16.4852L26.8299 10.7914M26.8299 10.7914L26.8371 10.7498M26.8299 10.7914L26.8371 10.7498M26.8371 10.7498L27.225 8.52957L29.4975 8.68508L29.5146 8.68625M26.8371 10.7498L29.5146 8.68625M29.5146 8.68625H29.5317M29.5146 8.68625H29.5317M29.5317 8.68625H62.8043L63.1621 10.747L63.1694 10.789M29.5317 8.68625L63.1694 10.789M63.1694 10.789L63.1837 10.8291M63.1694 10.789L63.1837 10.8291M63.1837 10.8291C63.2931 11.1364 63.8147 12.4196 65.391 14.0645M63.1837 10.8291L65.391 14.0645M65.391 14.0645C66.1655 14.8732 67.3253 15.446 68.3349 15.8267M65.391 14.0645L68.3349 15.8267M68.3349 15.8267C69.3534 16.2109 70.2884 16.4248 70.6752 16.4853L68.3349 15.8267ZM72.551 16.7804L72.9589 18.6254L70.6757 16.4853L72.551 16.7804Z" stroke="white" shape-rendering="crispEdges"/>
</g>
<path d="M69.1151 20.3595C69.1151 20.3595 64.9401 19.7009 62.6341 17.2839C60.3281 14.8668 59.8872 13 59.8872 13H30.6772C30.6772 13 30.2386 14.8668 27.9303 17.2839C25.6237 19.7009 21.4492 20.3595 21.4492 20.3595C21.4492 20.3595 19.0339 31.3317 25.4044 47.918C31.7406 64.4144 45.1333 69.8252 45.2787 69.8836C45.2787 69.8836 58.8238 64.4138 65.16 47.918C71.5305 31.3317 69.1151 20.3595 69.1151 20.3595Z" stroke="white" stroke-miterlimit="10" stroke-linecap="round" stroke-linejoin="round"/>
<path d="M17.4807 19.297L17.9467 17.1777L20.0868 16.8392C20.9197 16.7009 23.6243 15.9931 24.9244 14.6283C26.3981 13.0825 26.8676 11.895 26.9521 11.6564L27.4023 9.06552L30.0352 9.24699H62.63L63.0459 11.6546C63.1309 11.895 63.6022 13.0825 65.0741 14.6283C66.4209 16.0421 69.2331 16.7325 69.9123 16.8398L72.053 17.1783L72.519 19.2976C72.6093 19.7102 74.3271 30.3117 71.0651 43.9982C75.6051 28.8809 73.5506 19.0374 73.4498 18.5781L72.9681 16.387L70.7552 16.0369C70.0533 15.926 67.1461 15.2124 65.7539 13.7512C64.2312 12.1529 63.7449 10.9252 63.6563 10.6766L63.2264 8.18731H29.5302L26.8082 8L26.3428 10.679C26.2554 10.9258 25.7702 12.1535 24.2464 13.7518C22.902 15.1622 20.1066 15.8939 19.2451 16.0375L17.0322 16.3876L16.5504 18.5787C16.4497 19.0385 14.3946 28.882 18.9346 44C15.672 30.3117 17.3904 19.7096 17.4807 19.297Z" fill="white"/>
</g>
<defs>
<filter id="filter0_bd_7139_27542" x="4" y="0" width="82" height="91" filterUnits="userSpaceOnUse" color-interpolation-filters="sRGB">
<feFlood flood-opacity="0" result="BackgroundImageFix"/>
<feGaussianBlur in="BackgroundImageFix" stdDeviation="2"/>
<feComposite in2="SourceAlpha" operator="in" result="effect1_backgroundBlur_7139_27542"/>
<feColorMatrix in="SourceAlpha" type="matrix" values="0 0 0 0 0 0 0 0 0 0 0 0 0 0 0 0 0 0 127 0" result="hardAlpha"/>
<feOffset dy="4"/>
<feGaussianBlur stdDeviation="6"/>
<feComposite in2="hardAlpha" operator="out"/>
<feColorMatrix type="matrix" values="0 0 0 0 0.94902 0 0 0 0 0.498039 0 0 0 0 0.0509804 0 0 0 0.5 0"/>
<feBlend mode="normal" in2="effect1_backgroundBlur_7139_27542" result="effect2_dropShadow_7139_27542"/>
<feBlend mode="normal" in="SourceGraphic" in2="effect2_dropShadow_7139_27542" result="shape"/>
</filter>
<linearGradient id="paint0_linear_7139_27542" x1="45.0001" y1="64.8538" x2="45.0001" y2="16.375" gradientUnits="userSpaceOnUse">
<stop stop-color="#F27F0D"/>
<stop offset="1" stop-color="#FACC9E"/>
</linearGradient>
<linearGradient id="paint1_linear_7139_27542" x1="44.999" y1="41.9661" x2="44.999" y2="64.8539" gradientUnits="userSpaceOnUse">
<stop stop-color="#F45925"/>
<stop offset="1" stop-color="#F27F0D"/>
</linearGradient>
<linearGradient id="paint2_linear_7139_27542" x1="45" y1="8.00157" x2="45" y2="75.0016" gradientUnits="userSpaceOnUse">
<stop stop-color="white" stop-opacity="0.9"/>
<stop offset="0.0643" stop-color="white" stop-opacity="0.8435"/>
<stop offset="0.455" stop-color="white" stop-opacity="0.5"/>
<stop offset="0.8319" stop-color="#F4F4F3" stop-opacity="0.1957"/>
<stop offset="0.9505" stop-color="#EFEFEF" stop-opacity="0.1"/>
</linearGradient>
<clipPath id="clip0_7139_27542">
<rect width="90" height="90" fill="white"/>
</clipPath>
</defs>
</svg>
