<svg width="130" height="40" viewBox="0 0 130 40" fill="none" xmlns="http://www.w3.org/2000/svg">
<path d="M20.488 12.752H31.048V16.112H20.488V12.752ZM21.192 6.8L24.36 7.408C23.272 13.488 21.448 19.888 19.176 24.048C18.664 23.408 17.416 22.16 16.712 21.616C18.792 18.032 20.296 12.336 21.192 6.8ZM25.736 14.928L29 15.184C27.88 26.224 24.904 33.008 17.032 37.008C16.712 36.272 15.784 34.832 15.176 34.16C22.408 30.928 24.936 24.784 25.736 14.928ZM22.312 15.856C23.464 23.856 25.96 30.8 31.432 33.84C30.664 34.48 29.544 35.856 29.032 36.816C23.272 33.04 20.936 25.52 19.624 16.24L22.312 15.856ZM8.456 6.832H11.336V23.92H8.456V6.832ZM6.152 11.152V15.888H13.832V11.152H6.152ZM3.272 8.752H16.84V18.32H3.272V8.752ZM5.896 21.392V22.8H13.96V21.392H5.896ZM2.728 19.248H17.288V24.976H2.728V19.248ZM1.032 12.08H4.232V12.272H14.952V12.08H18.536V14.8H14.952V14.608H4.232V14.8H1.032V12.08ZM3.016 31.44C4.648 29.424 6.664 26.288 7.784 23.728L10.824 24.4C9.544 27.152 7.56 30.192 6.088 32.144L3.016 31.44ZM3.016 31.44L5.448 29.456C9.512 30.416 14.44 32.304 17.384 33.808L14.984 35.952C12.2 34.384 7.176 32.432 3.016 31.44ZM12.68 25.456H15.688V27.056C15.688 30.416 14.12 34.864 2.216 36.848C1.96 36.144 1.256 34.992 0.712001 34.384C11.528 32.72 12.68 29.296 12.68 26.928V25.456ZM1.384 26.384H18.344V28.944H1.384V26.384ZM44.264 12.208H62.184V15.952H44.264V12.208ZM46.152 17.744L49.608 16.944C50.568 21.2 51.496 26.704 51.816 29.936L48.04 31.024C47.816 27.696 46.984 22.064 46.152 17.744ZM56.904 16.848L60.936 17.456C60.008 22.864 58.632 29.2 57.416 33.264L54.088 32.56C55.24 28.4 56.424 21.776 56.904 16.848ZM43.112 31.92H63.272V35.6H43.112V31.92ZM50.344 7.28L54.024 6.352C54.632 7.92 55.304 9.904 55.656 11.28L51.816 12.336C51.592 10.992 50.92 8.848 50.344 7.28ZM40.936 6.96L44.552 8.08C42.504 13.552 39.176 19.312 35.688 22.96C35.336 22.032 34.28 19.92 33.64 18.992C36.52 16.08 39.304 11.536 40.936 6.96ZM37.704 15.792L41.576 11.92V11.952V36.848H37.704V15.792ZM78.792 6.864H83.176C82.984 13.488 82.792 28.944 69.416 36.816C68.712 35.792 67.464 34.576 66.216 33.712C79.24 26.704 78.632 12.336 78.792 6.864ZM82.824 10.768C83.08 13.36 84.104 27.76 96.584 33.328C95.432 34.224 94.344 35.536 93.768 36.624C80.648 30.384 79.592 14.384 79.112 11.184L82.824 10.768ZM104.584 12.624H126.856V16.368H104.584V12.624ZM103.272 22.064H125.64V25.744H103.272V22.064ZM99.56 32.208H128.488V35.952H99.56V32.208ZM112.008 6.832H116.008V34.064H112.008V6.832ZM104.616 7.216L108.584 8.112C107.176 13.072 104.84 18 102.344 21.072C101.576 20.4 99.88 19.28 98.888 18.736C101.416 16.048 103.464 11.632 104.616 7.216Z" fill="#2B2B2B"/>
</svg>
