<svg width="160" height="160" viewBox="0 0 160 160" fill="none" xmlns="http://www.w3.org/2000/svg">
<g opacity="0.5">
<path d="M99.5493 36.1023C95.0872 36.1023 91.4617 39.7141 91.4063 44.1833L91.3998 44.1898V44.293V62.6211V62.8711H91.6498H113.916L110.417 87.06H91.6498H91.3998V87.31V143.974C87.6736 144.484 83.8635 144.75 79.9971 144.75C75.521 144.75 71.1245 144.397 66.8408 143.714V87.31V87.06H66.5908H46.0395V62.8711H66.5908H66.8408V62.6211V40.1959C66.8408 26.504 77.8141 15.3861 91.4057 15.2512V15.2618H91.6557C91.6959 15.2618 91.7316 15.2562 91.7495 15.2534L91.7525 15.253C91.7683 15.2505 91.7728 15.2501 91.7734 15.25H113.961V36.1023H99.5493Z" fill="white" stroke="#00A4F6" stroke-width="0.5"/>
</g>
</svg>
